<?xml version="1.0" standalone="no"?>
<!DOCTYPE svg PUBLIC "-//W3C//DTD SVG 1.1//EN" "http://www.w3.org/Graphics/SVG/1.1/DTD/svg11.dtd" >
<svg xmlns="http://www.w3.org/2000/svg" xmlns:xlink="http://www.w3.org/1999/xlink" version="1.1">
<metadata>
Created by FontForge 20170731 at Wed Mar 18 14:18:06 2020
 By Aleksey,,,
</metadata>
<defs>
<font id="LiberatorSIROKO-Heavy" horiz-adv-x="540" >
  <font-face 
    font-family="Liberator SIROKO"
    font-weight="420"
    font-stretch="normal"
    units-per-em="1000"
    panose-1="0 0 0 0 0 0 0 0 0 0"
    ascent="750"
    descent="-250"
    x-height="698"
    cap-height="698"
    bbox="-47.1429 -186 950 1005"
    underline-thickness="50"
    underline-position="-150"
    unicode-range="U+000D-FB02"
  />
<missing-glyph horiz-adv-x="331" 
 />
    <glyph glyph-name="uniFB01" unicode="fi" horiz-adv-x="719" 
d="M66 0q-14 0 -14 14v670q0 14 14 14h364q5 0 9.5 -4t4.5 -10v-119q0 -4 -2.5 -9t-8.5 -5h-234v-129h177q14 0 14 -14v-119q0 -5 -3.5 -9.5t-8.5 -4.5h-179v-261q0 -14 -14 -14h-119zM534 0q-14 0 -14 14v670q0 14 14 14h119q14 0 14 -14v-670q0 -14 -14 -14h-119z" />
    <glyph glyph-name="uniFB02" unicode="fl" horiz-adv-x="968" 
d="M66 0q-14 0 -14 14v670q0 14 14 14h364q5 0 9.5 -4t4.5 -10v-119q0 -4 -2.5 -9t-8.5 -5h-234v-129h177q14 0 14 -14v-119q0 -5 -3.5 -9.5t-8.5 -4.5h-179v-261q0 -14 -14 -14h-119zM535 0q-6 0 -10.5 4t-4.5 10v673q0 5 5 8t10 3h118q5 0 9.5 -3t4.5 -8v-540h268
q6 0 10.5 -4.5t4.5 -9.5v-119q0 -6 -4.5 -10t-10.5 -4h-400z" />
    <glyph glyph-name=".notdef" horiz-adv-x="331" 
 />
    <glyph glyph-name="uni0000" horiz-adv-x="0" 
 />
    <glyph glyph-name="uni0000" horiz-adv-x="0" 
 />
    <glyph glyph-name="uni000D" unicode="&#xd;" horiz-adv-x="331" 
 />
    <glyph glyph-name="uni0020" unicode=" " horiz-adv-x="331" 
 />
    <glyph glyph-name="uni0021" unicode="!" horiz-adv-x="239" 
d="M60 245q-12 0 -14 12v429q0 14 14 14h118q6 0 10.5 -4t4.5 -10v-429q0 -5 -5 -8.5t-10 -3.5h-118zM60 0q-5 0 -9.5 3.5t-4.5 8.5v126q0 14 14 14h118q6 0 10.5 -4t4.5 -10v-126q0 -5 -5 -8.5t-10 -3.5h-118z" />
    <glyph glyph-name="uni0022" unicode="&#x22;" horiz-adv-x="390" 
d="M45 487q-5 0 -9.5 3.5t-4.5 8.5v185q0 14 14 14h118q14 0 14 -14v-185q0 -5 -4.5 -8.5t-9.5 -3.5h-118zM227 487q-5 0 -9.5 3.5t-4.5 8.5v185q0 14 14 14h118q14 0 14 -14v-185q0 -5 -4.5 -8.5t-9.5 -3.5h-118z" />
    <glyph glyph-name="uni0023" unicode="#" horiz-adv-x="727" 
d="M536 145l-34 -131q-3 -14 -15 -14h-118q-6 0 -11 4t-3 10l34 131h-147l-34 -131q-3 -14 -14 -14h-119q-6 0 -11 4t-3 10l34 131h-50q-6 0 -10 4.5t-4 9.5v119q0 14 14 14h88l35 133h-123q-6 0 -10 4.5t-4 9.5v119q0 14 14 14h161l28 108q4 14 14 14h119q6 0 11 -4t3 -10
l-28 -108h146l29 108q4 14 14 14h118q6 0 11.5 -4t3.5 -10l-29 -108h36q14 0 14 -14v-119q0 -5 -4 -9.5t-10 -4.5h-74l-34 -133h108q14 0 14 -14v-119q0 -5 -4 -9.5t-10 -4.5h-146zM461 425h-146l-35 -133h147z" />
    <glyph glyph-name="uni0024" unicode="$" horiz-adv-x="451" 
d="M351 74q-9 -9 -21 -9h-45v-55q0 -4 -3.5 -7t-7.5 -3h-97q-4 0 -7.5 3t-3.5 7v55h-46q-12 0 -21 9l-45 45q-6 6 -7.5 12.5t-1.5 12.5v77q0 11 12 11h96q11 0 11 -11v-36h101q3 0 5 2l14 13q2 2 2 8v62q0 5 -2 7l-14 13q-2 2 -4 2h-146q-6 0 -10.5 1.5t-10.5 7.5l-45 45
q-5 5 -7 10.5t-2 10.5v193q0 5 1.5 10t7.5 11l45 46q5 5 8.5 6.5t6.5 1.5h52v55q0 10 11 10h97q11 0 11 -10v-55h45q4 0 10 -1.5t11 -6.5l46 -46q7 -8 8 -13t1 -10v-83q0 -11 -12 -11h-96q-5 0 -8.5 3t-3.5 8v41h-100q-4 0 -6 -2l-13 -14q-3 -3 -3 -8v-63q0 -3 3 -6l12 -12
h155q3 0 7.5 -1.5t9.5 -6.5l46 -46q6 -6 7.5 -9.5t1.5 -11.5v-195q0 -12 -9 -21z" />
    <glyph glyph-name="uni0025" unicode="%" horiz-adv-x="509" 
d="M79 0q-6 0 -11.5 4t-3.5 10l230 672q5 14 15 14h118q6 0 11 -4t3 -10l-230 -672q-2 -6 -5 -10t-9 -4h-118zM45 539q-5 0 -9.5 3.5t-4.5 8.5v135q0 14 14 14h119q14 0 14 -14v-135q0 -5 -4.5 -8.5t-9.5 -3.5h-119zM345 0q-5 0 -9.5 3.5t-4.5 8.5v135q0 6 4.5 10t9.5 4h119
q14 0 14 -14v-135q0 -5 -4.5 -8.5t-9.5 -3.5h-119z" />
    <glyph glyph-name="uni0026" unicode="&#x26;" horiz-adv-x="583" 
d="M339 277h-117q-3 0 -7 -4l-16 -16q-3 -3 -3 -8v-82q0 -4 3 -7l14 -13h126v130zM418 10q-10 -10 -20 -10h-268q-8 0 -18 10l-57 56q-10 10 -10 26v197q0 8 10 18l40 34l-40 35q-10 10 -10 26v205q0 15 10 25l57 56q6 6 11.5 8t14.5 2h254q6 0 13 -2t13 -8l56 -56
q8 -8 9 -15.5t1 -9.5v-101q0 -14 -14 -14h-117q-14 0 -14 14v46h-117q-3 0 -7 -4l-16 -16q-3 -3 -3 -7v-82q0 -4 3 -7l14 -15h342q14 0 14 -14v-115q0 -14 -14 -14h-71v-186q0 -16 -10 -26z" />
    <glyph glyph-name="uni0027" unicode="'" horiz-adv-x="208" 
d="M45 487q-5 0 -9.5 3.5t-4.5 8.5v185q0 14 14 14h118q14 0 14 -14v-185q0 -5 -4.5 -8.5t-9.5 -3.5h-118z" />
    <glyph glyph-name="uni0028" unicode="(" horiz-adv-x="300" 
d="M149 0q-19 0 -30 11l-57 56q-6 6 -8 13t-2 15v511q0 8 1.5 13.5t8.5 12.5l57 57q7 7 13 8.5t14 1.5h128v-147h-49q-4 0 -7 -3l-16 -16q-3 -3 -3 -5.5v-4.5v-355q0 -4 3 -7l14 -14h58v-147h-125z" />
    <glyph glyph-name="uni0029" unicode=")" horiz-adv-x="300" 
d="M181 11q-11 -11 -30 -11h-125v147h58l14 14q3 3 3 7v355v4.5t-3 5.5l-16 16q-3 3 -7 3h-49v147h128q8 0 14 -1.5t13 -8.5l57 -57q7 -7 8.5 -12.5t1.5 -13.5v-511q0 -8 -2 -15t-8 -13z" />
    <glyph glyph-name="uni002A" unicode="*" horiz-adv-x="438" 
d="M263 415l6 -109q0 -8 -9 -8h-79q-3 0 -6 2.5t-3 5.5l6 109l-86 -67q-1 -1 -4 -1q-5 0 -8 4l-45 64q-6 8 1 12l110 71l-109 70q-8 6 -2 13l45 64q3 5 8 5q3 0 5 -2l85 -67l-6 108q0 9 9 9h79q9 0 9 -9l-6 -108l85 67q4 2 6 2q4 0 7 -5l46 -64q6 -8 -3 -13l-109 -70
l111 -71q3 -2 3 -5.5t-2 -6.5l-46 -64q-1 -4 -8 -4q-3 0 -4 1z" />
    <glyph glyph-name="uni002B" unicode="+" horiz-adv-x="514" 
d="M331 242v-140q0 -5 -4.5 -9t-10.5 -4h-118q-12 0 -14 13v140h-139q-6 0 -10 4.5t-4 9.5v119q0 14 14 14h139v139q0 5 4 9.5t10 4.5h118q6 0 10.5 -4.5t4.5 -9.5v-139h140q5 0 8.5 -4.5t3.5 -9.5v-119q0 -5 -3.5 -9.5t-8.5 -4.5h-140z" />
    <glyph glyph-name="uni002C" unicode="," horiz-adv-x="239" 
d="M65 -99q-6 -2 -8 -2q-11 0 -11 10v240q0 6 4.5 10t10.5 4h118q14 0 14 -14v-186q-1 -10 -13 -15z" />
    <glyph glyph-name="uni002D" unicode="-" horiz-adv-x="414" 
d="M45 197q-6 0 -10 4.5t-4 9.5v119q0 14 14 14h326q5 0 8.5 -4.5t3.5 -9.5v-119q0 -5 -3.5 -9.5t-8.5 -4.5h-326z" />
    <glyph glyph-name="uni002E" unicode="." horiz-adv-x="238" 
d="M60 2q-5 0 -9.5 3.5t-4.5 8.5v135q0 14 14 14h118q14 0 14 -14v-135q0 -5 -4.5 -8.5t-9.5 -3.5h-118z" />
    <glyph glyph-name="uni002F" unicode="/" horiz-adv-x="399" 
d="M30 0q-6 0 -11 4t-3 10l220 671q4 14 14 14h119q5 0 10.5 -4t3.5 -10l-220 -671q-3 -14 -14 -14h-119z" />
    <glyph glyph-name="uni0030" unicode="0" horiz-adv-x="538" 
d="M424 10q-7 -7 -12.5 -8.5t-13.5 -1.5h-262q-3 0 -9.5 1.5t-13.5 8.5l-56 56q-11 11 -11 28v511q0 15 11 26l56 56q11 11 26 11h259q6 0 11.5 -1.5t14.5 -9.5l56 -56q11 -11 11 -26v-513q0 -14 -11 -25zM341 161q3 3 3 8v355q0 4 -3 7l-17 17q-4 3 -7 3h-97q-5 0 -7 -3
l-16 -17q-2 -3 -3 -4t-1 -5v-351q0 -5 4 -10l13 -14h117z" />
    <glyph glyph-name="uni0031" unicode="1" horiz-adv-x="277" 
d="M92 0q-14 0 -14 14v537h-56q-5 0 -8.5 5t0.5 14l47 115q6 13 14 13h135q5 0 10 -4.5t5 -9.5v-670q0 -6 -4.5 -10t-10.5 -4h-118z" />
    <glyph glyph-name="uni0032" unicode="2" horiz-adv-x="542" 
d="M65 0q-14 0 -14 14v296q0 4 1 9q2 9 10 17l56 56q6 6 12.5 8t14.5 2h186l14 14q3 4 3 8v100q0 5 -3 8l-16 16q-4 4 -7 4h-124v-51q0 -14 -14 -14h-119q-14 0 -14 14v105q0 15 11 26l56 56q10 10 26 10h259q16 0 26 -10l56 -56q8 -8 10 -17v-9v-258q0 -6 -0.5 -11.5
t-9.5 -14.5l-57 -56q-7 -7 -12 -8.5t-13 -1.5h-180q-2 0 -5 -3l-17 -17q-3 -3 -3 -7v-82h283q6 0 10 -4.5t4 -10.5v-118q0 -14 -14 -14h-416z" />
    <glyph glyph-name="uni0033" unicode="3" horiz-adv-x="517" 
d="M405 10q-7 -7 -12 -8.5t-12 -1.5h-256q-8 0 -13 2.5t-10 7.5l-56 56q-8 8 -9.5 14t-1.5 12v105q0 6 4.5 10t9.5 4h119q14 0 14 -14v-50h126l14 13q3 2 3 7v81q0 2 -0.5 4.5t-3.5 4.5l-16 15q-4 4 -7 4h-104v146h114l14 14q3 3 3 7v81q0 5 -3 8l-17 16q-4 4 -7 4h-116v-51
q0 -14 -14 -14h-119q-5 0 -9.5 4t-4.5 10v105q0 3 1 10t10 16l56 56q10 10 26 10h251q6 0 12.5 -1.5t13.5 -8.5l56 -56q8 -9 9.5 -14.5t1.5 -11.5v-199q0 -6 -1.5 -12t-9.5 -14l-39 -40l39 -40q5 -5 8 -9t3 -9v-191q0 -5 -1.5 -11.5t-9.5 -14.5z" />
    <glyph glyph-name="uni0034" unicode="4" horiz-adv-x="551" 
d="M328 0q-14 0 -14 14v164h-175q-7 0 -13 2t-13 9l-56 56q-7 7 -9 12.5t-2 13.5v413q0 5 4.5 9.5t10.5 4.5h118q6 0 10 -4.5t4 -9.5v-338q0 -2 3 -7l14 -14h104v359q0 14 14 14h119q5 0 9.5 -4t4.5 -10v-359h52q5 0 9.5 -4t4.5 -10v-119q0 -5 -4.5 -9.5t-9.5 -4.5h-52v-164
q0 -6 -4.5 -10t-9.5 -4h-119z" />
    <glyph glyph-name="uni0035" unicode="5" horiz-adv-x="542" 
d="M428 10q-10 -10 -26 -10h-257q-6 0 -13.5 1.5t-14.5 8.5l-56 56q-7 7 -8.5 12.5t-1.5 12.5v106q0 14 14 14h118q14 0 14 -14v-50h124q3 0 7 3l17 16q3 2 3 8v98q0 6 -4 10l-14 14h-187q-16 0 -26 10l-56 56q-7 7 -8.5 12.5t-1.5 13.5v295q0 6 4.5 10.5t10.5 4.5h415
q5 0 9.5 -4.5t4.5 -10.5v-118q0 -6 -4.5 -10t-9.5 -4h-284v-80q0 -4 4 -9l14 -15q3 -4 10 -4h177q15 0 26 -11l56 -56q8 -8 9.5 -13t1.5 -13v-258q0 -15 -11 -26z" />
    <glyph glyph-name="uni0036" unicode="6" horiz-adv-x="527" 
d="M417 10q-10 -10 -24 -10h-260q-7 0 -11 3t-8 7l-56 56q-11 11 -11 26v512q0 17 11 28l56 56q5 5 10.5 7.5t15.5 2.5h251q8 0 14 -2t12 -8l56 -56q8 -9 9.5 -16.5t1.5 -9.5v-105q0 -14 -14 -14h-119q-14 0 -14 14v51h-113q-6 0 -10 -4l-16 -15q-4 -3 -4 -12v-78q0 -4 3 -7
l14 -13h180q7 0 12 -1.5t14 -9.5l56 -56q8 -9 9.5 -16.5t1.5 -9.5v-239q0 -3 -1.5 -10t-9.5 -15zM334 162q3 3 3 6v82q0 4 -3 7l-19 19h-94q-3 0 -7 -4l-17 -16q-3 -3 -3 -8v-81q0 -4 3 -7l13 -12h110z" />
    <glyph glyph-name="uni0037" unicode="7" horiz-adv-x="477" 
d="M69 0q0 3 1 6t2 5l202 540h-238q-14 0 -14 14v119q0 5 4 9.5t10 4.5h401q6 0 10 -4.5t4 -9.5v-122l-203 -562h-179z" />
    <glyph glyph-name="uni0038" unicode="8" horiz-adv-x="526" 
d="M415 10q-10 -10 -20 -10h-265q-8 0 -18 10l-57 56q-6 6 -8 12.5t-2 13.5v191q0 8 10 18l40 40l-40 40q-8 8 -9 13t-1 13v200q0 9 2.5 14.5t7.5 10.5l57 56q7 7 12.5 8.5t13.5 1.5h244h8q5 0 11 -1.5t14 -8.5l56 -56q8 -8 9 -15.5t1 -9.5v-200q0 -8 -2 -14t-8 -12l-40 -40
l40 -40q10 -10 10 -18v-191q0 -16 -10 -26zM331 436q3 3 3 7v82q0 5 -3 7l-16 16q-4 4 -7 4h-90q-3 0 -7 -4l-16 -16q-3 -3 -3 -7v-82q0 -4 3 -7l14 -14h108zM331 160q3 3 3 7v81q0 5 -3 8l-16 16q-4 4 -8 4h-89q-3 0 -7 -4l-16 -16q-3 -3 -3 -8v-81q0 -4 3 -7l14 -13h108z
" />
    <glyph glyph-name="uni0039" unicode="9" horiz-adv-x="526" 
d="M412 10q-10 -10 -26 -10h-251q-12 0 -16.5 2.5t-9.5 7.5l-56 56q-7 7 -8.5 13t-1.5 13v105q0 14 14 14h118q6 0 10.5 -4t4.5 -10v-50h114q6 0 9 3l16 16q3 3 3 8v78q0 7 -3 10l-14 13h-180q-8 0 -14.5 3t-11.5 8l-56 56q-7 7 -8.5 12.5t-1.5 13.5v239q0 15 10 25l56 56
q10 10 26 10h259q8 0 18 -10l57 -56q10 -10 10 -26v-514q0 -17 -10 -26zM329 442q3 3 3 8v79q0 6 -3 9l-13 12h-109l-14 -14q-4 -3 -4 -8v-80q0 -3 4 -7l15 -16q2 -2 4 -2l94 -1q3 0 4 1l3 3z" />
    <glyph glyph-name="uni003A" unicode=":" horiz-adv-x="239" 
d="M61 255q-5 0 -10 3.5t-5 8.5v135q0 5 4.5 9.5t10.5 4.5h118q6 0 10 -4.5t4 -9.5v-135q0 -5 -4.5 -8.5t-9.5 -3.5h-118zM61 1q-12 0 -15 12v135q0 6 4.5 10t10.5 4h118q14 0 14 -14v-135q0 -5 -4.5 -8.5t-9.5 -3.5h-118z" />
    <glyph glyph-name="uni003B" unicode=";" horiz-adv-x="239" 
d="M65 -93q-6 -2 -8 -2q-11 0 -11 10v240q0 6 4.5 10t10.5 4h118q14 0 14 -14v-186q0 -9 -13 -15zM60 262q-5 0 -9.5 3.5t-4.5 8.5v135q0 5 4.5 9.5t9.5 4.5h119q6 0 10 -4.5t4 -9.5v-135q0 -5 -4.5 -8.5t-9.5 -3.5h-119z" />
    <glyph glyph-name="uni003C" unicode="&#x3c;" horiz-adv-x="458" 
d="M48 231q-8 4 -10 8t-2 9v132q0 2 2 7.5t10 9.5l355 174q6 2 7 2q6 0 9 -4.5t3 -9.5v-129q0 -6 -4.5 -11t-9.5 -7l-194 -98l194 -98q5 -2 9.5 -7t4.5 -11v-129q0 -5 -3 -9.5t-9 -4.5q-1 0 -7 2z" />
    <glyph glyph-name="uni003D" unicode="=" horiz-adv-x="534" 
d="M55 386q-6 0 -10 4.5t-4 10.5v118q0 14 14 14h424q14 0 14 -14v-118q0 -6 -4 -10.5t-10 -4.5h-424zM55 172q-6 0 -10 4.5t-4 10.5v118q0 14 14 14h424q14 0 14 -14v-118q0 -6 -4 -10.5t-10 -4.5h-424z" />
    <glyph glyph-name="uni003E" unicode="&#x3e;" horiz-adv-x="458" 
d="M55 57q-6 -2 -7 -2q-6 0 -9 4.5t-3 9.5v129q0 6 4.5 11t9.5 7l194 98l-194 98q-5 2 -9.5 7t-4.5 11v129q0 5 3 9.5t9 4.5q1 0 7 -2l355 -174q8 -4 10 -9.5t2 -7.5v-132q0 -5 -2 -9t-10 -8z" />
    <glyph glyph-name="uni003F" unicode="?" horiz-adv-x="512" 
d="M319 241v-38q0 -6 -4.5 -10t-9.5 -4h-119q-14 0 -14 14v170q0 6 4 10.5t10 4.5h143v142q0 4 -3 7l-14 14h-116l-14 -14q-3 -2 -3 -7v-36q0 -6 -4.5 -10.5t-10.5 -4.5h-118q-6 0 -10 4.5t-4 10.5v111q0 16 10 26l56 56q8 8 18 10q4 1 8 1h255q8 0 16 -2.5t14 -8.5l56 -56
q4 -4 7.5 -10t3.5 -12v-354q0 -6 -4.5 -10t-10.5 -4h-142zM186 0q-5 0 -9.5 3.5t-4.5 8.5v125q0 6 4 10.5t10 4.5h119q6 0 10 -4.5t4 -10.5v-125q0 -5 -4.5 -8.5t-9.5 -3.5h-119z" />
    <glyph glyph-name="uni0040" unicode="@" horiz-adv-x="581" 
d="M536 217q0 -7 -4 -11l-25 -25q-4 -4 -6 -4q-2 -1 -6 -1h-233q-4 0 -6 1q-1 0 -5 4l-25 25q-5 5 -5 11v264q0 3 1 6q2 4 4 5l25 25q4 4 6 4q2 1 5 1h155l1 46h-212q-3 0 -8 -3l-20 -19q-4 -4 -4 -10v-382q0 -4 4 -8l16 -16l331 -1q12 0 12 -11v-106q0 -5 -3.5 -8.5
t-8.5 -3.5h-418q-10 0 -18 8l-39 38l-6 9q0 2 -0.5 4.5t-0.5 5.5v567q0 2 0.5 4t0.5 4q2 5 6 9l39 39q8 8 17 8h366q8 0 18 -8l38 -39q3 -3 6 -9q2 -8 2 -9v-414zM418 395h-68q-2 0 -5 -3l-11 -11q-2 -1 -2 -6v-57q0 -3 2 -5l10 -9h74v91z" />
    <glyph glyph-name="uni0041" unicode="A" horiz-adv-x="557" 
d="M421 0q-6 0 -11 4.5t-7 9.5l-24 81h-201l-24 -81q-2 -5 -7 -9.5t-11 -4.5h-114q-10 0 -13.5 4.5t-1.5 9.5l198 670q5 14 14 14h119q10 0 14 -15l198 -669q2 -5 -2.5 -9.5t-12.5 -4.5h-114zM279 435l-61 -205h121z" />
    <glyph glyph-name="uni0042" unicode="B" horiz-adv-x="522" 
d="M410 11q-5 -5 -10.5 -8t-15.5 -3h-318q-14 0 -14 14v670q0 14 14 14h318q7 0 13 -2t13 -9l56 -56q8 -9 9.5 -14.5t1.5 -11.5v-198q0 -15 -11 -26l-39 -40l39 -39q11 -11 11 -20v-189q0 -15 -11 -26zM327 437q3 3 3 7v80q0 4 -3 7l-17 17q-3 3 -6 3h-105v-128h114z
M327 161q3 5 3 7v81q0 4 -3 7l-17 17q-3 3 -6 3h-105v-129h114z" />
    <glyph glyph-name="uni0043" unicode="C" horiz-adv-x="526" 
d="M424 11q-7 -7 -14 -9t-13 -2h-258q-5 0 -12 2t-14 9l-56 56q-8 8 -9 14.5t-1 11.5v512q0 2 1 10t9 16l56 56q8 8 14 9.5t12 1.5h259q7 0 13 -2t13 -9l56 -56q7 -7 9 -12.5t2 -13.5v-107q0 -5 -4.5 -9.5t-9.5 -4.5h-119q-6 0 -10 4.5t-4 9.5v26q0 4 -3 7l-17 17q-3 3 -7 3
h-97q-4 0 -7 -3l-16 -17q-4 -5 -4 -9v-353q0 -5 4 -8l14 -14h116l14 14q3 3 3 7v30q0 5 4 9.5t10 4.5h119q5 0 9.5 -4.5t4.5 -9.5v-113q0 -4 -1.5 -7t-9.5 -11z" />
    <glyph glyph-name="uni0044" unicode="D" horiz-adv-x="524" 
d="M410 11q-11 -11 -26 -11h-318q-14 0 -14 14v670q0 14 14 14h318q6 0 12.5 -2t13.5 -9l56 -56q7 -7 9 -14t2 -12v-512q0 -5 -1.5 -11.5t-9.5 -14.5zM327 161q3 5 3 7v356q0 4 -3 7l-17 17q-2 3 -7 3h-104v-404h114z" />
    <glyph glyph-name="uni0045" unicode="E" horiz-adv-x="468" 
d="M66 0q-14 0 -14 14v670q0 14 14 14h364q5 0 9.5 -4t4.5 -10v-119q0 -6 -4.5 -10t-9.5 -4h-231v-128h177q14 0 14 -14v-119q0 -14 -14 -14h-177v-129h231q5 0 9.5 -4t4.5 -10v-119q0 -6 -4.5 -10t-9.5 -4h-364z" />
    <glyph glyph-name="uni0046" unicode="F" horiz-adv-x="468" 
d="M66 0q-14 0 -14 14v670q0 14 14 14h364q5 0 9.5 -4t4.5 -10v-119q0 -4 -2.5 -9t-8.5 -5h-234v-129h177q14 0 14 -14v-119q0 -5 -3.5 -9.5t-8.5 -4.5h-179v-261q0 -14 -14 -14h-119z" />
    <glyph glyph-name="uni0047" unicode="G" horiz-adv-x="539" 
d="M425 11q-9 -9 -17 -10t-9 -1h-259q-15 0 -26 11l-56 56q-9 9 -10 14t-1 12v512q0 9 2.5 14.5t8.5 11.5l56 56q5 5 10 8t16 3h259q6 0 11.5 -1.5t14.5 -9.5l56 -56q8 -9 9.5 -14.5t1.5 -11.5v-107q0 -5 -4.5 -9.5t-10.5 -4.5h-118q-6 0 -10 4.5t-4 9.5v26q0 4 -3 7l-17 17
q-2 3 -7 3h-97q-4 0 -7 -3l-16 -17q-4 -5 -4 -9v-353q0 -4 4 -8l13 -14h117l14 14q3 5 3 7v88h-66q-6 0 -10 4.5t-4 9.5v119q0 14 14 14h198q6 0 10.5 -4t4.5 -10v-302q0 -6 -3 -10.5t-8 -9.5z" />
    <glyph glyph-name="uni0048" unicode="H" horiz-adv-x="548" 
d="M363 0q-5 0 -9.5 4t-4.5 10v262h-150v-262q0 -6 -4.5 -10t-9.5 -4h-119q-14 0 -14 14v670q0 14 14 14h119q5 0 9.5 -4t4.5 -10v-261h150v261q0 6 4.5 10t9.5 4h119q14 0 14 -14v-670q0 -14 -14 -14h-119z" />
    <glyph glyph-name="uni0049" unicode="I" horiz-adv-x="251" 
d="M66 0q-14 0 -14 14v670q0 14 14 14h119q14 0 14 -14v-670q0 -14 -14 -14h-119z" />
    <glyph glyph-name="uni004A" unicode="J" horiz-adv-x="527" 
d="M411 10q-7 -7 -13.5 -8.5t-10.5 -1.5h-263q-4 0 -10 1.5t-13 8.5l-57 57q-10 10 -10 18v157q0 14 14 14h119q5 0 9.5 -4t4.5 -10v-74q0 -5 3 -7l14 -14h116l14 14q3 3 3 7v518q0 5 4.5 8.5t9.5 3.5h119q5 0 9.5 -3.5t4.5 -8.5v-593q0 -9 -3 -15t-8 -11z" />
    <glyph glyph-name="uni004B" unicode="K" horiz-adv-x="542" 
d="M392 0q-6 0 -11 4.5t-7 9.5l-123 277l-52 -72v-205q0 -14 -14 -14h-119q-14 0 -14 14v670q0 5 4 9.5t10 4.5h119q6 0 10 -4.5t4 -9.5v-217l148 217q4 5 8 9.5t10 4.5h151q8 0 14 -6t1 -13l-185 -256l192 -405q4 -8 -1.5 -13t-11.5 -5h-133z" />
    <glyph glyph-name="uni004C" unicode="L" horiz-adv-x="500" 
d="M67 0q-6 0 -10.5 4t-4.5 10v673q0 5 5 8t10 3h118q5 0 9.5 -3t4.5 -8v-540h268q6 0 10.5 -4.5t4.5 -9.5v-119q0 -6 -4.5 -10t-10.5 -4h-400z" />
    <glyph glyph-name="uni004D" unicode="M" horiz-adv-x="645" 
d="M477 0q-6 0 -10.5 4t-4.5 10l-4 254l-77 -254q-2 -5 -7 -9.5t-11 -4.5h-80q-6 0 -11.5 4t-7.5 10l-76 254l-5 -254q0 -14 -14 -14h-119q-5 0 -9.5 4t-4.5 10l27 670q0 5 3 9.5t8 4.5h127q12 0 15 -13l90 -387l11 -84l8 84l105 387q3 13 15 13h127q6 0 8.5 -4.5t2.5 -9.5
l26 -670q0 -14 -14 -14h-118z" />
    <glyph glyph-name="uni004E" unicode="N" horiz-adv-x="563" 
d="M339 0q-6 0 -11 4.5t-7 9.5l-122 335v-335q0 -5 -4.5 -9.5t-9.5 -4.5h-119q-6 0 -10 4.5t-4 9.5v670q0 14 14 14h146q10 0 15 -14l132 -384l5 -11v395q0 6 4.5 10t9.5 4h119q14 0 14 -14v-670q0 -5 -4 -9.5t-10 -4.5h-158z" />
    <glyph glyph-name="uni004F" unicode="O" 
d="M425 11q-11 -11 -23 -11h-261q-8 0 -13.5 2t-12.5 9l-56 56q-11 11 -11 26v512q0 6 3 13.5t8 12.5l56 56q7 7 13.5 9t12.5 2h258q10 0 14 -1.5t12 -9.5l57 -56q4 -4 7 -10t3 -16v-512q0 -5 -2 -12.5t-8 -13.5zM342 161q3 3 3 7v356q0 5 -3 8l-16 16q-3 3 -7 3h-97
q-2 0 -7 -3l-17 -16q-3 -3 -3 -8v-356q0 -2 3 -7l14 -14h116z" />
    <glyph glyph-name="uni0050" unicode="P" horiz-adv-x="516" 
d="M66 0q-6 0 -10 4.5t-4 9.5v670q0 14 14 14h318q8 0 14 -2t12 -8l56 -57q8 -9 9.5 -15t1.5 -11v-255q0 -5 -1 -11.5t-10 -15.5l-56 -57q-7 -7 -13.5 -8.5t-10.5 -1.5h-187v-242q0 -5 -4.5 -9.5t-10.5 -4.5h-118zM327 422q3 3 3 6v96q0 4 -3 7l-17 17q-3 3 -8 3h-103v-148
h103q5 0 8 3z" />
    <glyph glyph-name="uni0051" unicode="Q" horiz-adv-x="532" 
d="M352 -65q-6 0 -11 4.5t-7 9.5l-22 51h-173q-9 0 -14.5 2.5t-11.5 8.5l-56 56q-11 11 -11 26v512q0 8 2 13.5t9 12.5l56 56q8 8 13 9.5t13 1.5h258q8 0 13.5 -2t12.5 -9l57 -56q8 -8 9 -16t1 -10v-512q0 -5 -2 -12.5t-8 -13.5l-21 -21l40 -95q3 -6 -1.5 -11t-11.5 -5h-134
zM340 161q3 3 3 8v355q0 5 -3 8l-16 16q-3 3 -7 3h-97q-4 0 -7 -3l-17 -16q-3 -3 -3 -7v-356q0 -4 3 -8l14 -14h116z" />
    <glyph glyph-name="uni0052" unicode="R" horiz-adv-x="522" 
d="M361 0q-6 0 -11 4.5t-7 9.5l-98 244h-46v-244q0 -5 -4 -9.5t-10 -4.5h-119q-5 0 -9.5 4.5t-4.5 9.5v670q0 6 4.5 10t9.5 4h318q16 0 26 -10l57 -57q9 -9 9.5 -15.5t0.5 -12.5v-252q0 -10 -2 -15t-8 -11l-60 -59l102 -252q2 -5 0 -9.5t-10 -4.5h-138zM327 423q3 3 3 8v91
q0 7 -3 10l-15 15q-3 3 -6 3.5t-7 0.5h-100v-147h105q4 0 7 3z" />
    <glyph glyph-name="uni0053" unicode="S" horiz-adv-x="534" 
d="M422 11q-5 -5 -13 -8t-13 -3h-259q-15 0 -26 11l-56 56q-5 5 -8 13t-3 15v97q0 6 4.5 10t10.5 4h118q14 0 14 -14v-45h126q2 0 5 3l17 16q3 3 3 7v76q0 6 -5 10l-15 14q-3 3 -5 3h-180q-15 0 -26 11l-56 56q-5 5 -8 11t-3 15v236q0 15 11 26l56 56q8 8 14 9.5t12 1.5h259
q8 0 13.5 -2t12.5 -9l56 -56q11 -11 11 -27v-103q0 -6 -4.5 -10t-10.5 -4h-118q-14 0 -14 14v50h-124q-4 0 -7 -3l-16 -16q-4 -4 -4 -8v-80q0 -3 4 -7l14 -14h187q11 0 15 -2t11 -9l56 -56q8 -9 9.5 -14t1.5 -12v-237q0 -5 -2 -12t-9 -14z" />
    <glyph glyph-name="uni0054" unicode="T" horiz-adv-x="466" 
d="M174 0q-5 0 -9.5 3.5t-4.5 8.5v539h-127q-6 0 -10.5 4t-4.5 10v118q0 6 4.5 10.5t10.5 4.5h400q6 0 10.5 -4.5t4.5 -10.5v-118q0 -6 -4.5 -10t-10.5 -4h-127v-539q0 -5 -4.5 -8.5t-9.5 -3.5h-118z" />
    <glyph glyph-name="uni0055" unicode="U" horiz-adv-x="542" 
d="M427 11q-6 -6 -11.5 -8.5t-14.5 -2.5h-259q-8 0 -14 2t-12 8l-56 57q-8 8 -9.5 14t-1.5 12v591q0 6 4.5 10t9.5 4h119q14 0 14 -14v-516q0 -3 0.5 -4t2.5 -3l14 -14h116l14 14q4 4 4 8v515q0 14 14 14h118q14 0 14 -14v-591q0 -16 -10 -26z" />
    <glyph glyph-name="uni0056" unicode="V" horiz-adv-x="533" 
d="M199 0q-6 0 -11 4.5t-7 10.5l-174 665q-2 6 2 12t10 6h125q12 0 15 -14l90 -384l8 -60l10 60l106 384q3 14 15 14h125q6 0 10 -6.5t2 -11.5l-174 -665q-2 -6 -7.5 -10.5t-11.5 -4.5h-133z" />
    <glyph glyph-name="uni0057" unicode="W" horiz-adv-x="631" 
d="M410 0q-10 0 -14 14l-70 252l-7 50l-6 -50l-78 -252q-5 -14 -15 -14h-125q-5 0 -9 5t-4 10l-53 669q-1 5 3.5 9.5t10.5 4.5h118q6 0 10.5 -4.5t4.5 -9.5l24 -341l57 158q2 5 7 9.5t11 4.5h80q14 0 19 -14l56 -158l25 341q0 5 4 9.5t10 4.5h119q5 0 10 -4.5t4 -9.5
l-54 -670q0 -5 -3.5 -9.5t-11.5 -4.5h-123z" />
    <glyph glyph-name="uni0058" unicode="X" horiz-adv-x="538" 
d="M385 0q-6 0 -11 4.5t-8 10.5l-98 194l-97 -194q-3 -6 -8 -10.5t-11 -4.5h-128q-6 0 -11.5 5t-0.5 14l173 355l-153 306q-4 8 0.5 13t11.5 5h125q6 0 9 -4t6 -10l84 -150l85 150q3 6 6 10t9 4h125q5 0 11 -5t1 -13l-153 -306l173 -354q4 -8 0 -14t-12 -6h-128z" />
    <glyph glyph-name="uni0059" unicode="Y" horiz-adv-x="528" 
d="M204 0q-5 0 -9.5 4t-4.5 10v307l-186 358q-4 7 0 13t13 6h129q6 0 11 -4.5t7 -9.5l100 -198l100 198q2 5 7 9.5t11 4.5h129q9 0 13 -6t0 -13l-186 -358v-307q0 -6 -4.5 -10t-9.5 -4h-120z" />
    <glyph glyph-name="uni005A" unicode="Z" horiz-adv-x="491" 
d="M45 0q-5 0 -9.5 4.5t-4.5 10.5v119q0 6 3 10l240 407h-229q-5 0 -9.5 4t-4.5 10v119q0 6 4.5 10t9.5 4h401q14 0 14 -14v-119q0 -4 -4 -10l-242 -408h232q14 0 14 -14v-118q0 -6 -4 -10.5t-10 -4.5h-401z" />
    <glyph glyph-name="uni005C" unicode="\" horiz-adv-x="403" 
d="M252 0q-10 0 -14 14l-221 672q-2 5 2.5 9.5t11.5 4.5h119q11 0 14 -14l221 -672q2 -6 -3.5 -10t-10.5 -4h-119z" />
    <glyph glyph-name="uni005E" unicode="^" horiz-adv-x="581" 
d="M406 312q-6 0 -11.5 4.5t-7.5 9.5l-97 195l-97 -195q-2 -5 -7.5 -9.5t-11.5 -4.5h-128q-9 0 -13 5t0 13l174 356q3 5 6 8.5t11 3.5h132q8 0 11 -3.5t6 -8.5l174 -356q4 -8 0 -13t-13 -5h-128z" />
    <glyph glyph-name="uni0060" unicode="`" horiz-adv-x="279" 
d="M300 776q-3 -5 -10 -5q-3 0 -8 3l-155 122q-3 2 -5 9q0 5 4 9l64 79q4 4 11 4q5 0 7 -2l155 -122q5 -5 5 -9t-3 -9z" />
    <glyph glyph-name="uni0061" unicode="a" horiz-adv-x="557" 
d="M421 0q-6 0 -11 4.5t-7 9.5l-24 81h-201l-24 -81q-2 -5 -7 -9.5t-11 -4.5h-114q-10 0 -13.5 4.5t-1.5 9.5l198 670q5 14 14 14h119q10 0 14 -15l198 -669q2 -5 -2.5 -9.5t-12.5 -4.5h-114zM279 435l-61 -205h121z" />
    <glyph glyph-name="uni0062" unicode="b" horiz-adv-x="522" 
d="M410 11q-5 -5 -10.5 -8t-15.5 -3h-318q-14 0 -14 14v670q0 14 14 14h318q7 0 13 -2t13 -9l56 -56q8 -9 9.5 -14.5t1.5 -11.5v-198q0 -15 -11 -26l-39 -40l39 -39q11 -11 11 -20v-189q0 -15 -11 -26zM327 437q3 3 3 7v80q0 4 -3 7l-17 17q-3 3 -6 3h-105v-128h114z
M327 161q3 5 3 7v81q0 4 -3 7l-17 17q-3 3 -6 3h-105v-129h114z" />
    <glyph glyph-name="uni0063" unicode="c" horiz-adv-x="526" 
d="M424 11q-7 -7 -14 -9t-13 -2h-258q-5 0 -12 2t-14 9l-56 56q-8 8 -9 14.5t-1 11.5v512q0 2 1 10t9 16l56 56q8 8 14 9.5t12 1.5h259q7 0 13 -2t13 -9l56 -56q7 -7 9 -12.5t2 -13.5v-107q0 -5 -4.5 -9.5t-9.5 -4.5h-119q-6 0 -10 4.5t-4 9.5v26q0 4 -3 7l-17 17q-3 3 -7 3
h-97q-4 0 -7 -3l-16 -17q-4 -5 -4 -9v-353q0 -5 4 -8l14 -14h116l14 14q3 3 3 7v30q0 5 4 9.5t10 4.5h119q5 0 9.5 -4.5t4.5 -9.5v-113q0 -4 -1.5 -7t-9.5 -11z" />
    <glyph glyph-name="uni0064" unicode="d" horiz-adv-x="524" 
d="M410 11q-11 -11 -26 -11h-318q-14 0 -14 14v670q0 14 14 14h318q6 0 12.5 -2t13.5 -9l56 -56q7 -7 9 -14t2 -12v-512q0 -5 -1.5 -11.5t-9.5 -14.5zM327 161q3 5 3 7v356q0 4 -3 7l-17 17q-2 3 -7 3h-104v-404h114z" />
    <glyph glyph-name="uni0065" unicode="e" horiz-adv-x="468" 
d="M66 0q-14 0 -14 14v670q0 14 14 14h364q5 0 9.5 -4t4.5 -10v-119q0 -6 -4.5 -10t-9.5 -4h-231v-128h177q14 0 14 -14v-119q0 -14 -14 -14h-177v-129h231q5 0 9.5 -4t4.5 -10v-119q0 -6 -4.5 -10t-9.5 -4h-364z" />
    <glyph glyph-name="uni0066" unicode="f" horiz-adv-x="468" 
d="M66 0q-14 0 -14 14v670q0 14 14 14h364q5 0 9.5 -4t4.5 -10v-119q0 -4 -2.5 -9t-8.5 -5h-234v-129h177q14 0 14 -14v-119q0 -5 -3.5 -9.5t-8.5 -4.5h-179v-261q0 -14 -14 -14h-119z" />
    <glyph glyph-name="uni0067" unicode="g" horiz-adv-x="539" 
d="M425 11q-9 -9 -17 -10t-9 -1h-259q-15 0 -26 11l-56 56q-9 9 -10 14t-1 12v512q0 9 2.5 14.5t8.5 11.5l56 56q5 5 10 8t16 3h259q6 0 11.5 -1.5t14.5 -9.5l56 -56q8 -9 9.5 -14.5t1.5 -11.5v-107q0 -5 -4.5 -9.5t-10.5 -4.5h-118q-6 0 -10 4.5t-4 9.5v26q0 4 -3 7l-17 17
q-2 3 -7 3h-97q-4 0 -7 -3l-16 -17q-4 -5 -4 -9v-353q0 -4 4 -8l13 -14h117l14 14q3 5 3 7v88h-66q-6 0 -10 4.5t-4 9.5v119q0 14 14 14h198q6 0 10.5 -4t4.5 -10v-302q0 -6 -3 -10.5t-8 -9.5z" />
    <glyph glyph-name="uni0068" unicode="h" horiz-adv-x="548" 
d="M363 0q-5 0 -9.5 4t-4.5 10v262h-150v-262q0 -6 -4.5 -10t-9.5 -4h-119q-14 0 -14 14v670q0 14 14 14h119q5 0 9.5 -4t4.5 -10v-261h150v261q0 6 4.5 10t9.5 4h119q14 0 14 -14v-670q0 -14 -14 -14h-119z" />
    <glyph glyph-name="uni0069" unicode="i" horiz-adv-x="251" 
d="M66 0q-14 0 -14 14v670q0 14 14 14h119q14 0 14 -14v-670q0 -14 -14 -14h-119z" />
    <glyph glyph-name="uni006A" unicode="j" horiz-adv-x="527" 
d="M411 10q-7 -7 -13.5 -8.5t-10.5 -1.5h-263q-4 0 -10 1.5t-13 8.5l-57 57q-10 10 -10 18v157q0 14 14 14h119q5 0 9.5 -4t4.5 -10v-74q0 -5 3 -7l14 -14h116l14 14q3 3 3 7v518q0 5 4.5 8.5t9.5 3.5h119q5 0 9.5 -3.5t4.5 -8.5v-593q0 -9 -3 -15t-8 -11z" />
    <glyph glyph-name="uni006B" unicode="k" horiz-adv-x="542" 
d="M392 0q-6 0 -11 4.5t-7 9.5l-123 277l-52 -72v-205q0 -14 -14 -14h-119q-14 0 -14 14v670q0 5 4 9.5t10 4.5h119q6 0 10 -4.5t4 -9.5v-217l148 217q4 5 8 9.5t10 4.5h151q8 0 14 -6t1 -13l-185 -256l192 -405q4 -8 -1.5 -13t-11.5 -5h-133z" />
    <glyph glyph-name="uni006C" unicode="l" horiz-adv-x="500" 
d="M67 0q-6 0 -10.5 4t-4.5 10v673q0 5 5 8t10 3h118q5 0 9.5 -3t4.5 -8v-540h268q6 0 10.5 -4.5t4.5 -9.5v-119q0 -6 -4.5 -10t-10.5 -4h-400z" />
    <glyph glyph-name="uni006D" unicode="m" horiz-adv-x="645" 
d="M477 0q-6 0 -10.5 4t-4.5 10l-4 254l-77 -254q-2 -5 -7 -9.5t-11 -4.5h-80q-6 0 -11.5 4t-7.5 10l-76 254l-5 -254q0 -14 -14 -14h-119q-5 0 -9.5 4t-4.5 10l27 670q0 5 3 9.5t8 4.5h127q12 0 15 -13l90 -387l11 -84l8 84l105 387q3 13 15 13h127q6 0 8.5 -4.5t2.5 -9.5
l26 -670q0 -14 -14 -14h-118z" />
    <glyph glyph-name="uni006E" unicode="n" horiz-adv-x="563" 
d="M339 0q-6 0 -11 4.5t-7 9.5l-122 335v-335q0 -5 -4.5 -9.5t-9.5 -4.5h-119q-6 0 -10 4.5t-4 9.5v670q0 14 14 14h146q10 0 15 -14l132 -384l5 -11v395q0 6 4.5 10t9.5 4h119q14 0 14 -14v-670q0 -5 -4 -9.5t-10 -4.5h-158z" />
    <glyph glyph-name="uni006F" unicode="o" 
d="M425 11q-11 -11 -23 -11h-261q-8 0 -13.5 2t-12.5 9l-56 56q-11 11 -11 26v512q0 6 3 13.5t8 12.5l56 56q7 7 13.5 9t12.5 2h258q10 0 14 -1.5t12 -9.5l57 -56q4 -4 7 -10t3 -16v-512q0 -5 -2 -12.5t-8 -13.5zM342 161q3 3 3 7v356q0 5 -3 8l-16 16q-3 3 -7 3h-97
q-2 0 -7 -3l-17 -16q-3 -3 -3 -8v-356q0 -2 3 -7l14 -14h116z" />
    <glyph glyph-name="uni0070" unicode="p" horiz-adv-x="516" 
d="M66 0q-6 0 -10 4.5t-4 9.5v670q0 14 14 14h318q8 0 14 -2t12 -8l56 -57q8 -9 9.5 -15t1.5 -11v-255q0 -5 -1 -11.5t-10 -15.5l-56 -57q-7 -7 -13.5 -8.5t-10.5 -1.5h-187v-242q0 -5 -4.5 -9.5t-10.5 -4.5h-118zM327 422q3 3 3 6v96q0 4 -3 7l-17 17q-3 3 -8 3h-103v-148
h103q5 0 8 3z" />
    <glyph glyph-name="uni0071" unicode="q" horiz-adv-x="532" 
d="M352 -65q-6 0 -11 4.5t-7 9.5l-22 51h-173q-9 0 -14.5 2.5t-11.5 8.5l-56 56q-11 11 -11 26v512q0 8 2 13.5t9 12.5l56 56q8 8 13 9.5t13 1.5h258q8 0 13.5 -2t12.5 -9l57 -56q8 -8 9 -16t1 -10v-512q0 -5 -2 -12.5t-8 -13.5l-21 -21l40 -95q3 -6 -1.5 -11t-11.5 -5h-134
zM340 161q3 3 3 8v355q0 5 -3 8l-16 16q-3 3 -7 3h-97q-4 0 -7 -3l-17 -16q-3 -3 -3 -7v-356q0 -4 3 -8l14 -14h116z" />
    <glyph glyph-name="uni0072" unicode="r" horiz-adv-x="522" 
d="M361 0q-6 0 -11 4.5t-7 9.5l-98 244h-46v-244q0 -5 -4 -9.5t-10 -4.5h-119q-5 0 -9.5 4.5t-4.5 9.5v670q0 6 4.5 10t9.5 4h318q16 0 26 -10l57 -57q9 -9 9.5 -15.5t0.5 -12.5v-252q0 -10 -2 -15t-8 -11l-60 -59l102 -252q2 -5 0 -9.5t-10 -4.5h-138zM327 423q3 3 3 8v91
q0 7 -3 10l-15 15q-3 3 -6 3.5t-7 0.5h-100v-147h105q4 0 7 3z" />
    <glyph glyph-name="uni0073" unicode="s" horiz-adv-x="534" 
d="M422 11q-5 -5 -13 -8t-13 -3h-259q-15 0 -26 11l-56 56q-5 5 -8 13t-3 15v97q0 6 4.5 10t10.5 4h118q14 0 14 -14v-45h126q2 0 5 3l17 16q3 3 3 7v76q0 6 -5 10l-15 14q-3 3 -5 3h-180q-15 0 -26 11l-56 56q-5 5 -8 11t-3 15v236q0 15 11 26l56 56q8 8 14 9.5t12 1.5h259
q8 0 13.5 -2t12.5 -9l56 -56q11 -11 11 -27v-103q0 -6 -4.5 -10t-10.5 -4h-118q-14 0 -14 14v50h-124q-4 0 -7 -3l-16 -16q-4 -4 -4 -8v-80q0 -3 4 -7l14 -14h187q11 0 15 -2t11 -9l56 -56q8 -9 9.5 -14t1.5 -12v-237q0 -5 -2 -12t-9 -14z" />
    <glyph glyph-name="uni0074" unicode="t" horiz-adv-x="466" 
d="M174 0q-5 0 -9.5 3.5t-4.5 8.5v539h-127q-6 0 -10.5 4t-4.5 10v118q0 6 4.5 10.5t10.5 4.5h400q6 0 10.5 -4.5t4.5 -10.5v-118q0 -6 -4.5 -10t-10.5 -4h-127v-539q0 -5 -4.5 -8.5t-9.5 -3.5h-118z" />
    <glyph glyph-name="uni0075" unicode="u" horiz-adv-x="542" 
d="M427 11q-6 -6 -11.5 -8.5t-14.5 -2.5h-259q-8 0 -14 2t-12 8l-56 57q-8 8 -9.5 14t-1.5 12v591q0 6 4.5 10t9.5 4h119q14 0 14 -14v-516q0 -3 0.5 -4t2.5 -3l14 -14h116l14 14q4 4 4 8v515q0 14 14 14h118q14 0 14 -14v-591q0 -16 -10 -26z" />
    <glyph glyph-name="uni0076" unicode="v" horiz-adv-x="533" 
d="M199 0q-6 0 -11 4.5t-7 10.5l-174 665q-2 6 2 12t10 6h125q12 0 15 -14l90 -384l8 -60l10 60l106 384q3 14 15 14h125q6 0 10 -6.5t2 -11.5l-174 -665q-2 -6 -7.5 -10.5t-11.5 -4.5h-133z" />
    <glyph glyph-name="uni0077" unicode="w" horiz-adv-x="631" 
d="M410 0q-10 0 -14 14l-70 252l-7 50l-6 -50l-78 -252q-5 -14 -15 -14h-125q-5 0 -9 5t-4 10l-53 669q-1 5 3.5 9.5t10.5 4.5h118q6 0 10.5 -4.5t4.5 -9.5l24 -341l57 158q2 5 7 9.5t11 4.5h80q14 0 19 -14l56 -158l25 341q0 5 4 9.5t10 4.5h119q5 0 10 -4.5t4 -9.5
l-54 -670q0 -5 -3.5 -9.5t-11.5 -4.5h-123z" />
    <glyph glyph-name="uni0078" unicode="x" horiz-adv-x="538" 
d="M385 0q-6 0 -11 4.5t-8 10.5l-98 194l-97 -194q-3 -6 -8 -10.5t-11 -4.5h-128q-6 0 -11.5 5t-0.5 14l173 355l-153 306q-4 8 0.5 13t11.5 5h125q6 0 9 -4t6 -10l84 -150l85 150q3 6 6 10t9 4h125q5 0 11 -5t1 -13l-153 -306l173 -354q4 -8 0 -14t-12 -6h-128z" />
    <glyph glyph-name="uni0079" unicode="y" horiz-adv-x="528" 
d="M204 0q-5 0 -9.5 4t-4.5 10v307l-186 358q-4 7 0 13t13 6h129q6 0 11 -4.5t7 -9.5l100 -198l100 198q2 5 7 9.5t11 4.5h129q9 0 13 -6t0 -13l-186 -358v-307q0 -6 -4.5 -10t-9.5 -4h-120z" />
    <glyph glyph-name="uni007A" unicode="z" horiz-adv-x="491" 
d="M45 0q-5 0 -9.5 4.5t-4.5 10.5v119q0 6 3 10l240 407h-229q-5 0 -9.5 4t-4.5 10v119q0 6 4.5 10t9.5 4h401q14 0 14 -14v-119q0 -4 -4 -10l-242 -408h232q14 0 14 -14v-118q0 -6 -4 -10.5t-10 -4.5h-401z" />
    <glyph glyph-name="uni007C" unicode="|" horiz-adv-x="269" 
d="M75 -132q-14 0 -14 14v774q0 14 14 14h119q5 0 9.5 -4t4.5 -10v-774q0 -6 -4.5 -10t-9.5 -4h-119z" />
    <glyph glyph-name="uni00A0" unicode="&#xa0;" horiz-adv-x="331" 
 />
    <glyph glyph-name="uni00A1" unicode="&#xa1;" horiz-adv-x="239" 
d="M179.004 455.015q11.999 0 13.999 -11.999v-428.974q0 -13.999 -13.999 -13.999h-117.993q-5.99902 0 -10.499 4q-4.5 3.99902 -4.5 9.99902v428.974q0 5 5 8.5q4.99902 3.49902 9.99902 3.49902h117.993zM179.004 700q4.99902 0 9.49902 -3.5t4.5 -8.49902v-125.992
q0 -13.999 -13.999 -13.999h-117.993q-5.99902 0 -10.499 3.99902q-4.5 4 -4.5 10v125.992q0 4.99902 5 8.49902q4.99902 3.5 9.99902 3.5h117.993z" />
    <glyph glyph-name="uni00A3" unicode="&#xa3;" horiz-adv-x="414" 
d="M277 449q-14 0 -14 14v86q0 4 -3 7l-17 16q-4 3 -6 3h-27q-5 0 -8 -3l-17 -16q-3 -3 -3 -7v-188h96q5 0 8.5 -3.5t3.5 -8.5v-89q0 -5 -3.5 -8.5t-8.5 -3.5h-96v-129h188q12 0 12 -11v-96q0 -12 -11 -12h-336q-11 0 -11 12v96q0 11 11 11h12h-1l14 14q3 3 3 9v106h-27
q-5 0 -8.5 3.5t-3.5 8.5v89q0 5 3.5 8.5t8.5 3.5h27v242q0 16 10 26l56 55q10 10 26 10h135q8 0 14 -2t12 -8l55 -55q5 -5 9 -11q2 -6 2 -15v-140q0 -14 -14 -14h-91z" />
    <glyph glyph-name="uni00A8" unicode="&#xa8;" horiz-adv-x="385" 
d="M305 770q-15 0 -18 14v96q0 8 5 13q7 5 13 5h82q18 0 18 -18v-94q0 -8 -5.5 -12t-12.5 -4h-82zM116 774q-7 4 -7 12v94q0 7 5.5 12.5t12.5 5.5h82q7 0 12.5 -5.5t5.5 -12.5v-94q0 -8 -5.5 -12t-12.5 -4h-82q-7 0 -11 4z" />
    <glyph glyph-name="uni00AB" unicode="&#xab;" horiz-adv-x="543" 
d="M-22 273q0 10 6 17l164 207q5 6 11 6t11 -4l65 -54q6 -3 6 -12q0 -5 -4 -10l-119 -150l119 -151q4 -4 4 -10q0 -7 -6 -12l-65 -54q-3 -2 -5.5 -3t-5.5 -1q-6 0 -11 6l-164 208q-6 8 -6 17zM200 273q0 10 6 17l164 207q5 6 11 6q7 0 11 -4l65 -54q6 -3 6 -12q0 -4 -3 -10
l-120 -150l120 -151q3 -4 3 -10q0 -7 -6 -12l-65 -54q-6 -4 -11 -4q-6 0 -11 6l-164 208q-6 8 -6 17z" />
    <glyph glyph-name="uni00B4" unicode="&#xb4;" horiz-adv-x="250" 
d="M243 898l-155 -122q-3 -3 -8 -3q-7 0 -10 5l-65 79q-7 9 2 18l155 122q2 2 7 2q7 0 11 -4l65 -79q3 -4 2.5 -9.5t-4.5 -8.5z" />
    <glyph glyph-name="uni00B8" unicode="&#xb8;" horiz-adv-x="252" 
d="M395 16v-124q0 -16 -6 -30.5t-16.5 -25t-24.5 -16.5t-30 -6h-98q-16 0 -30 6t-24.5 16.5t-16.5 25t-6 30.5v49q0 7 4.5 11.5t10.5 4.5h66q16 0 16 -16v-29h58v104h97z" />
    <glyph glyph-name="uni00BB" unicode="&#xbb;" horiz-adv-x="543" 
d="M564 272q0 -9 -6 -17l-164 -207q-4 -6 -11 -6q-4 0 -10 4l-66 54q-6 5 -6 12q0 6 4 10l119 150l-119 151q-4 5 -4 10q0 9 6 12l66 54q4 4 10 4q7 0 11 -6l164 -207q6 -7 6 -18zM342 272q0 -9 -6 -17l-164 -207q-4 -6 -11 -6q-5 0 -11 4l-65 54q-6 5 -6 12q0 6 3 10
l120 150l-120 151q-3 6 -3 10q0 9 6 12l65 54q4 4 11 4t11 -6l164 -207q6 -7 6 -18z" />
    <glyph glyph-name="uni00BF" unicode="&#xbf;" horiz-adv-x="512" 
d="M189.02 458.015v37.998q0 5.99902 4.5 9.99902q4.49902 4 9.49902 4h118.993q13.999 0 13.999 -13.999v-169.99q0 -5.99902 -4 -10.499t-9.99902 -4.5h-142.991v-141.991q0 -4 2.99902 -6.99902l14 -14h115.992l13.999 14q3 1.99902 3 6.99902v35.998
q0 5.99902 4.5 10.499t10.499 4.5h117.993q5.99902 0 9.99902 -4.5t4 -10.499v-110.993q0 -15.999 -9.99902 -25.999l-55.9971 -55.9961q-7.99902 -8 -17.999 -9.99902q-3.99902 -1 -7.99902 -1h-254.984q-8 0 -15.999 2.49902q-8 2.5 -13.999 8.5l-55.9971 55.9961
q-4 4 -7.49902 10q-3.5 5.99902 -3.5 11.999v353.979q0 6 4.49902 9.99902q4.5 4 10.5 4h141.991zM322.012 699q4.99902 0 9.49902 -3.5t4.5 -8.49902v-124.992q0 -6 -4 -10.5q-4 -4.49902 -9.99902 -4.49902h-118.993q-6 0 -9.99902 4.49902q-4 4.5 -4 10.5v124.992
q0 4.99902 4.5 8.49902q4.49902 3.5 9.49902 3.5h118.993z" />
    <glyph glyph-name="uni00C0" unicode="&#xc0;" horiz-adv-x="557" 
d="M421 0q-7 0 -11 4q-6 4 -7 10l-24 81h-201l-24 -81q-3 -6 -7 -10q-5 -4 -11 -4h-114q-11 0 -14 4q-3 5 -1 10l198 670q5 14 14 14h119q10 0 14 -15l198 -669q1 -6 -3 -10t-12 -4h-114zM300 776q-3 -5 -10 -5q-3 0 -8 3l-155 122q-3 2 -5 9q0 5 4 9l64 79q4 4 11 4
q5 0 7 -2l155 -122q5 -5 5 -9t-3 -9zM279 435l-61 -205h121z" />
    <glyph glyph-name="uni00C1" unicode="&#xc1;" horiz-adv-x="557" 
d="M198 855q-3 4 -3 9t5 9l155 122q2 2 7 2q7 0 11 -4l64 -79q4 -4 3.5 -9.5t-4.5 -8.5l-155 -122q-4 -3 -8 -3q-7 0 -10 5zM421 0q-6 0 -11 4.5t-7 9.5l-24 81h-201l-24 -81q-2 -5 -7 -9.5t-11 -4.5h-114q-10 0 -13.5 4.5t-1.5 9.5l198 670q5 14 14 14h119q10 0 14 -15
l198 -669q2 -5 -2.5 -9.5t-12.5 -4.5h-114zM279 435l-61 -205h121z" />
    <glyph glyph-name="uni00C2" unicode="&#xc2;" horiz-adv-x="557" 
d="M279 972q-8 0 -15 -5l-148 -117q-5 -4 -5 -9q0 -4 3 -9l44 -54q3 -5 10 -5q5 0 8 3l103 80l102 -80q3 -3 8 -3q7 0 10 5l45 54q3 5 3 9t-5 9l-149 117q-7 5 -14 5zM420 0q-5 0 -10.5 4.5t-7.5 9.5l-24 81h-201l-24 -81q-2 -5 -7.5 -9.5t-10.5 -4.5h-114q-9 0 -14 5
q-3 4 -1 9l198 670q4 14 14 14h119q10 0 14 -15l198 -669q2 -5 -2 -9q-5 -5 -13 -5h-114zM278 435l-61 -205h121z" />
    <glyph glyph-name="uni00C3" unicode="&#xc3;" horiz-adv-x="557" 
d="M420 0q-4 0 -11 5q-3 3 -7 9l-24 81h-201l-24 -81q-2 -5 -7.5 -9.5t-10.5 -4.5h-114q-10 0 -13 5q-4 4 -2 9l198 671q5 14 14 14h119q11 0 14 -15l198 -670q3 -4 -2 -9t-13 -5h-114zM278 436l-61 -205h121zM457 920q8 0 12 -6q4 -5 2 -12q-11 -36 -27.5 -64.5
t-48.5 -49.5q-25 -14 -56 -14q-26 0 -41 4q-8 2 -14.5 4t-12.5 4l-12 4t-11 4q-11 4 -28 4q-18 0 -32 -11q-7 -5 -14 -17q-3 -8 -12 -8h-63q-7 0 -12 5q-5 6 -2 13q7 32 27 64.5t49 49.5q23 15 56 15q13 0 23 -1t18 -3q15 -4 27 -9q6 -2 11.5 -4t11.5 -4q9 -4 28 -4
q9 0 17 4q9 2 17 9.5t12 15.5q4 7 12 7h63z" />
    <glyph glyph-name="uni00C4" unicode="&#xc4;" horiz-adv-x="557" 
d="M551 14q2 -5 -2 -9q-5 -5 -13 -5h-114q-5 0 -10.5 4.5t-7.5 9.5l-24 81h-201l-24 -81q-2 -5 -7.5 -9.5t-10.5 -4.5h-114q-9 0 -14 5q-3 5 -1 9l198 670q4 14 14 14h119q10 0 14 -15zM340 230l-60 205l-61 -205h121zM327 770q-14 0 -17 14l-1 1v95q0 7 5.5 12.5t12.5 5.5
h83q17 0 17 -18v-94q0 -7 -6 -12q-4 -4 -11 -4h-83zM150 770q-7 0 -12.5 4t-5.5 12v94q0 2 0.5 5.5t4.5 6.5q5 6 13 6h82q7 0 13 -6q4 -5 4 -12v-94q0 -7 -6 -12q-4 -4 -11 -4h-82z" />
    <glyph glyph-name="uni00C5" unicode="&#xc5;" horiz-adv-x="557" 
d="M550 14q1 -6 -3 -10t-12 -4h-114q-7 0 -11 4q-6 4 -7 10l-24 81h-201l-24 -81q-3 -6 -7 -10q-5 -4 -11 -4h-115q-10 0 -13 4q-3 5 -2 10l199 670q5 14 14 14h119q10 0 14 -15zM339 230l-60 205l-61 -205h121zM228 751q-28 0 -47.5 19.5t-19.5 48.5v97q0 28 19.5 48
t47.5 20h98q28 0 47.5 -20t19.5 -48v-97q0 -29 -19.5 -48.5t-47.5 -19.5h-98zM238 828h78v78h-78v-78z" />
    <glyph glyph-name="uni00C6" unicode="&#xc6;" horiz-adv-x="795" 
d="M529 551v-128h148q14 0 14 -14v-119q0 -14 -14 -14h-148v-130h202q5 0 9 -4q5 -3 5 -10v-119q0 -5 -5 -10q-6 -4 -9 -4h-335q-14 0 -14 14v81h-210l-24 -81q-2 -5 -7.5 -9.5t-10.5 -4.5h-114q-10 0 -13 5q-4 4 -2 9l198 671q5 14 14 14h518q3 0 9 -4q5 -5 5 -10v-119
q0 -7 -5 -10q-4 -4 -9 -4h-202zM382 230v321h-74l-96 -321h170z" />
    <glyph glyph-name="uni00C7" unicode="&#xc7;" horiz-adv-x="526" 
d="M348 488q-4 6 -4 10v26q0 4 -3 7l-17 17q-3 3 -7 3h-97q-4 0 -7 -3l-16 -17q-4 -8 -4 -9v-353q0 -4 4 -8l14 -14h116l14 14q3 3 3 7v30q0 3 4 9q5 5 10 5h119q5 0 9.5 -4.5t4.5 -9.5v-113q0 -7 -3 -10l-8 -8l-56 -56q-6 -7 -14 -9q-3 -2 -6.5 -2h-6.5h-2v-108
q0 -32 -23 -55t-55 -23h-97q-32 0 -55 23t-23 55v49q0 16 16 16h66q6 0 10.5 -4.5t4.5 -11.5v-29h58v88h-158q-7 0 -12 2q-7 2 -14 9l-56 56q-7 7 -9 14q0 3 -0.5 6t-0.5 6v512q0 1 0.5 3t0.5 7q1 7 9 16l56 56q6 5 12 8t14 3h259q5 0 13 -2q8 -4 13 -9l56 -56q8 -8 9 -13
q2 -4 2 -13v-107q0 -14 -14 -14h-119q-6 0 -10 4z" />
    <glyph glyph-name="uni00C8" unicode="&#xc8;" horiz-adv-x="468" 
d="M66 0q-14 0 -14 14v670q0 14 14 14h364q14 0 14 -14v-119q0 -14 -14 -14h-231v-128h177q14 0 14 -14v-119q0 -14 -14 -14h-177v-129h231q4 0 10 -4q4 -4 4 -10v-119q0 -7 -4 -10q-4 -4 -10 -4h-364zM285 782q5 -3 8 -3q7 0 10 5l65 79q3 5 3 9t-5 9l-155 122q-2 2 -7 2
q-7 0 -11 -4l-64 -79q-4 -4 -4 -9q2 -7 5 -9z" />
    <glyph glyph-name="uni00C9" unicode="&#xc9;" horiz-adv-x="468" 
d="M376 904q4 3 4.5 8.5t-3.5 9.5l-64 79q-4 4 -11 4q-5 0 -7 -2l-155 -122q-5 -4 -5 -9t3 -9l65 -79q3 -5 10 -5q4 0 8 3zM66 0q-14 0 -14 14v670q0 14 14 14h364q5 0 9.5 -4t4.5 -10v-119q0 -6 -4.5 -10t-9.5 -4h-231v-128h177q14 0 14 -14v-119q0 -14 -14 -14h-177v-129
h231q5 0 9.5 -4t4.5 -10v-119q0 -6 -4.5 -10t-9.5 -4h-364z" />
    <glyph glyph-name="uni00CA" unicode="&#xca;" horiz-adv-x="468" 
d="M248 972q-7 0 -14 -5l-149 -117q-5 -5 -5 -9t3 -9l45 -54q3 -5 10 -5q4 0 8 3l102 80l102 -80q5 -3 8 -3q7 0 10 5l45 54q3 5 3 9t-5 9l-149 117q-7 5 -14 5zM66 0q-14 0 -14 14v670q0 14 14 14h364q5 0 9 -4q5 -3 5 -10v-119q0 -5 -5 -10q-6 -4 -9 -4h-231v-128h177
q14 0 14 -14v-119q0 -14 -14 -14h-177v-129h231q5 0 9 -4q5 -3 5 -10v-119q0 -5 -4.5 -9.5t-9.5 -4.5h-364z" />
    <glyph glyph-name="uni00CB" unicode="&#xcb;" horiz-adv-x="468" 
d="M199 551v-128h177q14 0 14 -14v-119q0 -14 -14 -14h-177v-129h231q6 0 10 -4q4 -3 4 -10v-119q0 -5 -4 -10t-10 -5h-364q-14 0 -14 15v670q0 14 14 14h364q6 0 10 -4q4 -3 4 -10v-119q0 -6 -4 -10q-6 -4 -10 -4h-231zM305 770q-15 0 -18 14v96q0 18 18 18h82q17 0 17 -18
v-94q0 -7 -6 -12q-4 -4 -11 -4h-82zM127 770q-7 0 -12.5 4t-5.5 12v94q0 7 5.5 12.5t12.5 5.5h82q7 0 12.5 -5.5t5.5 -12.5v-94q0 -8 -5.5 -12t-12.5 -4h-82z" />
    <glyph glyph-name="uni00CC" unicode="&#xcc;" horiz-adv-x="251" 
d="M-36 905q-2 5 3 9l64 79q4 4 11 4q5 0 7 -2l155 -122q5 -4 5 -9q0 -4 -3 -9l-65 -79q-3 -5 -10 -5q-3 0 -8 3l-155 122q-4 3 -4 9zM67 0q-14 0 -14 14v670q0 14 14 14h118q14 0 14 -14v-670q0 -14 -14 -14h-118z" />
    <glyph glyph-name="uni00CD" unicode="&#xcd;" horiz-adv-x="251" 
d="M70 0q-14 0 -14 14v670q0 14 14 14h118q14 0 14 -14v-670q0 -14 -14 -14h-118zM289 896l-155 -122q-4 -3 -8 -3q-7 0 -10 5l-65 79q-3 4 -3 9t5 9l155 122q2 2 7 2q7 0 11 -4l64 -79q4 -4 3.5 -9.5t-4.5 -8.5z" />
    <glyph glyph-name="uni00CE" unicode="&#xce;" horiz-adv-x="251" 
d="M125 972q-7 0 -14 -5l-149 -117q-5 -5 -5 -9t3 -9l45 -54q3 -5 10 -5q4 0 8 3l102 80l102 -80q5 -3 8 -3q7 0 10 5l45 54q3 5 3 9t-5 9l-149 117q-7 5 -14 5zM66 0q-14 0 -14 14v670q0 14 14 14h119q14 0 14 -14v-670q0 -14 -14 -14h-119z" />
    <glyph glyph-name="uni00CF" unicode="&#xcf;" horiz-adv-x="251" 
d="M186 698q14 0 14 -14v-670q0 -15 -14 -15h-119q-14 0 -14 15v670q0 14 14 14h119zM90 774q-4 -4 -11 -4h-83q-6 0 -12 4.5t-6 11.5v94q0 7 6 12q4 6 12 6h83q7 0 13 -6q4 -5 4 -12v-94q0 -7 -6 -12zM257 898q17 0 17 -18v-94q0 -7 -6 -12q-4 -4 -11 -4h-83q-13 0 -18 14
v96q0 9 6 13q5 5 12 5h83z" />
    <glyph glyph-name="uni00D1" unicode="&#xd1;" horiz-adv-x="563" 
d="M339 0q-6 0 -11 4.5t-7 9.5l-122 335v-335q0 -5 -4.5 -9.5t-9.5 -4.5h-119q-6 0 -10 4.5t-4 9.5v670q0 14 14 14h146q10 0 15 -14l132 -384l5 -11v395q0 6 4.5 10t9.5 4h119q14 0 14 -14v-670q0 -5 -4 -9.5t-10 -4.5h-158zM474 919q8 0 12 -5.5t2 -12.5q-4 -15 -13 -36.5
t-24.5 -42t-38.5 -35t-56 -14.5q-25 0 -40.5 4t-27.5 8.5t-23 8t-28 3.5q-9 0 -17 -3q-7 -2 -15 -8t-14 -17q-3 -8 -12 -8h-63q-7 0 -11.5 5.5t-2.5 12.5q4 15 13 37t24.5 42.5t38.5 35t56 14.5q26 0 41.5 -4t27 -8.5t22.5 -8.5t28 -4q9 0 17 4q8 2 15.5 8t13.5 17q4 7 12 7
h63z" />
    <glyph glyph-name="uni00D2" unicode="&#xd2;" 
d="M425 12q-10 -11 -23 -11h-261q-10 0 -13 2q-5 1 -13 9l-56 56q-11 11 -11 26v512q0 6 3 13.5t8 12.5l56 56q11 11 26 11h258q10 0 14 -2q5 -1 12 -9l57 -56q10 -10 10 -26v-512q0 -8 -2 -13q-1 -6 -8 -13zM295 776q3 -3 8 -3q7 0 10 5l65 79q3 5 3 9t-5 9l-155 122
q-4 2 -7 2q-8 0 -11 -4l-65 -79q-3 -4 -3 -9q2 -7 5 -9zM342 162q3 3 3 7v356q0 5 -3 8l-16 16q-3 3 -7 3h-97q-1 0 -7 -3l-17 -16q-3 -3 -3 -8v-356q0 -2 3 -7l14 -14h116z" />
    <glyph glyph-name="uni00D3" unicode="&#xd3;" 
d="M397 897q4 3 4.5 8.5t-2.5 9.5l-65 79q-4 4 -11 4q-5 0 -7 -2l-155 -122q-5 -4 -5 -9t3 -9l65 -79q3 -5 10 -5q4 0 8 3zM425 11q-11 -11 -23 -11h-261q-8 0 -13.5 2t-12.5 9l-56 56q-11 11 -11 26v512q0 6 3 13.5t8 12.5l56 56q7 7 13.5 9t12.5 2h258q10 0 14 -1.5
t12 -9.5l57 -56q4 -4 7 -10t3 -16v-512q0 -5 -2 -12.5t-8 -13.5zM342 161q3 3 3 7v356q0 5 -3 8l-16 16q-3 3 -7 3h-97q-2 0 -7 -3l-17 -16q-3 -3 -3 -8v-356q0 -2 3 -7l14 -14h116z" />
    <glyph glyph-name="uni00D4" unicode="&#xd4;" 
d="M270 972q-7 0 -14 -5l-149 -117q-5 -5 -5 -9t3 -9l45 -54q3 -5 10 -5q4 0 8 3l102 80l102 -80q5 -3 8 -3q7 0 10 5l45 54q3 5 3 9t-5 9l-149 117q-7 5 -14 5zM425 11q-11 -11 -23 -11h-261q-7 0 -13 2q-5 1 -13 9l-56 56q-11 11 -11 26v512q0 15 11 26l56 56q8 8 14 9
q4 2 12 2h258q11 0 14 -1q5 -2 12 -10l57 -56q5 -4 7.5 -12t2.5 -14v-512q0 -16 -10 -26zM342 161q3 3 3 7v356q0 5 -3 8l-16 16q-3 3 -7 3h-97q-2 0 -7 -3l-17 -16q-3 -3 -3 -8v-356q0 -1 3 -7l14 -14h116z" />
    <glyph glyph-name="uni00D5" unicode="&#xd5;" 
d="M425 11q-11 -11 -23 -11h-261q-7 0 -13 2q-5 2 -13 9l-56 56q-11 13 -11 26v513q0 8 3 14t8 12l56 56q9 7 14 9q8 2 12 2h258q10 0 14 -2q5 -1 12 -9l57 -56q10 -10 10 -26v-513q0 -7 -2 -12q-1 -7 -8 -14zM342 162q3 3 3 7v356q0 5 -3 8l-16 16q-3 3 -7 3h-97
q-1 0 -7 -3l-17 -16q-3 -3 -3 -8v-356q0 -2 3 -7l14 -15h116zM449 920q9 0 12 -6q5 -5 2 -12q-4 -20 -15 -41t-22 -38q-20 -23 -41.5 -36t-53.5 -13q-12 0 -22 1t-18 3t-15 4t-13 4t-11.5 4t-11.5 4q-9 4 -28 4q-8 0 -17 -3q-3 -2 -6.5 -3.5t-8.5 -4.5q-8 -6 -14 -17
q-3 -8 -12 -8h-63q-6 0 -11 5q-4 6 -3 13q6 21 15 41.5t23 37.5q17 23 41 36.5t53 13.5q14 0 24 -1t18 -3q15 -4 27 -9t22 -8q11 -4 28 -4q10 0 17 4q10 2 17 9.5t12 15.5q5 7 12 7h63z" />
    <glyph glyph-name="uni00D6" unicode="&#xd6;" 
d="M482 631q10 -10 10 -26v-512q0 -2 -2 -12q-2 -4 -3.5 -7.5t-4.5 -6.5l-57 -56q-6 -5 -11.5 -8.5t-11.5 -3.5h-261q-17 0 -26 12l-56 56q-11 10 -11 26v512q0 6 3 14t8 12l56 56q6 7 13 9q3 2 6.5 2h6.5h258q11 0 14 -1q4 -2 12 -10zM345 524q0 5 -3 8l-16 16q-3 3 -7 3
h-97q-2 0 -7 -3l-17 -16q-3 -3 -3 -8v-356q0 -1 3 -7l14 -14h116l14 14q3 3 3 7v356zM140 770q-7 0 -12.5 4t-5.5 12v94q0 7 5.5 12.5t12.5 5.5h82q7 0 12.5 -5.5t5.5 -12.5v-94q0 -8 -5.5 -12t-12.5 -4h-82zM318 770q-15 0 -18 14v96q0 8 5 13q7 5 13 5h82q18 0 18 -18v-94
q0 -6 -7 -12q-4 -4 -11 -4h-82z" />
    <glyph glyph-name="uni00D8" unicode="&#xd8;" 
d="M581 699q5 0 6.5 -3.5t-0.5 -7.5l-94 -124v-470q0 -2 -2 -12q-2 -4 -3.5 -7.5t-4.5 -6.5l-57 -56q-13 -11 -23 -11h-261q-8 0 -14.5 2t-11.5 9l-24 23l-23 -31q-3 -3 -6 -3h-103q-5 0 -6.5 4t0.5 7l95 124v470q0 6 3 14t8 12l56 56q6 7 13 9q3 2 6.5 2h6.5h258
q11 0 14 -1q4 -2 12 -10l23 -23l24 31q3 3 6 3h102zM196 330l149 198q0 3 -2 5l-16 16q-3 3 -7 3h-97q-2 0 -7 -3l-17 -16q-3 -3 -3 -8v-195zM346 370l-150 -198v-3q0 -2 3 -7l14 -14h116l14 14q3 3 3 7v201z" />
    <glyph glyph-name="uni00D9" unicode="&#xd9;" horiz-adv-x="542" 
d="M427 12q-7 -7 -11 -9q-8 -2 -15 -2h-259q-10 0 -14 2q-5 1 -12 8l-56 57q-11 11 -11 26v591q0 5 4.5 9.5t9.5 4.5h119q14 0 14 -14v-516q0 -2 1 -3v-1t2 -3l14 -14h116l14 14q4 3 4 8v515q0 14 14 14h118q14 0 14 -14v-591q0 -17 -10 -26zM308 776q3 -3 8 -3q7 0 10 5
l65 79q7 9 -2 18l-155 122q-2 2 -7 2q-7 0 -11 -4l-65 -79q-3 -5 -2 -9q0 -6 4 -9z" />
    <glyph glyph-name="uni00DA" unicode="&#xda;" horiz-adv-x="542" 
d="M386 897q4 3 4.5 8.5t-2.5 9.5l-65 79q-4 4 -11 4q-5 0 -7 -2l-155 -122q-9 -9 -2 -18l65 -79q3 -5 10 -5q5 0 8 3zM427 11q-6 -6 -11.5 -8.5t-14.5 -2.5h-259q-8 0 -14 2t-12 8l-56 57q-8 8 -9.5 14t-1.5 12v591q0 6 4.5 10t9.5 4h119q14 0 14 -14v-516q0 -3 0.5 -4
t2.5 -3l14 -14h116l14 14q4 4 4 8v515q0 14 14 14h118q14 0 14 -14v-591q0 -16 -10 -26z" />
    <glyph glyph-name="uni00DB" unicode="&#xdb;" horiz-adv-x="542" 
d="M271 972q-7 0 -14 -5l-149 -117q-5 -5 -5 -9t3 -9l45 -54q3 -5 10 -5q4 0 8 3l102 80l102 -80q5 -3 8 -3q7 0 10 5l45 54q3 5 3 9t-5 9l-149 117q-7 5 -14 5zM427 11q-6 -6 -11 -8q-6 -3 -15 -3h-259q-8 0 -14 2t-12 8l-56 57q-8 8 -9.5 12t-1.5 14v591q0 7 4 10
q4 4 10 4h119q14 0 14 -14v-516q0 -3 1 -4l1 -1q1 -1 1 -2l14 -14h116l14 14q4 4 4 8v515q0 14 14 14h118q14 0 14 -14v-591q0 -16 -10 -26z" />
    <glyph glyph-name="uni00DC" unicode="&#xdc;" horiz-adv-x="542" 
d="M479 698q14 0 14 -14v-591q0 -16 -10 -26l-56 -56q-6 -6 -11 -8q-8 -4 -15 -4h-259q-15 0 -26 11l-56 57q-11 11 -11 26v591q0 7 5 10q4 4 9 4h119q14 0 14 -14v-516q0 -3 1 -4l1 -1q1 -1 1 -2l14 -14h116l14 14q4 4 4 8v515q0 14 14 14h118zM141 770q-6 0 -12 4.5
t-6 11.5v94q0 7 6 12q5 6 12 6h83q7 0 13 -6q4 -5 4 -12v-94q0 -7 -6 -12q-4 -4 -11 -4h-83zM319 770q-7 0 -12.5 4t-5.5 11v95q0 9 6 13q5 5 12 5h83q17 0 17 -18v-94q0 -7 -6 -12q-4 -4 -11 -4h-83z" />
    <glyph glyph-name="uni00DF" unicode="&#xdf;" horiz-adv-x="522" 
d="M483 407q0 -9 -1.5 -14.5t-9.5 -11.5l-39 -40l39 -40q3 -3 4.5 -5t3.5 -4q3 -4 3 -9v-192q0 -9 -2 -14t-9 -12l-56 -56q-7 -7 -12 -8q-6 -2 -12 -2h-113q-6 0 -10 4.5t-4 9.5v120q0 13 14 13h40l14 14q3 2 3 7v105l-59 59q-9 9 0 20l59 59v114q0 5 -3 8l-17 16q-4 4 -7 4
h-116v-538q0 -14 -14 -14h-119q-5 0 -9.5 4.5t-4.5 9.5v592q0 2 0.5 4t0.5 6q2 8 10 16l56 56q12 10 26 10h251q16 0 26 -10l56 -56q7 -7 9 -12t2 -14v-199z" />
    <glyph glyph-name="uni00E0" unicode="&#xe0;" horiz-adv-x="557" 
d="M421 0q-7 0 -11 4q-6 4 -7 10l-24 81h-201l-24 -81q-3 -6 -7 -10q-5 -4 -11 -4h-114q-11 0 -14 4q-3 5 -1 10l198 670q5 14 14 14h119q10 0 14 -15l198 -669q1 -6 -3 -10t-12 -4h-114zM300 776q-3 -5 -10 -5q-3 0 -8 3l-155 122q-3 2 -5 9q0 5 4 9l64 79q4 4 11 4
q5 0 7 -2l155 -122q5 -5 5 -9t-3 -9zM279 435l-61 -205h121z" />
    <glyph glyph-name="uni00E1" unicode="&#xe1;" horiz-adv-x="557" 
d="M198 855q-3 4 -3 9t5 9l155 122q2 2 7 2q7 0 11 -4l64 -79q4 -4 3.5 -9.5t-4.5 -8.5l-155 -122q-4 -3 -8 -3q-7 0 -10 5zM421 0q-6 0 -11 4.5t-7 9.5l-24 81h-201l-24 -81q-2 -5 -7 -9.5t-11 -4.5h-114q-10 0 -13.5 4.5t-1.5 9.5l198 670q5 14 14 14h119q10 0 14 -15
l198 -669q2 -5 -2.5 -9.5t-12.5 -4.5h-114zM279 435l-61 -205h121z" />
    <glyph glyph-name="uni00E2" unicode="&#xe2;" horiz-adv-x="557" 
d="M279 972q-8 0 -15 -5l-148 -117q-5 -4 -5 -9q0 -4 3 -9l44 -54q3 -5 10 -5q5 0 8 3l103 80l102 -80q3 -3 8 -3q7 0 10 5l45 54q3 5 3 9t-5 9l-149 117q-7 5 -14 5zM420 0q-5 0 -10.5 4.5t-7.5 9.5l-24 81h-201l-24 -81q-2 -5 -7.5 -9.5t-10.5 -4.5h-114q-9 0 -14 5
q-3 4 -1 9l198 670q4 14 14 14h119q10 0 14 -15l198 -669q2 -5 -2 -9q-5 -5 -13 -5h-114zM278 435l-61 -205h121z" />
    <glyph glyph-name="uni00E3" unicode="&#xe3;" horiz-adv-x="557" 
d="M420 0q-4 0 -11 5q-3 3 -7 9l-24 81h-201l-24 -81q-2 -5 -7.5 -9.5t-10.5 -4.5h-114q-10 0 -13 5q-4 4 -2 9l198 671q5 14 14 14h119q11 0 14 -15l198 -670q3 -4 -2 -9t-13 -5h-114zM278 436l-61 -205h121zM457 920q8 0 12 -6q4 -5 2 -12q-11 -36 -27.5 -64.5
t-48.5 -49.5q-25 -14 -56 -14q-26 0 -41 4q-8 2 -14.5 4t-12.5 4l-12 4t-11 4q-11 4 -28 4q-18 0 -32 -11q-7 -5 -14 -17q-3 -8 -12 -8h-63q-7 0 -12 5q-5 6 -2 13q7 32 27 64.5t49 49.5q23 15 56 15q13 0 23 -1t18 -3q15 -4 27 -9q6 -2 11.5 -4t11.5 -4q9 -4 28 -4
q9 0 17 4q9 2 17 9.5t12 15.5q4 7 12 7h63z" />
    <glyph glyph-name="uni00E4" unicode="&#xe4;" horiz-adv-x="557" 
d="M551 14q2 -5 -2 -9q-5 -5 -13 -5h-114q-5 0 -10.5 4.5t-7.5 9.5l-24 81h-201l-24 -81q-2 -5 -7.5 -9.5t-10.5 -4.5h-114q-9 0 -14 5q-3 5 -1 9l198 670q4 14 14 14h119q10 0 14 -15zM340 230l-60 205l-61 -205h121zM327 770q-14 0 -17 14l-1 1v95q0 7 5.5 12.5t12.5 5.5
h83q17 0 17 -18v-94q0 -7 -6 -12q-4 -4 -11 -4h-83zM150 770q-7 0 -12.5 4t-5.5 12v94q0 2 0.5 5.5t4.5 6.5q5 6 13 6h82q7 0 13 -6q4 -5 4 -12v-94q0 -7 -6 -12q-4 -4 -11 -4h-82z" />
    <glyph glyph-name="uni00E5" unicode="&#xe5;" horiz-adv-x="557" 
d="M550 14q1 -6 -3 -10t-12 -4h-114q-7 0 -11 4q-6 4 -7 10l-24 81h-201l-24 -81q-3 -6 -7 -10q-5 -4 -11 -4h-115q-10 0 -13 4q-3 5 -2 10l199 670q5 14 14 14h119q10 0 14 -15zM339 230l-60 205l-61 -205h121zM228 751q-28 0 -47.5 19.5t-19.5 48.5v97q0 28 19.5 48
t47.5 20h98q28 0 47.5 -20t19.5 -48v-97q0 -29 -19.5 -48.5t-47.5 -19.5h-98zM238 828h78v78h-78v-78z" />
    <glyph glyph-name="uni00E6" unicode="&#xe6;" horiz-adv-x="795" 
d="M529 551v-128h148q14 0 14 -14v-119q0 -14 -14 -14h-148v-130h202q5 0 9 -4q5 -3 5 -10v-119q0 -5 -5 -10q-6 -4 -9 -4h-335q-14 0 -14 14v81h-210l-24 -81q-2 -5 -7.5 -9.5t-10.5 -4.5h-114q-10 0 -13 5q-4 4 -2 9l198 671q5 14 14 14h518q3 0 9 -4q5 -5 5 -10v-119
q0 -7 -5 -10q-4 -4 -9 -4h-202zM382 230v321h-74l-96 -321h170z" />
    <glyph glyph-name="uni00E7" unicode="&#xe7;" horiz-adv-x="526" 
d="M348 488q-4 6 -4 10v26q0 4 -3 7l-17 17q-3 3 -7 3h-97q-4 0 -7 -3l-16 -17q-4 -8 -4 -9v-353q0 -4 4 -8l14 -14h116l14 14q3 3 3 7v30q0 3 4 9q5 5 10 5h119q5 0 9.5 -4.5t4.5 -9.5v-113q0 -7 -3 -10l-8 -8l-56 -56q-6 -7 -14 -9q-3 -2 -6.5 -2h-6.5h-2v-108
q0 -32 -23 -55t-55 -23h-97q-32 0 -55 23t-23 55v49q0 16 16 16h66q6 0 10.5 -4.5t4.5 -11.5v-29h58v88h-158q-7 0 -12 2q-7 2 -14 9l-56 56q-7 7 -9 14q0 3 -0.5 6t-0.5 6v512q0 1 0.5 3t0.5 7q1 7 9 16l56 56q6 5 12 8t14 3h259q5 0 13 -2q8 -4 13 -9l56 -56q8 -8 9 -13
q2 -4 2 -13v-107q0 -14 -14 -14h-119q-6 0 -10 4z" />
    <glyph glyph-name="uni00E8" unicode="&#xe8;" horiz-adv-x="468" 
d="M66 0q-14 0 -14 14v670q0 14 14 14h364q14 0 14 -14v-119q0 -14 -14 -14h-231v-128h177q14 0 14 -14v-119q0 -14 -14 -14h-177v-129h231q4 0 10 -4q4 -4 4 -10v-119q0 -7 -4 -10q-4 -4 -10 -4h-364zM285 782q5 -3 8 -3q7 0 10 5l65 79q3 5 3 9t-5 9l-155 122q-2 2 -7 2
q-7 0 -11 -4l-64 -79q-4 -4 -4 -9q2 -7 5 -9z" />
    <glyph glyph-name="uni00E9" unicode="&#xe9;" horiz-adv-x="468" 
d="M376 904q4 3 4.5 8.5t-3.5 9.5l-64 79q-4 4 -11 4q-5 0 -7 -2l-155 -122q-5 -4 -5 -9t3 -9l65 -79q3 -5 10 -5q4 0 8 3zM66 0q-14 0 -14 14v670q0 14 14 14h364q5 0 9.5 -4t4.5 -10v-119q0 -6 -4.5 -10t-9.5 -4h-231v-128h177q14 0 14 -14v-119q0 -14 -14 -14h-177v-129
h231q5 0 9.5 -4t4.5 -10v-119q0 -6 -4.5 -10t-9.5 -4h-364z" />
    <glyph glyph-name="uni00EA" unicode="&#xea;" horiz-adv-x="468" 
d="M248 972q-7 0 -14 -5l-149 -117q-5 -5 -5 -9t3 -9l45 -54q3 -5 10 -5q4 0 8 3l102 80l102 -80q5 -3 8 -3q7 0 10 5l45 54q3 5 3 9t-5 9l-149 117q-7 5 -14 5zM66 0q-14 0 -14 14v670q0 14 14 14h364q5 0 9 -4q5 -3 5 -10v-119q0 -5 -5 -10q-6 -4 -9 -4h-231v-128h177
q14 0 14 -14v-119q0 -14 -14 -14h-177v-129h231q5 0 9 -4q5 -3 5 -10v-119q0 -5 -4.5 -9.5t-9.5 -4.5h-364z" />
    <glyph glyph-name="uni00EB" unicode="&#xeb;" horiz-adv-x="468" 
d="M199 551v-128h177q14 0 14 -14v-119q0 -14 -14 -14h-177v-129h231q6 0 10 -4q4 -3 4 -10v-119q0 -5 -4 -10t-10 -5h-364q-14 0 -14 15v670q0 14 14 14h364q6 0 10 -4q4 -3 4 -10v-119q0 -6 -4 -10q-6 -4 -10 -4h-231zM305 770q-15 0 -18 14v96q0 18 18 18h82q17 0 17 -18
v-94q0 -7 -6 -12q-4 -4 -11 -4h-82zM127 770q-7 0 -12.5 4t-5.5 12v94q0 7 5.5 12.5t12.5 5.5h82q7 0 12.5 -5.5t5.5 -12.5v-94q0 -8 -5.5 -12t-12.5 -4h-82z" />
    <glyph glyph-name="uni00EC" unicode="&#xec;" horiz-adv-x="251" 
d="M-36 905q-2 5 3 9l64 79q4 4 11 4q5 0 7 -2l155 -122q5 -4 5 -9q0 -4 -3 -9l-65 -79q-3 -5 -10 -5q-3 0 -8 3l-155 122q-4 3 -4 9zM67 0q-14 0 -14 14v670q0 14 14 14h118q14 0 14 -14v-670q0 -14 -14 -14h-118z" />
    <glyph glyph-name="uni00ED" unicode="&#xed;" horiz-adv-x="251" 
d="M69 0q-14 0 -14 14v670q0 14 14 14h118q14 0 14 -14v-670q0 -14 -14 -14h-118zM288 896l-155 -122q-4 -3 -8 -3q-7 0 -10 5l-65 79q-3 4 -3 9t5 9l155 122q2 2 7 2q7 0 11 -4l64 -79q4 -4 3.5 -9.5t-4.5 -8.5z" />
    <glyph glyph-name="uni00EE" unicode="&#xee;" horiz-adv-x="251" 
d="M125 972q-7 0 -14 -5l-149 -117q-5 -5 -5 -9t3 -9l45 -54q3 -5 10 -5q4 0 8 3l102 80l102 -80q5 -3 8 -3q7 0 10 5l45 54q3 5 3 9t-5 9l-149 117q-7 5 -14 5zM66 0q-14 0 -14 14v670q0 14 14 14h119q14 0 14 -14v-670q0 -14 -14 -14h-119z" />
    <glyph glyph-name="uni00EF" unicode="&#xef;" horiz-adv-x="251" 
d="M186 698q14 0 14 -14v-670q0 -15 -14 -15h-119q-14 0 -14 15v670q0 14 14 14h119zM90 774q-4 -4 -11 -4h-83q-6 0 -12 4.5t-6 11.5v94q0 7 6 12q4 6 12 6h83q7 0 13 -6q4 -5 4 -12v-94q0 -7 -6 -12zM257 898q17 0 17 -18v-94q0 -7 -6 -12q-4 -4 -11 -4h-83q-13 0 -18 14
v96q0 9 6 13q5 5 12 5h83z" />
    <glyph glyph-name="uni00F1" unicode="&#xf1;" horiz-adv-x="563" 
d="M339 0q-6 0 -11 4.5t-7 9.5l-122 335v-335q0 -5 -4.5 -9.5t-9.5 -4.5h-119q-6 0 -10 4.5t-4 9.5v670q0 14 14 14h146q10 0 15 -14l132 -384l5 -11v395q0 6 4.5 10t9.5 4h119q14 0 14 -14v-670q0 -5 -4 -9.5t-10 -4.5h-158zM474 919q8 0 12 -5.5t2 -12.5q-4 -15 -13 -36.5
t-24.5 -42t-38.5 -35t-56 -14.5q-25 0 -40.5 4t-27.5 8.5t-23 8t-28 3.5q-9 0 -17 -3q-7 -2 -15 -8t-14 -17q-3 -8 -12 -8h-63q-7 0 -11.5 5.5t-2.5 12.5q4 15 13 37t24.5 42.5t38.5 35t56 14.5q26 0 41.5 -4t27 -8.5t22.5 -8.5t28 -4q9 0 17 4q8 2 15.5 8t13.5 17q4 7 12 7
h63z" />
    <glyph glyph-name="uni00F2" unicode="&#xf2;" 
d="M425 12q-10 -11 -23 -11h-261q-10 0 -13 2q-5 1 -13 9l-56 56q-11 11 -11 26v512q0 6 3 13.5t8 12.5l56 56q11 11 26 11h258q10 0 14 -2q5 -1 12 -9l57 -56q10 -10 10 -26v-512q0 -8 -2 -13q-1 -6 -8 -13zM295 776q3 -3 8 -3q7 0 10 5l65 79q3 5 3 9t-5 9l-155 122
q-4 2 -7 2q-8 0 -11 -4l-65 -79q-3 -4 -3 -9q2 -7 5 -9zM342 162q3 3 3 7v356q0 5 -3 8l-16 16q-3 3 -7 3h-97q-1 0 -7 -3l-17 -16q-3 -3 -3 -8v-356q0 -2 3 -7l14 -14h116z" />
    <glyph glyph-name="uni00F3" unicode="&#xf3;" 
d="M397 897q4 3 4.5 8.5t-2.5 9.5l-65 79q-4 4 -11 4q-5 0 -7 -2l-155 -122q-5 -4 -5 -9t3 -9l65 -79q3 -5 10 -5q4 0 8 3zM425 11q-11 -11 -23 -11h-261q-8 0 -13.5 2t-12.5 9l-56 56q-11 11 -11 26v512q0 6 3 13.5t8 12.5l56 56q7 7 13.5 9t12.5 2h258q10 0 14 -1.5
t12 -9.5l57 -56q4 -4 7 -10t3 -16v-512q0 -5 -2 -12.5t-8 -13.5zM342 161q3 3 3 7v356q0 5 -3 8l-16 16q-3 3 -7 3h-97q-2 0 -7 -3l-17 -16q-3 -3 -3 -8v-356q0 -2 3 -7l14 -14h116z" />
    <glyph glyph-name="uni00F4" unicode="&#xf4;" 
d="M270 972q-7 0 -14 -5l-149 -117q-5 -5 -5 -9t3 -9l45 -54q3 -5 10 -5q4 0 8 3l102 80l102 -80q5 -3 8 -3q7 0 10 5l45 54q3 5 3 9t-5 9l-149 117q-7 5 -14 5zM425 11q-11 -11 -23 -11h-261q-7 0 -13 2q-5 1 -13 9l-56 56q-11 11 -11 26v512q0 15 11 26l56 56q8 8 14 9
q4 2 12 2h258q11 0 14 -1q5 -2 12 -10l57 -56q5 -4 7.5 -12t2.5 -14v-512q0 -16 -10 -26zM342 161q3 3 3 7v356q0 5 -3 8l-16 16q-3 3 -7 3h-97q-2 0 -7 -3l-17 -16q-3 -3 -3 -8v-356q0 -1 3 -7l14 -14h116z" />
    <glyph glyph-name="uni00F5" unicode="&#xf5;" 
d="M425 11q-11 -11 -23 -11h-261q-7 0 -13 2q-5 2 -13 9l-56 56q-11 13 -11 26v513q0 8 3 14t8 12l56 56q9 7 14 9q8 2 12 2h258q10 0 14 -2q5 -1 12 -9l57 -56q10 -10 10 -26v-513q0 -7 -2 -12q-1 -7 -8 -14zM342 162q3 3 3 7v356q0 5 -3 8l-16 16q-3 3 -7 3h-97
q-1 0 -7 -3l-17 -16q-3 -3 -3 -8v-356q0 -2 3 -7l14 -15h116zM449 920q9 0 12 -6q5 -5 2 -12q-4 -20 -15 -41t-22 -38q-20 -23 -41.5 -36t-53.5 -13q-12 0 -22 1t-18 3t-15 4t-13 4t-11.5 4t-11.5 4q-9 4 -28 4q-8 0 -17 -3q-3 -2 -6.5 -3.5t-8.5 -4.5q-8 -6 -14 -17
q-3 -8 -12 -8h-63q-6 0 -11 5q-4 6 -3 13q6 21 15 41.5t23 37.5q17 23 41 36.5t53 13.5q14 0 24 -1t18 -3q15 -4 27 -9t22 -8q11 -4 28 -4q10 0 17 4q10 2 17 9.5t12 15.5q5 7 12 7h63z" />
    <glyph glyph-name="uni00F6" unicode="&#xf6;" 
d="M482 631q10 -10 10 -26v-512q0 -2 -2 -12q-2 -4 -3.5 -7.5t-4.5 -6.5l-57 -56q-6 -5 -11.5 -8.5t-11.5 -3.5h-261q-17 0 -26 12l-56 56q-11 10 -11 26v512q0 6 3 14t8 12l56 56q6 7 13 9q3 2 6.5 2h6.5h258q11 0 14 -1q4 -2 12 -10zM345 524q0 5 -3 8l-16 16q-3 3 -7 3
h-97q-2 0 -7 -3l-17 -16q-3 -3 -3 -8v-356q0 -1 3 -7l14 -14h116l14 14q3 3 3 7v356zM140 770q-7 0 -12.5 4t-5.5 12v94q0 7 5.5 12.5t12.5 5.5h82q7 0 12.5 -5.5t5.5 -12.5v-94q0 -8 -5.5 -12t-12.5 -4h-82zM318 770q-15 0 -18 14v96q0 8 5 13q7 5 13 5h82q18 0 18 -18v-94
q0 -6 -7 -12q-4 -4 -11 -4h-82z" />
    <glyph glyph-name="uni00F8" unicode="&#xf8;" 
d="M581 699q5 0 6.5 -3.5t-0.5 -7.5l-94 -124v-470q0 -2 -2 -12q-2 -4 -3.5 -7.5t-4.5 -6.5l-57 -56q-13 -11 -23 -11h-261q-8 0 -14.5 2t-11.5 9l-24 23l-23 -31q-3 -3 -6 -3h-103q-5 0 -6.5 4t0.5 7l95 124v470q0 6 3 14t8 12l56 56q6 7 13 9q3 2 6.5 2h6.5h258
q11 0 14 -1q4 -2 12 -10l23 -23l24 31q3 3 6 3h102zM196 330l149 198q0 3 -2 5l-16 16q-3 3 -7 3h-97q-2 0 -7 -3l-17 -16q-3 -3 -3 -8v-195zM346 370l-150 -198v-3q0 -2 3 -7l14 -14h116l14 14q3 3 3 7v201z" />
    <glyph glyph-name="uni00F9" unicode="&#xf9;" horiz-adv-x="542" 
d="M427 12q-7 -7 -11 -9q-8 -2 -15 -2h-259q-10 0 -14 2q-5 1 -12 8l-56 57q-11 11 -11 26v591q0 5 4.5 9.5t9.5 4.5h119q14 0 14 -14v-516q0 -2 1 -3v-1t2 -3l14 -14h116l14 14q4 3 4 8v515q0 14 14 14h118q14 0 14 -14v-591q0 -17 -10 -26zM308 776q3 -3 8 -3q7 0 10 5
l65 79q7 9 -2 18l-155 122q-2 2 -7 2q-7 0 -11 -4l-65 -79q-3 -5 -2 -9q0 -6 4 -9z" />
    <glyph glyph-name="uni00FA" unicode="&#xfa;" horiz-adv-x="542" 
d="M386 897q4 3 4.5 8.5t-2.5 9.5l-65 79q-4 4 -11 4q-5 0 -7 -2l-155 -122q-9 -9 -2 -18l65 -79q3 -5 10 -5q5 0 8 3zM427 11q-6 -6 -11.5 -8.5t-14.5 -2.5h-259q-8 0 -14 2t-12 8l-56 57q-8 8 -9.5 14t-1.5 12v591q0 6 4.5 10t9.5 4h119q14 0 14 -14v-516q0 -3 0.5 -4
t2.5 -3l14 -14h116l14 14q4 4 4 8v515q0 14 14 14h118q14 0 14 -14v-591q0 -16 -10 -26z" />
    <glyph glyph-name="uni00FB" unicode="&#xfb;" horiz-adv-x="542" 
d="M271 972q-7 0 -14 -5l-149 -117q-5 -5 -5 -9t3 -9l45 -54q3 -5 10 -5q4 0 8 3l102 80l102 -80q5 -3 8 -3q7 0 10 5l45 54q3 5 3 9t-5 9l-149 117q-7 5 -14 5zM427 11q-6 -6 -11 -8q-6 -3 -15 -3h-259q-8 0 -14 2t-12 8l-56 57q-8 8 -9.5 12t-1.5 14v591q0 7 4 10
q4 4 10 4h119q14 0 14 -14v-516q0 -3 1 -4l1 -1q1 -1 1 -2l14 -14h116l14 14q4 4 4 8v515q0 14 14 14h118q14 0 14 -14v-591q0 -16 -10 -26z" />
    <glyph glyph-name="uni00FC" unicode="&#xfc;" horiz-adv-x="542" 
d="M479 698q14 0 14 -14v-591q0 -16 -10 -26l-56 -56q-6 -6 -11 -8q-8 -4 -15 -4h-259q-15 0 -26 11l-56 57q-11 11 -11 26v591q0 7 5 10q4 4 9 4h119q14 0 14 -14v-516q0 -3 1 -4l1 -1q1 -1 1 -2l14 -14h116l14 14q4 4 4 8v515q0 14 14 14h118zM141 770q-6 0 -12 4.5
t-6 11.5v94q0 7 6 12q5 6 12 6h83q7 0 13 -6q4 -5 4 -12v-94q0 -7 -6 -12q-4 -4 -11 -4h-83zM319 770q-7 0 -12.5 4t-5.5 11v95q0 9 6 13q5 5 12 5h83q17 0 17 -18v-94q0 -7 -6 -12q-4 -4 -11 -4h-83z" />
    <glyph glyph-name="uni00FF" unicode="&#xff;" horiz-adv-x="529" 
d="M524 692q3 -6 0 -13l-186 -358v-307q0 -5 -4.5 -10t-9.5 -5h-120q-6 0 -10 5t-4 10v307l-186 358q-4 7 0 13q3 6 13 6h129q6 0 11 -4q4 -4 7 -10l100 -198l100 198q1 6 7 10q4 4 11 4h129q9 0 13 -6zM312 770q-15 0 -18 14v96q0 8 5 13q7 5 13 5h82q18 0 18 -18v-94
q0 -8 -5.5 -12t-12.5 -4h-82zM123 774q-7 4 -7 12v94q0 7 5.5 12.5t12.5 5.5h82q7 0 12.5 -5.5t5.5 -12.5v-94q0 -8 -5.5 -12t-12.5 -4h-82q-7 0 -11 4z" />
    <glyph glyph-name="uni010C" unicode="&#x10c;" horiz-adv-x="526" 
d="M106 895q-5 4 -5 9t3 9l45 54q3 5 10 5q4 0 8 -3l102 -80l102 80q5 3 8 3q7 0 10 -5l45 -54q3 -4 3 -9q0 -4 -5 -9l-149 -117q-7 -5 -14 -5t-14 5zM358 484q-5 0 -9.5 4.5t-4.5 9.5v26q0 4 -3 7l-17 17q-3 3 -7 3h-97q-4 0 -7 -3l-16 -17q-4 -4 -4 -9v-353q0 -5 4 -8
l14 -14h116l14 14q3 3 3 7v30q0 14 14 14h119q5 0 9.5 -4.5t4.5 -9.5v-113q0 -5 -3.5 -9.5t-7.5 -8.5l-56 -56q-11 -11 -27 -11h-258q-8 0 -14.5 2.5t-11.5 8.5l-56 56q-9 8 -9 15q-1 4 -1 11v512q0 5 1 10q0 9 9 16l56 56q6 8 11.5 9.5t14.5 1.5h259q9 0 13 -2q5 -1 13 -9
l56 -56q7 -5 9 -12q1 -3 1.5 -6t0.5 -8v-107q0 -4 -5 -9t-9 -5h-119z" />
    <glyph glyph-name="uni010D" unicode="&#x10d;" horiz-adv-x="526" 
d="M106 895q-5 4 -5 9t3 9l45 54q3 5 10 5q4 0 8 -3l102 -80l102 80q5 3 8 3q7 0 10 -5l45 -54q3 -4 3 -9q0 -4 -5 -9l-149 -117q-7 -5 -14 -5t-14 5zM358 484q-5 0 -9.5 4.5t-4.5 9.5v26q0 4 -3 7l-17 17q-3 3 -7 3h-97q-4 0 -7 -3l-16 -17q-4 -4 -4 -9v-353q0 -5 4 -8
l14 -14h116l14 14q3 3 3 7v30q0 14 14 14h119q5 0 9.5 -4.5t4.5 -9.5v-113q0 -5 -3.5 -9.5t-7.5 -8.5l-56 -56q-11 -11 -27 -11h-258q-8 0 -14.5 2.5t-11.5 8.5l-56 56q-9 8 -9 15q-1 4 -1 11v512q0 5 1 10q0 9 9 16l56 56q6 8 11.5 9.5t14.5 1.5h259q9 0 13 -2q5 -1 13 -9
l56 -56q7 -5 9 -12q1 -3 1.5 -6t0.5 -8v-107q0 -4 -5 -9t-9 -5h-119z" />
    <glyph glyph-name="uni0150" unicode="&#x150;" 
d="M483 632q5 -4 7.5 -12t2.5 -14v-512q0 -16 -10 -26l-57 -56q-11 -11 -23 -11h-261q-7 0 -13 2q-5 2 -13 9l-56 56q-11 13 -11 26v512q0 15 11 26l56 56q8 8 14 9q4 2 12 2h258q11 0 14 -1q5 -2 12 -10zM346 525q0 5 -3 8l-16 16q-3 3 -7 3h-97q-2 0 -7 -3l-17 -16
q-3 -3 -3 -8v-356q0 -1 3 -7l14 -14h116l14 14q3 3 3 7v356zM115 829q-3 5 -3 9t5 9l182 143q1 2 7 2q7 0 11 -4l43 -52q2 -3 2 -10q0 -4 -4 -8l-182 -144q-4 -3 -8 -3q-7 0 -10 5zM563 936q3 -4 3 -10q-2 -6 -5 -8l-182 -144q-3 -3 -8 -3q-7 0 -10 5l-43 53q-3 5 -3 9t5 9
l182 143q1 2 7 2q7 0 11 -4z" />
    <glyph glyph-name="uni0151" unicode="&#x151;" 
d="M483 632q5 -4 7.5 -12t2.5 -14v-512q0 -16 -10 -26l-57 -56q-11 -11 -23 -11h-261q-7 0 -13 2q-5 2 -13 9l-56 56q-11 13 -11 26v512q0 15 11 26l56 56q8 8 14 9q4 2 12 2h258q11 0 14 -1q5 -2 12 -10zM346 525q0 5 -3 8l-16 16q-3 3 -7 3h-97q-2 0 -7 -3l-17 -16
q-3 -3 -3 -8v-356q0 -1 3 -7l14 -14h116l14 14q3 3 3 7v356zM115 829q-3 5 -3 9t5 9l182 143q1 2 7 2q7 0 11 -4l43 -52q2 -3 2 -10q0 -4 -4 -8l-182 -144q-4 -3 -8 -3q-7 0 -10 5zM563 936q3 -4 3 -10q-2 -6 -5 -8l-182 -144q-3 -3 -8 -3q-7 0 -10 5l-43 53q-3 5 -3 9t5 9
l182 143q1 2 7 2q7 0 11 -4z" />
    <glyph glyph-name="uni0152" unicode="&#x152;" horiz-adv-x="795" 
d="M540 551v-128h147q14 0 14 -14v-119q0 -14 -14 -14h-147v-130h201q6 0 10 -4q4 -3 4 -10v-119q0 -6 -4 -10q-6 -4 -10 -4h-607q-5 0 -8 0.5t-6 1.5q-6 3 -12 9l-56 56q-12 12 -12 26v513q0 14 12 26l56 56q5 5 13 9q8 2 13 2h607q4 0 10 -4q4 -4 4 -10v-119q0 -7 -4 -10
q-4 -4 -10 -4h-201zM392 551h-177q-2 0 -7 -3l-17 -16q-3 -3 -3 -8v-356q0 -2 3 -7l14 -15h187v405z" />
    <glyph glyph-name="uni0153" unicode="&#x153;" horiz-adv-x="795" 
d="M540 551v-128h147q14 0 14 -14v-119q0 -14 -14 -14h-147v-130h201q6 0 10 -4q4 -3 4 -10v-119q0 -6 -4 -10q-6 -4 -10 -4h-607q-5 0 -8 0.5t-6 1.5q-6 3 -12 9l-56 56q-12 12 -12 26v513q0 14 12 26l56 56q5 5 13 9q8 2 13 2h607q4 0 10 -4q4 -4 4 -10v-119q0 -7 -4 -10
q-4 -4 -10 -4h-201zM392 551h-177q-2 0 -7 -3l-17 -16q-3 -3 -3 -8v-356q0 -2 3 -7l14 -15h187v405z" />
    <glyph glyph-name="uni0160" unicode="&#x160;" horiz-adv-x="534" 
d="M103 895q-5 5 -5 9q0 5 3 9l45 54q3 5 10 5q5 0 8 -3l102 -80l103 80q3 3 8 3q7 0 10 -5l44 -54q3 -4 3 -9t-5 -9l-148 -117q-7 -5 -15 -5q-7 0 -14 5zM356 487q-14 0 -14 14v50h-124q-4 0 -7 -3l-16 -16q-4 -3 -4 -8v-80q0 -3 4 -7l14 -14h187q12 0 15 -2q3 -1 11 -9
l56 -56q4 -5 6.5 -8t3.5 -6t1 -12v-237q0 -15 -11 -26l-56 -56q-5 -5 -12.5 -8t-13.5 -3h-259q-15 0 -26 11l-56 56q-5 5 -8 13t-3 15v97q0 7 4 10q4 4 11 4h118q14 0 14 -14v-45h126q2 0 5 3l17 16q3 3 3 7v76q0 7 -5 10l-15 14q-3 3 -5 3h-180q-15 0 -26 11l-56 56
q-2 3 -4 5.5t-4 5.5q-3 6 -3 15v236q0 15 11 26l56 56q6 8 11.5 9.5t14.5 1.5h259q10 0 13 -2q5 -1 13 -9l56 -56q11 -11 11 -27v-103q0 -6 -4 -10q-6 -4 -11 -4h-118z" />
    <glyph glyph-name="uni0161" unicode="&#x161;" horiz-adv-x="534" 
d="M103 895q-5 5 -5 9q0 5 3 9l45 54q3 5 10 5q5 0 8 -3l102 -80l103 80q3 3 8 3q7 0 10 -5l44 -54q3 -4 3 -9t-5 -9l-148 -117q-7 -5 -15 -5q-7 0 -14 5zM356 487q-14 0 -14 14v50h-124q-4 0 -7 -3l-16 -16q-4 -3 -4 -8v-80q0 -3 4 -7l14 -14h187q12 0 15 -2q3 -1 11 -9
l56 -56q4 -5 6.5 -8t3.5 -6t1 -12v-237q0 -15 -11 -26l-56 -56q-5 -5 -12.5 -8t-13.5 -3h-259q-15 0 -26 11l-56 56q-5 5 -8 13t-3 15v97q0 7 4 10q4 4 11 4h118q14 0 14 -14v-45h126q2 0 5 3l17 16q3 3 3 7v76q0 7 -5 10l-15 14q-3 3 -5 3h-180q-15 0 -26 11l-56 56
q-2 3 -4 5.5t-4 5.5q-3 6 -3 15v236q0 15 11 26l56 56q6 8 11.5 9.5t14.5 1.5h259q10 0 13 -2q5 -1 13 -9l56 -56q11 -11 11 -27v-103q0 -6 -4 -10q-6 -4 -11 -4h-118z" />
    <glyph glyph-name="uni0170" unicode="&#x170;" horiz-adv-x="542" 
d="M480 699q14 0 14 -14v-591q0 -16 -10 -26l-56 -56q-3 -3 -6 -4.5t-5 -3.5q-6 -3 -15 -3h-259q-6 0 -14 2q-3 2 -6 3.5t-6 4.5l-56 57q-5 6 -8 12t-3 14v591q0 7 5 10q4 4 9 4h119q14 0 14 -14v-516q0 -3 1 -4l1 -1q1 -1 1 -2l14 -14h116l14 14q4 4 4 8v515q0 14 14 14
h118zM117 829q-3 5 -3 9t5 9l182 143q1 2 7 2q7 0 11 -4l43 -52q2 -3 2 -10q0 -4 -4 -8l-182 -144q-4 -3 -8 -3q-7 0 -10 5zM565 936q3 -4 3 -10q-2 -6 -5 -8l-182 -144q-3 -3 -8 -3q-7 0 -10 5l-43 53q-3 5 -3 9t5 9l182 143q1 2 7 2q7 0 11 -4z" />
    <glyph glyph-name="uni0171" unicode="&#x171;" horiz-adv-x="542" 
d="M480 699q14 0 14 -14v-591q0 -16 -10 -26l-56 -56q-3 -3 -6 -4.5t-5 -3.5q-6 -3 -15 -3h-259q-6 0 -14 2q-3 2 -6 3.5t-6 4.5l-56 57q-5 6 -8 12t-3 14v591q0 7 5 10q4 4 9 4h119q14 0 14 -14v-516q0 -3 1 -4l1 -1q1 -1 1 -2l14 -14h116l14 14q4 4 4 8v515q0 14 14 14
h118zM117 829q-3 5 -3 9t5 9l182 143q1 2 7 2q7 0 11 -4l43 -52q2 -3 2 -10q0 -4 -4 -8l-182 -144q-4 -3 -8 -3q-7 0 -10 5zM565 936q3 -4 3 -10q-2 -6 -5 -8l-182 -144q-3 -3 -8 -3q-7 0 -10 5l-43 53q-3 5 -3 9t5 9l182 143q1 2 7 2q7 0 11 -4z" />
    <glyph glyph-name="uni0178" unicode="&#x178;" horiz-adv-x="528" 
d="M524 692q3 -6 0 -13l-186 -358v-307q0 -5 -4.5 -10t-9.5 -5h-120q-6 0 -10 5t-4 10v307l-186 358q-4 7 0 13q3 6 13 6h129q6 0 11 -4q4 -4 7 -10l100 -198l100 198q1 6 7 10q4 4 11 4h129q9 0 13 -6zM312 770q-15 0 -18 14v96q0 8 5 13q7 5 13 5h82q18 0 18 -18v-94
q0 -8 -5.5 -12t-12.5 -4h-82zM123 774q-7 4 -7 12v94q0 7 5.5 12.5t12.5 5.5h82q7 0 12.5 -5.5t5.5 -12.5v-94q0 -8 -5.5 -12t-12.5 -4h-82q-7 0 -11 4z" />
    <glyph glyph-name="uni017D" unicode="&#x17d;" horiz-adv-x="491" 
d="M83 895q-5 4 -5 9t3 9l44 54q3 5 10 5q5 0 8 -3l103 -80l102 80q3 3 8 3q7 0 10 -5l45 -54q3 -4 3 -9q0 -4 -5 -9l-149 -117q-7 -5 -14 -5q-8 0 -15 5zM460 565q0 -5 -4 -10l-242 -408h232q14 0 14 -14v-118q0 -5 -4 -10t-10 -5h-401q-6 0 -10 5t-4 10v119q0 7 3 10
l240 407h-229q-4 0 -10 4q-4 4 -4 10v119q0 7 4 10q4 4 10 4h401q14 0 14 -14v-119z" />
    <glyph glyph-name="uni017E" unicode="&#x17e;" horiz-adv-x="491" 
d="M83 895q-5 4 -5 9t3 9l44 54q3 5 10 5q5 0 8 -3l103 -80l102 80q3 3 8 3q7 0 10 -5l45 -54q3 -4 3 -9q0 -4 -5 -9l-149 -117q-7 -5 -14 -5q-8 0 -15 5zM460 565q0 -5 -4 -10l-242 -408h232q14 0 14 -14v-118q0 -5 -4 -10t-10 -5h-401q-6 0 -10 5t-4 10v119q0 7 3 10
l240 407h-229q-4 0 -10 4q-4 4 -4 10v119q0 7 4 10q4 4 10 4h401q14 0 14 -14v-119z" />
    <glyph glyph-name="uni02C6" unicode="&#x2c6;" horiz-adv-x="422" 
d="M279 971q7 0 14 -5l149 -117q5 -5 5 -9t-3 -9l-45 -54q-3 -5 -10 -5q-3 0 -8 3l-102 80l-102 -80q-4 -3 -8 -3q-7 0 -10 5l-45 54q-3 5 -3 9t5 9l149 117q7 5 14 5z" />
    <glyph glyph-name="uni02C7" unicode="&#x2c7;" horiz-adv-x="422" 
d="M106 895q-5 4 -5 9t3 9l45 54q3 5 10 5q4 0 8 -3l102 -80l102 80q5 3 8 3q7 0 10 -5l45 -54q3 -4 3 -9q0 -4 -5 -9l-149 -117q-7 -5 -14 -5t-14 5z" />
    <glyph glyph-name="uni02DC" unicode="&#x2dc;" horiz-adv-x="436" 
d="M457 920q8 0 12 -6q4 -5 2 -12q-11 -36 -27.5 -64.5t-48.5 -49.5q-25 -14 -56 -14q-26 0 -41 4q-8 2 -14.5 4t-12.5 4l-12 4t-11 4q-11 4 -28 4q-18 0 -32 -11q-7 -5 -14 -17q-3 -8 -12 -8h-63q-7 0 -12 5q-5 6 -2 13q7 32 27 64.5t49 49.5q23 15 56 15q13 0 23 -1t18 -3
q15 -4 27 -9q6 -2 11.5 -4t11.5 -4q9 -4 28 -4q9 0 17 4q9 2 17 9.5t12 15.5q4 7 12 7h63z" />
    <glyph glyph-name="uni02DD" unicode="&#x2dd;" horiz-adv-x="457" 
d="M114 829q-3 5 -3 9t5 9l182 143q1 2 7 2q7 0 11 -4l43 -52q2 -3 2 -10q0 -4 -4 -8l-182 -144q-4 -3 -8 -3q-7 0 -10 5zM562 936q3 -4 3 -10q-2 -6 -5 -8l-182 -144q-3 -3 -8 -3q-7 0 -10 5l-43 53q-3 5 -3 9t5 9l182 143q1 2 7 2q7 0 11 -4z" />
    <glyph glyph-name="uni2013" unicode="&#x2013;" horiz-adv-x="534" 
d="M481 199h-426q-6 0 -10 4.5t-4 9.5v119q0 12 14 14h426q12 -2 12 -14v-119q0 -11 -12 -13v-1z" />
    <glyph glyph-name="uni2014" unicode="&#x2014;" horiz-adv-x="700" 
d="M647 199h-592q-6 0 -10 4.5t-4 9.5v119q0 14 14 14h592q12 -2 12 -14v-119q0 -11 -12 -13v-1z" />
    <glyph glyph-name="uni2018" unicode="&#x2018;" horiz-adv-x="209" 
d="M45 534q-14 6 -14 15v135q0 6 4.5 10t10.5 4h118q14 0 14 -14v-189q0 -10 -10 -10q-2 0 -8 2z" />
    <glyph glyph-name="uni2019" unicode="&#x2019;" horiz-adv-x="209" 
d="M50 487q-6 -2 -8 -2q-11 0 -11 11v188q0 14 14 14h119q14 0 14 -14v-135q0 -9 -14 -15z" />
    <glyph glyph-name="uni201C" unicode="&#x201c;" horiz-adv-x="393" 
d="M229 534q-14 6 -14 15v135q0 14 14 14h119q14 0 14 -14v-188q0 -11 -11 -11q-2 0 -8 2zM45 534q-14 6 -14 15v135q0 6 4.5 10t10.5 4h118q14 0 14 -14v-189q0 -10 -10 -10q-2 0 -8 2z" />
    <glyph glyph-name="uni201D" unicode="&#x201d;" horiz-adv-x="392" 
d="M50 487q-6 -2 -8 -2q-11 0 -11 11v188q0 14 14 14h119q14 0 14 -14v-135q0 -9 -14 -15zM233 487q-6 -2 -8 -2q-10 0 -10 10v189q0 14 14 14h118q6 0 10.5 -4t4.5 -10v-135q0 -9 -14 -15z" />
    <glyph glyph-name="uni2022" unicode="&#x2022;" horiz-adv-x="414" 
d="M357 189q-2 -11 -9.5 -18t-18.5 -7h-244q-11 0 -18.5 7t-9.5 18h-1v264q0 12 8.5 20.5t20.5 8.5h244q12 0 20.5 -8.5t8.5 -20.5v-264h-1z" />
    <glyph glyph-name="uni2044" unicode="&#x2044;" horiz-adv-x="399" 
d="M30 0q-14 0 -14 14l220 671q0 14 14 14h119q5 0 9.5 -4t4.5 -10l-220 -671q0 -6 -4.5 -10t-9.5 -4h-119z" />
    <glyph glyph-name="uni20AC" unicode="&#x20ac;" horiz-adv-x="538" 
d="M385 520q-14 0 -14 14v15q0 4 -3 7l-17 16q-3 3 -6 3h-67q-5 0 -8 -3l-17 -16q-3 -3 -3 -7v-76h138q12 0 10 -12l-11 -74q-1 -5 -5 -8.5t-9 -3.5h-123v-56h111q12 0 10 -12l-11 -74q-1 -5 -5 -8.5t-9 -3.5h-96v-79q0 -6 3 -9l14 -14h87l14 14q3 3 3 7v20q0 6 3.5 10.5
t10.5 4.5h92q6 0 9 -4q4 -4 4 -11v-69q0 -9 -2 -12q-1 -5 -8 -12l-56 -57q-5 -5 -10 -7q-4 -3 -16 -3h-177q-5 0 -11 2q-7 2 -12 8l-57 57q-3 3 -4.5 6t-3.5 5q-2 8 -2 12v131h-78q-12 0 -10 12l11 74q1 5 5 8.5t9 3.5h63v56h-51q-12 0 -10 12l11 74q1 5 5 8.5t9 3.5h36v130
q0 14 10 26l57 55q6 6 12 8t14 2h174q8 0 14 -2t12 -8l56 -55q6 -8 8 -11t2 -15v-69q0 -14 -13 -14h-92z" />
    <glyph glyph-name="uni222B" unicode="&#x222b;" horiz-adv-x="534" 
d="M489 94q0 -8 -2 -13q-2 -7 -10 -15l-55 -55q-8 -8 -13 -9.5t-16 -1.5h-253h-6.5t-8.5 2q-8 3 -13 8l-56 56q-12 12 -12 28v108q0 11 11 11h125q10 0 10 -11l1 -56h126q4 0 6 2l16 16q2 2 2 4v43q0 2 -2 4l-284 165q-3 4 -4.5 6.5t-3.5 4.5q-3 6 -3 18v194q0 5 2 13
q2 4 3.5 7.5t6.5 7.5l55 56q7 7 12 9t16 2h253q6 0 15 -3q4 -2 7.5 -3.5t6.5 -4.5l55 -55q12 -14 12 -28v-114q0 -10 -11 -10l-125 -1q-11 0 -11 11v62h-126q-2 0 -6 -2l-16 -16q-2 -2 -2 -4v-49q0 -3 2 -3l284 -163q3 -4 5 -6.5t4 -4.5q2 -8 2 -18z" />
    </font>
</defs>
</svg>
