<?xml version="1.0" standalone="no"?>
<!DOCTYPE svg PUBLIC "-//W3C//DTD SVG 1.1//EN" "http://www.w3.org/Graphics/SVG/1.1/DTD/svg11.dtd" >
<svg xmlns="http://www.w3.org/2000/svg" xmlns:xlink="http://www.w3.org/1999/xlink" version="1.1">
<metadata>
Created by FontForge 20170731 at Wed Mar 18 14:17:55 2020
 By Aleksey,,,
</metadata>
<defs>
<font id="LiberatorSIROKO-Light" horiz-adv-x="545" >
  <font-face 
    font-family="Liberator SIROKO"
    font-weight="400"
    font-stretch="normal"
    units-per-em="1000"
    panose-1="0 0 0 0 0 0 0 0 0 0"
    ascent="750"
    descent="-250"
    x-height="698"
    cap-height="698"
    bbox="-32.1429 -174 932 925"
    underline-thickness="50"
    underline-position="-150"
    unicode-range="U+000D-FB02"
  />
<missing-glyph horiz-adv-x="331" 
 />
    <glyph glyph-name="uniFB01" unicode="fi" horiz-adv-x="680" 
d="M70 0q-14 0 -14 14v670q0 14 14 14h363q5 0 9.5 -4t4.5 -10v-65q0 -5 -1.5 -9.5t-6.5 -4.5h-290v-209h239q5 0 9.5 -4t4.5 -10v-65q0 -6 -4.5 -10t-9.5 -4h-239v-289q0 -14 -14 -14h-65zM545 0q-14 0 -14 14v669q0 6 4 10.5t10 4.5h65q6 0 10 -4.5t4 -10.5v-669
q0 -14 -14 -14h-65z" />
    <glyph glyph-name="uniFB02" unicode="fl" horiz-adv-x="954" 
d="M70 0q-14 0 -14 14v670q0 14 14 14h363q5 0 9.5 -4t4.5 -10v-65q0 -5 -1.5 -9.5t-6.5 -4.5h-290v-209h239q5 0 9.5 -4t4.5 -10v-65q0 -6 -4.5 -10t-9.5 -4h-239v-289q0 -14 -14 -14h-65zM545 0q-14 0 -14 14v672q0 5 4.5 8.5t9.5 3.5h65q5 0 9.5 -3.5t4.5 -8.5v-593h294
q14 0 14 -14v-65q0 -14 -14 -14h-373z" />
    <glyph glyph-name=".notdef" horiz-adv-x="331" 
 />
    <glyph glyph-name="uni0000" horiz-adv-x="0" 
 />
    <glyph glyph-name="uni0000" horiz-adv-x="0" 
 />
    <glyph glyph-name="uni000D" unicode="&#xd;" horiz-adv-x="240" 
 />
    <glyph glyph-name="uni0020" unicode=" " horiz-adv-x="240" 
 />
    <glyph glyph-name="uni0021" unicode="!" horiz-adv-x="194" 
d="M64 227q-5 0 -9.5 3.5t-4.5 8.5v435q0 14 14 14h66q14 0 14 -14v-435q0 -5 -4.5 -8.5t-9.5 -3.5h-66zM64 0q-5 0 -9.5 3.5t-4.5 8.5v82q0 14 14 14h66q14 0 14 -14v-82q0 -5 -4.5 -8.5t-9.5 -3.5h-66z" />
    <glyph glyph-name="uni0022" unicode="&#x22;" horiz-adv-x="323" 
d="M49 537q-14 0 -14 14v136q0 10 12 10h68q14 0 14 -14v-136q0 -4 -3.5 -7.5t-8.5 -2.5h-68zM208 537q-14 0 -14 14v136q0 10 12 10h68q14 0 14 -14v-136q0 -4 -3.5 -7.5t-8.5 -2.5h-68z" />
    <glyph glyph-name="uni0023" unicode="#" horiz-adv-x="735" 
d="M492 187l-61 -173q-2 -5 -7 -9.5t-11 -4.5h-72q-9 0 -12.5 4.5t-1.5 9.5l64 173h-159l-61 -173q-2 -5 -7 -9.5t-11 -4.5h-72q-9 0 -12.5 4.5t-1.5 9.5l64 173h-84q-12 2 -12 14v66q0 12 12 14h118l49 136h-167q-12 2 -12 14v66q0 5 3.5 9.5t8.5 4.5h201l62 173
q5 14 15 14h68q10 0 12.5 -5t0.5 -13l-60 -169h162l62 173q5 14 15 14h68q8 0 12 -5t1 -13l-60 -169h80q5 0 9.5 -4t4.5 -10v-66q0 -6 -4.5 -10t-9.5 -4h-113l-48 -136h161q5 0 9.5 -4t4.5 -10v-66q0 -6 -4.5 -10t-9.5 -4h-194zM474 417h-161l-48 -136h160z" />
    <glyph glyph-name="uni0024" unicode="$" horiz-adv-x="492" 
d="M376 62q-5 -5 -10.5 -7.5t-15.5 -2.5h-47v-38q0 -6 -4.5 -10t-10.5 -4h-65q-6 0 -10.5 4t-4.5 10v38h-66q-8 0 -14 2t-12 8l-56 56q-11 11 -11 26v79q0 6 4 10.5t10 4.5h66q6 0 10 -4.5t4 -10.5v-77h183l20 19q3 3 3 9v104q0 4 -5 9l-18 17h-187q-3 0 -9.5 1.5t-13.5 8.5
l-56 57q-7 7 -9 13.5t-2 11.5v161q0 15 11 26l56 57q6 6 11.5 8t14.5 2h66v39q0 6 4.5 10.5t10.5 4.5h65q6 0 10.5 -4.5t4.5 -10.5v-39h47q8 0 14 -2t12 -8l56 -56q10 -10 10.5 -16.5t0.5 -8.5v-86q0 -14 -14 -14h-66q-14 0 -14 14v83h-183l-20 -19q-3 -3 -3 -9v-102
q0 -5 3 -8l21 -20h183q6 0 12.5 -2t13.5 -9l56 -56q6 -6 8.5 -11t2.5 -15v-161q0 -4 -1 -8q-2 -8 -10 -18z" />
    <glyph glyph-name="uni0025" unicode="%" horiz-adv-x="523" 
d="M51 0q-6 0 -11.5 4.5t-3.5 9.5t6 11l338 659q3 6 6 10t8 4h79q5 0 10.5 -4.5t3.5 -9.5l-336 -670q-3 -5 -8 -9.5t-11 -4.5h-81zM387 3q-5 0 -10 3.5t-5 8.5v88q0 6 4.5 10t10.5 4h81q6 0 10.5 -4t4.5 -10v-88q0 -5 -4.5 -8.5t-10.5 -3.5h-81zM53 584q-5 0 -9.5 3.5
t-4.5 8.5v88q0 14 14 14h81q6 0 10.5 -4t4.5 -10v-88q0 -5 -4.5 -8.5t-10.5 -3.5h-81z" />
    <glyph glyph-name="uni0026" unicode="&#x26;" horiz-adv-x="579" 
d="M390 304h-220q-4 0 -7 -3l-16 -17q-4 -5 -4 -9v-149q0 -13 4 -17l13 -14h230v209zM418 10q-10 -10 -26 -10h-251q-9 0 -14.5 2t-11.5 8l-56 57q-11 11 -11 27v199q0 10 11 19l30 29l-30 30q-5 5 -8 9.5t-3 16.5v206q0 9 3 16t8 12l56 56q8 8 18 10q4 1 8 1h251q5 0 12 -2
t14 -9l57 -56q10 -10 10 -26v-105q0 -5 -4 -9.5t-10 -4.5h-67q-5 0 -9.5 4.5t-4.5 9.5v103h-220q-5 0 -7 -3l-16 -17q-4 -5 -4 -10v-155q0 -4 4 -7l14 -14h386q14 0 14 -14v-65q0 -14 -14 -14h-62v-211q0 -8 -2 -14t-8 -12z" />
    <glyph glyph-name="uni0027" unicode="'" horiz-adv-x="164" 
d="M49 537q-14 0 -14 14v136q0 10 12 10h68q14 0 14 -14v-136q0 -10 -12 -10h-68z" />
    <glyph glyph-name="uni0028" unicode="(" horiz-adv-x="289" 
d="M150 0q-9 0 -14.5 2.5t-11.5 8.5l-56 56q-11 11 -11 26v513q0 6 2 12.5t9 13.5l56 56q10 10 26 10h109v-94h-78q-7 0 -10 -3l-17 -16q-3 -3 -3 -6v-464q0 -4 3 -7l14 -14h91v-94h-109z" />
    <glyph glyph-name="uni0029" unicode=")" horiz-adv-x="289" 
d="M165 11q-6 -6 -11.5 -8.5t-14.5 -2.5h-109v94h91l14 14q3 3 3 7v464q0 3 -3 6l-17 16q-3 3 -10 3h-78v94h109q16 0 26 -10l56 -56q7 -7 9 -13.5t2 -12.5v-513q0 -15 -11 -26z" />
    <glyph glyph-name="uni002A" unicode="*" horiz-adv-x="368" 
d="M217 474l5 -86q0 -6 -7 -6h-62q-8 0 -8 6l5 86l-68 -53q-1 -1 -3 -1q-4 0 -6 3l-36 51q-4 6 1 10l87 55l-86 55q-6 3 -2 11l36 50q2 4 5 4q1 0 5 -2l67 -53l-5 85q0 8 8 8h62q7 0 7 -7l-5 -86l67 53q4 2 6 2t5 -4l36 -50q4 -8 -2 -11l-86 -55l87 -55q5 -4 1 -10l-36 -51
q-1 -3 -7 -3q-2 0 -3 1z" />
    <glyph glyph-name="uni002B" unicode="+" horiz-adv-x="478" 
d="M206 155q-5 0 -9.5 4t-4.5 9v145h-145q-5 0 -8.5 4.5t-3.5 9.5v66q0 5 3.5 9.5t8.5 4.5h145v143q0 6 4.5 10t9.5 4h65q14 0 14 -14v-143h143q6 0 10.5 -4t4.5 -10v-66q0 -6 -4.5 -10t-10.5 -4h-143v-145q0 -5 -4.5 -9t-9.5 -4h-65z" />
    <glyph glyph-name="uni002C" unicode="," horiz-adv-x="193" 
d="M68 -100q-4 -3 -7 -3q-5 0 -8 4t-3 8v184q0 14 14 14h65q14 0 14 -14v-131q0 -4 -4 -7.5t-9 -7.5z" />
    <glyph glyph-name="uni002D" unicode="-" horiz-adv-x="445" 
d="M47 313q-5 0 -8.5 4.5t-3.5 9.5v66q0 5 3.5 9.5t8.5 4.5h348q6 0 10.5 -4t4.5 -10v-66q0 -6 -4.5 -10t-10.5 -4h-348z" />
    <glyph glyph-name="uni002E" unicode="." horiz-adv-x="193" 
d="M64 0q-5 0 -9.5 3.5t-4.5 8.5v81q0 14 14 14h65q14 0 14 -14v-81q0 -5 -4.5 -8.5t-9.5 -3.5h-65z" />
    <glyph glyph-name="uni002F" unicode="/" horiz-adv-x="493" 
d="M37 0q-9 0 -12.5 4.5t-1.5 9.5l344 674q2 5 5 7.5t10 2.5h76q9 0 12.5 -4.5t1.5 -9.5l-340 -674q-2 -5 -5 -7.5t-10 -2.5h-80z" />
    <glyph glyph-name="uni0030" unicode="0" horiz-adv-x="546" 
d="M428 10q-5 -5 -10 -7.5t-16 -2.5h-258q-16 0 -26 10l-57 57q-6 6 -8 12t-2 14v512q0 17 10 26l57 56q8 8 18 10q4 1 8 1h258q4 0 9 -1q9 -2 17 -10l57 -56q8 -8 9 -14.5t1 -15.5v-508q0 -15 -11 -26zM397 109q3 2 3 7v455q0 8 -3 12l-14 15q-5 5 -9 5h-200q-6 0 -10 -4
l-15 -16q-3 -3 -3 -4v-3v-460q0 -5 3 -7l14 -14h220z" />
    <glyph glyph-name="uni0031" unicode="1" horiz-adv-x="233" 
d="M96 0q-14 0 -14 14v589h-56q-5 0 -9.5 5.5t1.5 13.5l47 63q5 6 7.5 9.5t7.5 3.5h82q5 0 10 -3.5t5 -10.5v-670q0 -6 -4.5 -10t-10.5 -4h-66z" />
    <glyph glyph-name="uni0032" unicode="2" horiz-adv-x="550" 
d="M69 0q-14 0 -14 14v295q0 4 1 9q2 9 10 17l56 56q11 11 26 11h249l14 14q3 3 3 7v152q0 4 -3 7l-16 17q-3 3 -7 3h-238v-102q0 -5 -4 -9.5t-10 -4.5h-67q-6 0 -10 4.5t-4 9.5v105q0 7 1.5 12.5t9.5 13.5l56 56q11 11 26 11h257q10 0 14.5 -1.5t12.5 -9.5l57 -56
q8 -8 10 -17v-9v-205q0 -8 -2 -14t-8 -12l-57 -57q-10 -10 -26 -10h-231q-3 0 -6 -3l-16 -16q-3 -3 -3 -8v-185h335q6 0 10 -4.5t4 -9.5v-67q0 -14 -14 -14h-416z" />
    <glyph glyph-name="uni0033" unicode="3" horiz-adv-x="524" 
d="M409 10q-7 -7 -13.5 -8.5t-10.5 -1.5h-256q-7 0 -11.5 1.5t-11.5 8.5l-57 57q-10 10 -10 23v107q0 14 14 14h67q5 0 9.5 -4t4.5 -10v-102h230l13 14q2 2 3 4t1 5v155q0 5 -4 9l-16 17q-2 3 -7 3h-157v95h166l14 14q4 4 4 9v156q0 2 -1.5 4t-2.5 3l-16 17q-2 3 -7 3h-220
v-103q0 -5 -4.5 -9.5t-9.5 -4.5h-67q-6 0 -10 4.5t-4 9.5v105q0 16 10 26l57 56q7 7 11.5 9t14.5 2h251q9 0 14 -2t12 -9l56 -56q11 -11 11 -28v-205q0 -8 -1.5 -13.5t-9.5 -13.5l-30 -30l30 -29q11 -9 11 -19v-199q0 -6 -3 -14t-8 -13z" />
    <glyph glyph-name="uni0034" unicode="4" horiz-adv-x="559" 
d="M385 0q-6 0 -10.5 4t-4.5 10v194h-226q-8 0 -13.5 2t-12.5 9l-57 56q-10 10 -10 26v383q0 5 4 9.5t10 4.5h67q5 0 9.5 -4.5t4.5 -9.5v-360q0 -4 3 -7l14 -14h207v381q0 6 4.5 10t10.5 4h66q14 0 14 -14v-381h52q14 0 14 -14v-67q0 -5 -4 -9.5t-10 -4.5h-52v-194
q0 -14 -14 -14h-66z" />
    <glyph glyph-name="uni0035" unicode="5" horiz-adv-x="550" 
d="M432 10q-7 -7 -11.5 -8.5t-12.5 -1.5h-260q-5 0 -12 1.5t-14 8.5l-56 57q-7 7 -9 12.5t-2 13.5v104q0 14 14 14h67q14 0 14 -14v-102h228q4 0 7 3l16 16q3 3 3 8v178v3q-1 1 -1 2t-2 3l-14 14h-239q-5 0 -12 1.5t-14 8.5l-56 57q-11 11 -11 26v269q0 5 4 9.5t10 4.5h416
q6 0 10 -4.5t4 -9.5v-66q0 -14 -14 -14h-335v-160q0 -5 3 -8l16 -16q3 -3 6 -3h231q15 0 26 -11l57 -56q8 -8 9 -16t1 -10v-231q0 -11 -3 -16.5t-7 -9.5z" />
    <glyph glyph-name="uni0036" unicode="6" horiz-adv-x="534" 
d="M421 10q-10 -10 -26 -10h-259q-6 0 -9.5 2.5t-8.5 7.5l-57 57q-10 10 -10 26v514q0 4 1.5 10.5t8.5 13.5l57 56q8 8 13 9.5t13 1.5h251q8 0 12.5 -1.5t13.5 -9.5l56 -56q11 -11 11 -28v-103q0 -5 -4.5 -9.5t-10.5 -4.5h-56q-6 0 -10 4.5t-4 9.5v103h-231q-4 0 -7 -3
l-16 -17q-2 -3 -2.5 -3.5t-0.5 -3.5v-133q0 -5 3 -7l14 -14h232q8 0 12.5 -1.5t13.5 -9.5l57 -56q7 -7 8.5 -13t1.5 -13v-237q0 -8 -1.5 -12.5t-9.5 -12.5zM389 110q4 4 4 7v183q0 4 -4 8l-19 19h-198q-5 0 -7 -3l-16 -17q-3 -3 -3 -7v-184q0 -5 3 -7l13 -13h214z" />
    <glyph glyph-name="uni0037" unicode="7" horiz-adv-x="485" 
d="M144 0q0 4 3 11l212 592h-319q-14 0 -14 14v67q0 14 14 14h401q14 0 14 -14v-106q0 -11 -3.5 -20t-6.5 -18l-193 -540h-108z" />
    <glyph glyph-name="uni0038" unicode="8" horiz-adv-x="534" 
d="M419 10q-7 -7 -13.5 -8.5t-10.5 -1.5h-256q-4 0 -10 1.5t-13 8.5l-57 57q-7 7 -8.5 12.5t-1.5 12.5v191q0 7 10 19l30 39l-30 40q-6 8 -8 14t-2 9v202q0 15 10 25l57 56q8 8 14 9.5t12 1.5h251q8 0 13 -1.5t13 -9.5l56 -56q8 -8 9.5 -15.5t1.5 -9.5v-199q0 -8 -2 -12.5
t-9 -13.5l-30 -40l30 -39q5 -5 8 -10t3 -9v-191q0 -3 -1.5 -10t-9.5 -15zM389 111q2 2 2 7v159q0 5 -3 8l-17 18q-3 3 -7 3h-204q-5 0 -7 -3l-16 -17q-3 -4 -3 -9v-161q0 -5 3 -7l14 -14h223zM387 407q4 3 4 7v161q0 4 -4 8l-16 17q-2 3 -7 3h-204q-4 0 -7 -3l-16 -17
q-3 -4 -3 -7v-162q0 -5 3 -7l14 -14h222z" />
    <glyph glyph-name="uni0039" unicode="9" horiz-adv-x="534" 
d="M417 10q-7 -7 -13.5 -8.5t-10.5 -1.5h-256q-3 0 -9.5 1.5t-13.5 8.5l-57 57q-7 7 -8.5 13.5t-1.5 9.5v107q0 14 14 14h67q5 0 9.5 -4t4.5 -10v-101h220q4 0 7 3l16 16q3 3 3.5 4.5t0.5 3.5v131q0 4 -4 8l-14 14h-234q-3 0 -9.5 1.5t-13.5 8.5l-57 57q-10 10 -10 26v237
q0 3 1 10t9 15l57 56q8 8 14.5 9.5t11.5 1.5l258 -1q9 0 19 -10l56 -56q11 -11 11 -28l-1 -510q0 -5 -1.5 -12t-8.5 -14zM385 391q2 2 4 6v2v183q0 3 -4 7l-12 13h-214l-14 -14q-3 -3 -3 -7v-184q0 -4 3 -7l16 -16q2 -2 4 -2h197q4 0 7 3z" />
    <glyph glyph-name="uni003A" unicode=":" horiz-adv-x="193" 
d="M64 0q-5 0 -9.5 3.5t-4.5 8.5v81q0 14 14 14h65q14 0 14 -14v-81q0 -5 -4.5 -8.5t-9.5 -3.5h-65zM64 280q-5 0 -9.5 3.5t-4.5 8.5v81q0 14 14 14h65q14 0 14 -14v-81q0 -5 -4.5 -8.5t-9.5 -3.5h-65z" />
    <glyph glyph-name="uni003B" unicode=";" horiz-adv-x="193" 
d="M68 -100q-4 -3 -8 -3q-5 0 -7.5 3.5t-2.5 7.5v185q0 14 14 14h65q14 0 14 -14v-128q0 -8 -13 -18zM64 280q-5 0 -9.5 3.5t-4.5 8.5v81q0 14 14 14h65q14 0 14 -14v-81q0 -5 -4.5 -8.5t-9.5 -3.5h-65z" />
    <glyph glyph-name="uni003C" unicode="&#x3c;" horiz-adv-x="466" 
d="M52 300q-4 2 -8 4.5t-4 11.5v87q0 2 2 7.5t10 9.5l355 174q4 2 6 2q5 0 9 -4.5t4 -9.5v-80q0 -6 -4.5 -11t-9.5 -7l-267 -124l267 -125q5 -2 9.5 -7t4.5 -11v-79q0 -14 -14 -14z" />
    <glyph glyph-name="uni003D" unicode="=" horiz-adv-x="525" 
d="M57 391q-5 0 -8.5 4.5t-3.5 10.5v65q0 5 3.5 10t8.5 5h408q6 0 10.5 -4.5t4.5 -10.5v-65q0 -6 -4.5 -10.5t-10.5 -4.5h-408zM57 233q-5 0 -8.5 4.5t-3.5 10.5v65q0 5 3.5 10t8.5 5h408q6 0 10.5 -4.5t4.5 -10.5v-65q0 -6 -4.5 -10.5t-10.5 -4.5h-408z" />
    <glyph glyph-name="uni003E" unicode="&#x3e;" horiz-adv-x="466" 
d="M54 124q-1 -1 -4 -1q-10 0 -10 15v79q0 6 4.5 11t9.5 7l267 125l-267 124q-5 2 -9.5 7t-4.5 11v80q0 5 4 9.5t9 4.5q2 0 6 -2l355 -174q8 -4 10 -9.5t2 -7.5v-87q0 -9 -4 -11.5t-8 -4.5z" />
    <glyph glyph-name="uni003F" unicode="?" horiz-adv-x="520" 
d="M284 292v-99q0 -14 -14 -14h-67q-14 0 -14 14v180q0 14 14 14h182v196q0 4 -3 7l-14 14h-220l-14 -14q-3 -3 -3 -7v-90q0 -6 -4.5 -10t-9.5 -4h-67q-14 0 -14 14v115q0 4 1.5 10.5t8.5 13.5l57 56q6 6 12 8t14 2h258q4 0 11 -1t15 -9l57 -56q10 -10 10 -18v-307
q0 -6 -4 -10.5t-10 -4.5h-182zM203 0q-5 0 -9.5 3.5t-4.5 8.5v89q0 14 14 14h67q14 0 14 -14v-89q0 -5 -4.5 -8.5t-9.5 -3.5h-67z" />
    <glyph glyph-name="uni0040" unicode="@" horiz-adv-x="619" 
d="M560 227q0 -5 -5 -12l-25 -25q-2 -2 -6 -4q-2 0 -3 -0.5t-3 -0.5h-243q-2 0 -3 0.5t-3 0.5l-3 1.5t-3 2.5l-25 25q-5 7 -5 12v254q0 2 2 6l1.5 3l1.5 3l25 25q3 2 7 4q1 1 5 1h199v89h-298q-3 0 -8 -3l-21 -19q-3 -4 -3 -10v-459q0 -3 3 -8l17 -17h385q11 0 11 -12v-72
q0 -12 -11 -12h-430q-10 0 -19 7l-38 39q-5 6 -7 10q0 2 -0.5 4t-0.5 5v569q0 2 0.5 3.5t0.5 4.5q2 5 7 9l38 39q8 8 18 8h377q10 0 17 -8l39 -39q2 -2 5.5 -8t3.5 -10v-406zM474 429h-136q-3 0 -5 -3l-12 -11q-2 -2 -2 -6v-114q0 -3 2 -5l10 -9h143v148z" />
    <glyph glyph-name="uni0041" unicode="A" horiz-adv-x="563" 
d="M477 0q-5 0 -10.5 4.5t-7.5 9.5l-48 162h-258l-48 -160q-5 -16 -19 -16h-60q-6 0 -11.5 4.5t-3.5 9.5l198 669q2 7 5 10.5t9 3.5h118q6 0 9 -3.5t5 -10.5l197 -669q2 -5 -3 -9.5t-11 -4.5h-61zM282 614l-102 -344h204z" />
    <glyph glyph-name="uni0042" unicode="B" horiz-adv-x="529" 
d="M413 11q-11 -11 -26 -11h-317q-14 0 -14 14v670q0 14 14 14h317q8 0 14 -2t12 -8l56 -56q9 -10 10 -16.5t1 -9.5v-183q0 -7 -1.5 -12.5t-9.5 -13.5l-39 -39l39 -40q8 -8 9.5 -13t1.5 -13v-200q0 -14 -11 -25zM382 121q5 5 5 11v128q0 3 -1 7t-4 7l-25 25l-7 4h-201v-210
h204zM382 426q5 5 5 10v129q0 5 -1.5 7t-3.5 5l-25 26q-2 2 -6 2h-202v-209h198q5 0 10 5z" />
    <glyph glyph-name="uni0043" unicode="C" horiz-adv-x="533" 
d="M427 11q-5 -5 -9.5 -8t-15.5 -3h-257q-16 0 -27 11l-56 56q-8 8 -10 17q-1 4 -1 8v514q0 4 1 8q2 9 10 17l56 57q10 10 25 10h259q15 0 25 -10l57 -56q10 -10 10 -26v-107q0 -14 -14 -14h-65q-14 0 -14 14v69q0 5 -4 9l-24 25q-2 2 -4 3h-192q-2 0 -4 -2l-25 -26
q-2 -2 -4 -6v-442l4 -7l25 -25l7 -4h185l7 4l25 25l4 7v68q0 14 14 14h65q14 0 14 -14v-106q0 -3 -1.5 -10t-9.5 -14z" />
    <glyph glyph-name="uni0044" unicode="D" horiz-adv-x="531" 
d="M413 11q-6 -6 -10.5 -8.5t-15.5 -2.5h-317q-14 0 -14 14v670q0 14 14 14h317q6 0 12.5 -1.5t13.5 -8.5l56 -56q6 -6 8.5 -11.5t2.5 -14.5v-514q0 -4 -1.5 -10.5t-9.5 -14.5zM382 122q3 3 4 4.5t1 6.5v434q0 3 -5 10l-25 26q-2 2 -5 2h-203v-512h201l7 4z" />
    <glyph glyph-name="uni0045" unicode="E" horiz-adv-x="475" 
d="M70 0q-14 0 -14 14v670q0 14 14 14h363q5 0 9.5 -4t4.5 -10v-65q0 -6 -4.5 -10t-9.5 -4h-284v-209h224q14 0 14 -14v-65q0 -14 -14 -14h-224v-210h284q5 0 9.5 -4t4.5 -10v-65q0 -6 -4.5 -10t-9.5 -4h-363z" />
    <glyph glyph-name="uni0046" unicode="F" horiz-adv-x="475" 
d="M70 0q-14 0 -14 14v670q0 14 14 14h363q5 0 9.5 -4t4.5 -10v-65q0 -5 -1.5 -9.5t-6.5 -4.5h-290v-209h239q5 0 9.5 -4t4.5 -10v-65q0 -6 -4.5 -10t-9.5 -4h-239v-289q0 -14 -14 -14h-65z" />
    <glyph glyph-name="uni0047" unicode="G" 
d="M427 11q-11 -11 -25 -11h-258q-15 0 -26 11l-56 56q-8 8 -9.5 12t-1.5 13v514q0 14 11 25l56 57q8 8 15.5 9t9.5 1h259q6 0 12.5 -2t12.5 -8l57 -56q10 -10 10 -26v-107q0 -14 -14 -14h-65q-14 0 -14 14v79l-27 27h-194q-4 0 -6 -2l-25 -26q-5 -5 -5 -10v-434q0 -6 5 -11
l25 -25q4 -4 10 -4h184q4 0 8 4l25 25v160h-119q-6 0 -10 4.5t-4 9.5v65q0 14 14 14h198q14 0 14 -14v-276q0 -9 -11 -18z" />
    <glyph glyph-name="uni0048" unicode="H" horiz-adv-x="555" 
d="M420 0q-14 0 -14 14v269h-257v-269q0 -14 -14 -14h-65q-14 0 -14 14v670q0 14 14 14h65q14 0 14 -14v-308h257v308q0 14 14 14h65q14 0 14 -14v-670q0 -14 -14 -14h-65z" />
    <glyph glyph-name="uni0049" unicode="I" horiz-adv-x="205" 
d="M70 0q-14 0 -14 14v669q0 6 4 10.5t10 4.5h65q6 0 10 -4.5t4 -10.5v-669q0 -14 -14 -14h-65z" />
    <glyph glyph-name="uni004A" unicode="J" horiz-adv-x="505" 
d="M386 11q-11 -11 -26 -11h-232q-14 0 -25 11l-56 56q-11 9 -11 18v157q0 14 14 14h65q14 0 14 -14v-113l4 -7l25 -25l7 -4h162q3 0 7 4l25 25v564q0 5 4.5 8.5t9.5 3.5h65q5 0 9.5 -3.5t4.5 -8.5v-594q0 -15 -10 -25z" />
    <glyph glyph-name="uni004B" unicode="K" horiz-adv-x="496" 
d="M404 0q-6 0 -11 4.5t-7 9.5l-156 350l-81 -103v-247q0 -14 -14 -14h-65q-14 0 -14 14v670q0 14 14 14h65q14 0 14 -14v-282l218 286q7 10 18 10h83q6 0 9.5 -4.5t-0.5 -9.5l-182 -234l194 -436q2 -5 -2 -9.5t-10 -4.5h-73z" />
    <glyph glyph-name="uni004C" unicode="L" horiz-adv-x="479" 
d="M70 0q-14 0 -14 14v672q0 5 4.5 8.5t9.5 3.5h65q5 0 9.5 -3.5t4.5 -8.5v-593h294q14 0 14 -14v-65q0 -14 -14 -14h-373z" />
    <glyph glyph-name="uni004D" unicode="M" horiz-adv-x="652" 
d="M533 0q-6 0 -10.5 4t-4.5 10l-6 430l-132 -428q-2 -5 -8 -10.5t-11 -5.5h-53q-6 0 -11.5 4.5t-7.5 10.5l-149 446l-7 -447q0 -14 -14 -14h-65q-14 0 -14 14l27 669q0 5 3.5 10t9.5 5h71q10 0 15 -14l131 -439l33 -102l24 102l132 439q5 14 15 14h71q5 0 9 -5t4 -10
l27 -669q0 -6 -4.5 -10t-9.5 -4h-65z" />
    <glyph glyph-name="uni004E" unicode="N" horiz-adv-x="544" 
d="M400 0q-6 0 -10 4t-6 9l-235 514v-513q0 -14 -14 -14h-65q-14 0 -14 14v670q0 14 14 14h95q6 0 9 -3.5t6 -10.5l214 -479v479q0 6 4.5 10t9.5 4h65q6 0 10.5 -4t4.5 -10v-670q0 -6 -4.5 -10t-10.5 -4h-73z" />
    <glyph glyph-name="uni004F" unicode="O" 
d="M427 11q-5 -5 -10.5 -8t-14.5 -3h-259q-9 0 -14.5 3t-10.5 8l-56 56q-7 7 -9 13.5t-2 12.5v513q0 16 10 26l57 56q6 6 11.5 8t12.5 2h260q6 0 12 -1.5t13 -8.5l57 -56q8 -8 9 -15.5t1 -12.5v-507q0 -19 -11 -30zM399 121q2 2 2 5v451l-25 25q-3 3 -7 3h-193q-4 0 -7 -3
l-25 -25v-451q0 -3 2 -5l24 -24q4 -4 8 -4h187q6 0 10 4z" />
    <glyph glyph-name="uni0050" unicode="P" horiz-adv-x="523" 
d="M413 268q-7 -7 -13 -9t-13 -2h-238v-243q0 -14 -14 -14h-65q-14 0 -14 14v670q0 14 14 14h317q5 0 12 -1.5t14 -8.5l56 -56q11 -11 11 -27v-256q0 -14 -11 -25zM387 386v182q0 5 -4 9l-26 26q-2 2 -7 2h-201v-255h202q4 2 6 4l26 25z" />
    <glyph glyph-name="uni0051" unicode="Q" horiz-adv-x="538" 
d="M426 -63q-5 0 -8.5 3t-9.5 11l-37 49h-230q-9 0 -14.5 3t-10.5 8l-56 56q-7 7 -9 13.5t-2 12.5v513q0 16 10 26l57 56q6 6 13 8t12 2h256q5 0 12 -2t13 -8l57 -56q8 -8 9 -15.5t1 -12.5v-507q0 -19 -11 -30l-30 -30l54 -86q3 -5 -1 -9.5t-13 -4.5h-62zM394 121q2 2 2 5
v451l-25 25q-3 3 -7 3h-190q-4 0 -7 -3l-25 -25v-451q0 -3 2 -5l24 -24q4 -4 8 -4h184q6 0 10 4z" />
    <glyph glyph-name="uni0052" unicode="R" horiz-adv-x="527" 
d="M429 0q-5 0 -10.5 4.5t-7.5 9.5l-98 243h-164v-243q0 -14 -14 -14h-65q-14 0 -14 14v670q0 14 14 14h317q9 0 14 -1.5t12 -8.5l56 -56q4 -4 7.5 -11t3.5 -15v-254q0 -5 -1.5 -12.5t-9.5 -15.5l-60 -60l101 -250q2 -5 -1 -9.5t-11 -4.5h-69zM383 378q4 4 4 8v182q0 5 -4 9
l-24 24q-4 4 -9 4h-201v-255h202q3 0 6 3z" />
    <glyph glyph-name="uni0053" unicode="S" horiz-adv-x="541" 
d="M425 11q-11 -11 -25 -11h-258q-15 0 -26 11l-56 56q-8 8 -9.5 13.5t-1.5 11.5v99q0 14 14 14h65q14 0 14 -14v-59q0 -5 5 -10l25 -25q4 -4 9 -4h183q4 0 8 4l25 24q2 2 2 5v147l-30 29h-230q-5 0 -10.5 2t-12.5 9l-56 56q-9 9 -10 14.5t-1 10.5v212q0 14 11 25l56 57
q5 5 9.5 7.5t15.5 2.5h259q2 0 9.5 -1t15.5 -9l57 -56q5 -5 7.5 -10.5t2.5 -15.5v-105q0 -14 -14 -14h-65q-14 0 -14 14v67q0 5 -4 9l-25 26q-2 2 -4 2h-192q-3 0 -5 -2l-24 -25q-3 -3 -3 -8v-139q0 -4 4 -8l23 -23q5 -5 11 -5h221q5 0 10.5 -1.5t13.5 -9.5l57 -56
q10 -10 10 -26v-209q0 -2 -1 -9.5t-10 -16.5z" />
    <glyph glyph-name="uni0054" unicode="T" horiz-adv-x="472" 
d="M201 0q-5 0 -8.5 3.5t-3.5 8.5v592h-153q-6 0 -10 4.5t-4 9.5v65q0 6 4 10.5t10 4.5h400q6 0 10 -4.5t4 -10.5v-65q0 -5 -4 -9.5t-10 -4.5h-153v-592q0 -5 -3.5 -8.5t-8.5 -3.5h-70z" />
    <glyph glyph-name="uni0055" unicode="U" horiz-adv-x="549" 
d="M429 11q-5 -5 -11 -8t-14 -3h-258q-10 0 -15.5 3t-10.5 8l-56 56q-11 11 -11 26v591q0 5 4 9.5t10 4.5h65q6 0 10 -4.5t4 -9.5v-555l4 -7l26 -25q4 -4 9 -4h179q8 0 12 4l25 25q2 2 2 4v558q0 5 4 9.5t10 4.5h65q6 0 10 -4.5t4 -9.5v-592q0 -14 -11 -25z" />
    <glyph glyph-name="uni0056" unicode="V" horiz-adv-x="484" 
d="M203 0q-6 0 -11.5 4.5t-7.5 11.5l-173 663q-2 6 2 12.5t10 6.5h71q12 0 15 -14l90 -359l43 -187l43 187l90 359q3 14 15 14h71q6 0 10 -6.5t2 -12.5l-173 -663q-4 -16 -19 -16h-78z" />
    <glyph glyph-name="uni0057" unicode="W" horiz-adv-x="640" 
d="M441 0q-10 0 -14 14l-79 225l-28 93l-29 -93l-78 -225q-4 -14 -15 -14h-98q-5 0 -9 4.5t-4 9.5l-53 669q0 6 4 10.5t10 4.5h65q6 0 10 -4.5t4 -10.5l35 -534l2 -14l106 334q5 14 16 14h68q10 0 15 -14l106 -334l2 14l35 534q0 6 4.5 10.5t10.5 4.5h65q5 0 10 -4.5
t4 -12.5l-54 -667q0 -5 -3.5 -9.5t-8.5 -4.5h-99z" />
    <glyph glyph-name="uni0058" unicode="X" horiz-adv-x="479" 
d="M378 0q-6 0 -9 4t-6 10l-124 249l-124 -249q-3 -6 -6 -10t-9 -4h-71q-6 0 -11.5 4.5t-2.5 9.5l173 347l-165 318q-4 8 0.5 13.5t11.5 5.5h75q6 0 11 -4.5t8 -10.5l110 -220l110 220q3 6 8 10.5t11 4.5h75q7 0 11.5 -5.5t0.5 -13.5l-165 -318l173 -347q3 -5 -2.5 -9.5
t-11.5 -4.5h-71z" />
    <glyph glyph-name="uni0059" unicode="Y" horiz-adv-x="531" 
d="M231 0q-12 0 -12 14v283l-212 383q-5 8 -1 13t15 5h75q6 0 9.5 -3.5t7.5 -9.5l153 -280l153 280q4 6 7.5 9.5t9.5 3.5h75q11 0 15 -5t-1 -13l-213 -384v-282q0 -14 -11 -14h-70z" />
    <glyph glyph-name="uni005A" unicode="Z" horiz-adv-x="498" 
d="M49 0q-14 0 -14 14v67q0 5 3 9l308 514h-297q-6 0 -10 4.5t-4 10.5v64q0 6 4 10.5t10 4.5h400q6 0 10 -4.5t4 -10.5v-61q0 -6 -5 -14l-309 -515h300q14 0 14 -14v-65q0 -14 -14 -14h-400z" />
    <glyph glyph-name="uni005C" unicode="\" horiz-adv-x="493" 
d="M376 0q-6 0 -11 4.5t-8 9.5l-336 670q-2 5 1.5 9.5t8.5 4.5h83q5 0 8 -4t6 -10l341 -664q4 -7 1.5 -13.5t-13.5 -6.5h-81z" />
    <glyph glyph-name="uni005E" unicode="^" horiz-adv-x="569" 
d="M434 311q-6 0 -11 4.5t-7 9.5l-132 284l-132 -284q-2 -5 -7 -9.5t-11 -4.5h-89q-6 0 -9.5 4.5t0.5 12.5l175 358q2 5 5 8.5t11 3.5h113q2 0 7.5 -2t9.5 -10l175 -358q4 -8 0.5 -12.5t-9.5 -4.5h-89z" />
    <glyph glyph-name="uni0060" unicode="`" horiz-adv-x="279" 
d="M173 864q-7 6 -1 15l29 36q4 4 8 4l6 -2l114 -95q4 -3 4 -7q0 -3 -2 -7l-29 -37q-4 -4 -9 -4q-3 0 -6 3z" />
    <glyph glyph-name="uni0061" unicode="a" horiz-adv-x="563" 
d="M477 0q-5 0 -10.5 4.5t-7.5 9.5l-48 162h-258l-48 -160q-5 -16 -19 -16h-60q-6 0 -11.5 4.5t-3.5 9.5l198 669q2 7 5 10.5t9 3.5h118q6 0 9 -3.5t5 -10.5l197 -669q2 -5 -3 -9.5t-11 -4.5h-61zM282 614l-102 -344h204z" />
    <glyph glyph-name="uni0062" unicode="b" horiz-adv-x="529" 
d="M413 11q-11 -11 -26 -11h-317q-14 0 -14 14v670q0 14 14 14h317q8 0 14 -2t12 -8l56 -56q9 -10 10 -16.5t1 -9.5v-183q0 -7 -1.5 -12.5t-9.5 -13.5l-39 -39l39 -40q8 -8 9.5 -13t1.5 -13v-200q0 -14 -11 -25zM382 121q5 5 5 11v128q0 3 -1 7t-4 7l-25 25l-7 4h-201v-210
h204zM382 426q5 5 5 10v129q0 5 -1.5 7t-3.5 5l-25 26q-2 2 -6 2h-202v-209h198q5 0 10 5z" />
    <glyph glyph-name="uni0063" unicode="c" horiz-adv-x="533" 
d="M427 11q-5 -5 -9.5 -8t-15.5 -3h-257q-16 0 -27 11l-56 56q-8 8 -10 17q-1 4 -1 8v514q0 4 1 8q2 9 10 17l56 57q10 10 25 10h259q15 0 25 -10l57 -56q10 -10 10 -26v-107q0 -14 -14 -14h-65q-14 0 -14 14v69q0 5 -4 9l-24 25q-2 2 -4 3h-192q-2 0 -4 -2l-25 -26
q-2 -2 -4 -6v-442l4 -7l25 -25l7 -4h185l7 4l25 25l4 7v68q0 14 14 14h65q14 0 14 -14v-106q0 -3 -1.5 -10t-9.5 -14z" />
    <glyph glyph-name="uni0064" unicode="d" horiz-adv-x="531" 
d="M413 11q-6 -6 -10.5 -8.5t-15.5 -2.5h-317q-14 0 -14 14v670q0 14 14 14h317q6 0 12.5 -1.5t13.5 -8.5l56 -56q6 -6 8.5 -11.5t2.5 -14.5v-514q0 -4 -1.5 -10.5t-9.5 -14.5zM382 122q3 3 4 4.5t1 6.5v434q0 3 -5 10l-25 26q-2 2 -5 2h-203v-512h201l7 4z" />
    <glyph glyph-name="uni0065" unicode="e" horiz-adv-x="475" 
d="M70 0q-14 0 -14 14v670q0 14 14 14h363q5 0 9.5 -4t4.5 -10v-65q0 -6 -4.5 -10t-9.5 -4h-284v-209h224q14 0 14 -14v-65q0 -14 -14 -14h-224v-210h284q5 0 9.5 -4t4.5 -10v-65q0 -6 -4.5 -10t-9.5 -4h-363z" />
    <glyph glyph-name="uni0066" unicode="f" horiz-adv-x="475" 
d="M70 0q-14 0 -14 14v670q0 14 14 14h363q5 0 9.5 -4t4.5 -10v-65q0 -5 -1.5 -9.5t-6.5 -4.5h-290v-209h239q5 0 9.5 -4t4.5 -10v-65q0 -6 -4.5 -10t-9.5 -4h-239v-289q0 -14 -14 -14h-65z" />
    <glyph glyph-name="uni0067" unicode="g" 
d="M427 11q-11 -11 -25 -11h-258q-15 0 -26 11l-56 56q-8 8 -9.5 12t-1.5 13v514q0 14 11 25l56 57q8 8 15.5 9t9.5 1h259q6 0 12.5 -2t12.5 -8l57 -56q10 -10 10 -26v-107q0 -14 -14 -14h-65q-14 0 -14 14v79l-27 27h-194q-4 0 -6 -2l-25 -26q-5 -5 -5 -10v-434q0 -6 5 -11
l25 -25q4 -4 10 -4h184q4 0 8 4l25 25v160h-119q-6 0 -10 4.5t-4 9.5v65q0 14 14 14h198q14 0 14 -14v-276q0 -9 -11 -18z" />
    <glyph glyph-name="uni0068" unicode="h" horiz-adv-x="555" 
d="M420 0q-14 0 -14 14v269h-257v-269q0 -14 -14 -14h-65q-14 0 -14 14v670q0 14 14 14h65q14 0 14 -14v-308h257v308q0 14 14 14h65q14 0 14 -14v-670q0 -14 -14 -14h-65z" />
    <glyph glyph-name="uni0069" unicode="i" horiz-adv-x="205" 
d="M70 0q-14 0 -14 14v669q0 6 4 10.5t10 4.5h65q6 0 10 -4.5t4 -10.5v-669q0 -14 -14 -14h-65z" />
    <glyph glyph-name="uni006A" unicode="j" horiz-adv-x="507" 
d="M388 11q-11 -11 -26 -11h-232q-14 0 -25 11l-56 56q-11 9 -11 18v157q0 14 14 14h65q14 0 14 -14v-113l4 -7l25 -25l7 -4h162q3 0 7 4l25 25v564q0 5 4.5 8.5t9.5 3.5h65q5 0 9.5 -3.5t4.5 -8.5v-594q0 -15 -10 -25z" />
    <glyph glyph-name="uni006B" unicode="k" horiz-adv-x="496" 
d="M404 0q-6 0 -11 4.5t-7 9.5l-156 350l-81 -103v-247q0 -14 -14 -14h-65q-14 0 -14 14v670q0 14 14 14h65q14 0 14 -14v-282l218 286q7 10 18 10h83q6 0 9.5 -4.5t-0.5 -9.5l-182 -234l194 -436q2 -5 -2 -9.5t-10 -4.5h-73z" />
    <glyph glyph-name="uni006C" unicode="l" horiz-adv-x="479" 
d="M70 0q-14 0 -14 14v672q0 5 4.5 8.5t9.5 3.5h65q5 0 9.5 -3.5t4.5 -8.5v-593h294q14 0 14 -14v-65q0 -14 -14 -14h-373z" />
    <glyph glyph-name="uni006D" unicode="m" horiz-adv-x="652" 
d="M533 0q-6 0 -10.5 4t-4.5 10l-6 430l-132 -428q-2 -5 -8 -10.5t-11 -5.5h-53q-6 0 -11.5 4.5t-7.5 10.5l-149 446l-7 -447q0 -14 -14 -14h-65q-14 0 -14 14l27 669q0 5 3.5 10t9.5 5h71q10 0 15 -14l131 -439l33 -102l24 102l132 439q5 14 15 14h71q5 0 9 -5t4 -10
l27 -669q0 -6 -4.5 -10t-9.5 -4h-65z" />
    <glyph glyph-name="uni006E" unicode="n" horiz-adv-x="544" 
d="M400 0q-6 0 -10 4t-6 9l-235 514v-513q0 -14 -14 -14h-65q-14 0 -14 14v670q0 14 14 14h95q6 0 9 -3.5t6 -10.5l214 -479v479q0 6 4.5 10t9.5 4h65q6 0 10.5 -4t4.5 -10v-670q0 -6 -4.5 -10t-10.5 -4h-73z" />
    <glyph glyph-name="uni006F" unicode="o" 
d="M427 11q-5 -5 -10.5 -8t-14.5 -3h-259q-9 0 -14.5 3t-10.5 8l-56 56q-7 7 -9 13.5t-2 12.5v513q0 16 10 26l57 56q6 6 11.5 8t12.5 2h260q6 0 12 -1.5t13 -8.5l57 -56q8 -8 9 -15.5t1 -12.5v-507q0 -19 -11 -30zM399 121q2 2 2 5v451l-25 25q-3 3 -7 3h-193q-4 0 -7 -3
l-25 -25v-451q0 -3 2 -5l24 -24q4 -4 8 -4h187q6 0 10 4z" />
    <glyph glyph-name="uni0070" unicode="p" horiz-adv-x="523" 
d="M413 268q-7 -7 -13 -9t-13 -2h-238v-243q0 -14 -14 -14h-65q-14 0 -14 14v670q0 14 14 14h317q5 0 12 -1.5t14 -8.5l56 -56q11 -11 11 -27v-256q0 -14 -11 -25zM387 386v182q0 5 -4 9l-26 26q-2 2 -7 2h-201v-255h202q4 2 6 4l26 25z" />
    <glyph glyph-name="uni0071" unicode="q" horiz-adv-x="538" 
d="M426 -63q-5 0 -8.5 3t-9.5 11l-37 49h-230q-9 0 -14.5 3t-10.5 8l-56 56q-7 7 -9 13.5t-2 12.5v513q0 16 10 26l57 56q6 6 13 8t12 2h256q5 0 12 -2t13 -8l57 -56q8 -8 9 -15.5t1 -12.5v-507q0 -19 -11 -30l-30 -30l54 -86q3 -5 -1 -9.5t-13 -4.5h-62zM394 121q2 2 2 5
v451l-25 25q-3 3 -7 3h-190q-4 0 -7 -3l-25 -25v-451q0 -3 2 -5l24 -24q4 -4 8 -4h184q6 0 10 4z" />
    <glyph glyph-name="uni0072" unicode="r" horiz-adv-x="527" 
d="M429 0q-5 0 -10.5 4.5t-7.5 9.5l-98 243h-164v-243q0 -14 -14 -14h-65q-14 0 -14 14v670q0 14 14 14h317q9 0 14 -1.5t12 -8.5l56 -56q4 -4 7.5 -11t3.5 -15v-254q0 -5 -1.5 -12.5t-9.5 -15.5l-60 -60l101 -250q2 -5 -1 -9.5t-11 -4.5h-69zM383 378q4 4 4 8v182q0 5 -4 9
l-24 24q-4 4 -9 4h-201v-255h202q3 0 6 3z" />
    <glyph glyph-name="uni0073" unicode="s" horiz-adv-x="541" 
d="M425 11q-11 -11 -25 -11h-258q-15 0 -26 11l-56 56q-8 8 -9.5 13.5t-1.5 11.5v99q0 14 14 14h65q14 0 14 -14v-59q0 -5 5 -10l25 -25q4 -4 9 -4h183q4 0 8 4l25 24q2 2 2 5v147l-30 29h-230q-5 0 -10.5 2t-12.5 9l-56 56q-9 9 -10 14.5t-1 10.5v212q0 14 11 25l56 57
q5 5 9.5 7.5t15.5 2.5h259q2 0 9.5 -1t15.5 -9l57 -56q5 -5 7.5 -10.5t2.5 -15.5v-105q0 -14 -14 -14h-65q-14 0 -14 14v67q0 5 -4 9l-25 26q-2 2 -4 2h-192q-3 0 -5 -2l-24 -25q-3 -3 -3 -8v-139q0 -4 4 -8l23 -23q5 -5 11 -5h221q5 0 10.5 -1.5t13.5 -9.5l57 -56
q10 -10 10 -26v-209q0 -2 -1 -9.5t-10 -16.5z" />
    <glyph glyph-name="uni0074" unicode="t" horiz-adv-x="472" 
d="M201 0q-5 0 -8.5 3.5t-3.5 8.5v592h-153q-6 0 -10 4.5t-4 9.5v65q0 6 4 10.5t10 4.5h400q6 0 10 -4.5t4 -10.5v-65q0 -5 -4 -9.5t-10 -4.5h-153v-592q0 -5 -3.5 -8.5t-8.5 -3.5h-70z" />
    <glyph glyph-name="uni0075" unicode="u" horiz-adv-x="549" 
d="M429 11q-5 -5 -11 -8t-14 -3h-258q-10 0 -15.5 3t-10.5 8l-56 56q-11 11 -11 26v591q0 5 4 9.5t10 4.5h65q6 0 10 -4.5t4 -9.5v-555l4 -7l26 -25q4 -4 9 -4h179q8 0 12 4l25 25q2 2 2 4v558q0 5 4 9.5t10 4.5h65q6 0 10 -4.5t4 -9.5v-592q0 -14 -11 -25z" />
    <glyph glyph-name="uni0076" unicode="v" horiz-adv-x="485" 
d="M203 0q-6 0 -11.5 4.5t-7.5 11.5l-173 663q-2 6 2 12.5t10 6.5h71q12 0 15 -14l90 -359l43 -187l43 187l90 359q3 14 15 14h71q6 0 10 -6.5t2 -12.5l-173 -663q-4 -16 -19 -16h-78z" />
    <glyph glyph-name="uni0077" unicode="w" horiz-adv-x="636" 
d="M439 0q-10 0 -14 14l-79 225l-28 93l-29 -93l-78 -225q-4 -14 -15 -14h-98q-5 0 -9 4.5t-4 9.5l-53 669q0 6 4 10.5t10 4.5h65q6 0 10 -4.5t4 -10.5l35 -534l2 -14l106 334q5 14 16 14h68q10 0 15 -14l106 -334l2 14l35 534q0 6 4.5 10.5t10.5 4.5h65q5 0 10 -4.5
t4 -12.5l-54 -667q0 -5 -3.5 -9.5t-8.5 -4.5h-99z" />
    <glyph glyph-name="uni0078" unicode="x" horiz-adv-x="479" 
d="M378 0q-6 0 -9 4t-6 10l-124 249l-124 -249q-3 -6 -6 -10t-9 -4h-71q-6 0 -11.5 4.5t-2.5 9.5l173 347l-165 318q-4 8 0.5 13.5t11.5 5.5h75q6 0 11 -4.5t8 -10.5l110 -220l110 220q3 6 8 10.5t11 4.5h75q7 0 11.5 -5.5t0.5 -13.5l-165 -318l173 -347q3 -5 -2.5 -9.5
t-11.5 -4.5h-71z" />
    <glyph glyph-name="uni0079" unicode="y" horiz-adv-x="531" 
d="M231 0q-12 0 -12 14v283l-212 383q-5 8 -1 13t15 5h75q6 0 9.5 -3.5t7.5 -9.5l153 -280l153 280q4 6 7.5 9.5t9.5 3.5h75q11 0 15 -5t-1 -13l-213 -384v-282q0 -14 -11 -14h-70z" />
    <glyph glyph-name="uni007A" unicode="z" horiz-adv-x="498" 
d="M49 0q-14 0 -14 14v67q0 5 3 9l308 514h-297q-6 0 -10 4.5t-4 10.5v64q0 6 4 10.5t10 4.5h400q6 0 10 -4.5t4 -10.5v-61q0 -6 -5 -14l-309 -515h300q14 0 14 -14v-65q0 -14 -14 -14h-400z" />
    <glyph glyph-name="uni007C" unicode="|" horiz-adv-x="223" 
d="M79 0q-14 0 -14 14v669q0 6 4 10.5t10 4.5h65q6 0 10 -4.5t4 -10.5v-669q0 -14 -14 -14h-65z" />
    <glyph glyph-name="uni00A0" unicode="&#xa0;" horiz-adv-x="240" 
 />
    <glyph glyph-name="uni00A1" unicode="&#xa1;" horiz-adv-x="194" 
d="M130.004 461.014q5 0 9.49902 -3.5q4.5 -3.49902 4.5 -8.49902v-434.974q0 -13.999 -13.999 -13.999h-65.9961q-13.999 0 -13.999 13.999v434.974q0 5 4.5 8.49902q4.49902 3.5 9.49902 3.5h65.9961zM130.004 688q5 0 9.49902 -3.5q4.5 -3.5 4.5 -8.49902v-81.9951
q0 -13.999 -13.999 -13.999h-65.9961q-13.999 0 -13.999 13.999v81.9951q0 4.99902 4.5 8.49902q4.49902 3.5 9.49902 3.5h65.9961z" />
    <glyph glyph-name="uni00A3" unicode="&#xa3;" horiz-adv-x="445" 
d="M341 485q-14 0 -14 14v68q0 6 -4 9l-24 25q-2 2 -4 3h-87q-2 0 -4 -2l-25 -26q-3 -3 -4 -6v-226h151q10 0 10 -10v-70q0 -10 -10 -10h-151v-160h235q9 0 9 -8v-76q0 -7 -8 -9h-375q-10 0 -10 10v74q0 10 10 10h24l20 19q2 4 3 7v2v0v131h-46q-10 0 -10 10v70q0 10 10 10
h46v261q0 5 1 8q2 10 10 17l55 57q12 10 25 10h154q13 0 25 -10l57 -56q10 -12 10 -26v-106q0 -14 -14 -14h-65z" />
    <glyph glyph-name="uni00A8" unicode="&#xa8;" horiz-adv-x="385" 
d="M324 764q-7 0 -12 5t-5 12v57q0 7 5 11.5t12 4.5h46q7 0 11 -4q6 -5 6 -12v-57q0 -17 -17 -17h-46zM148 764q-17 0 -17 17v57q0 7 5 11.5t12 4.5h46q7 0 11 -4q6 -5 6 -12v-57q0 -17 -17 -17h-46z" />
    <glyph glyph-name="uni00AB" unicode="&#xab;" horiz-adv-x="543" 
d="M14 273q0 8 4 13l139 175q3 4 8 4q4 0 8 -3l46 -38q5 -3 5 -9q0 -4 -3 -7l-107 -135l107 -136q3 -3 3 -7q0 -6 -5 -9l-46 -38q-4 -3 -8 -3t-8 4l-139 177q-4 5 -4 12zM200 273q0 6 5 13l139 175q3 4 8 4q4 0 7 -3l47 -38q4 -3 4 -9q0 -3 -2 -7l-108 -135l108 -136
q2 -4 2 -7q0 -6 -4 -9l-47 -38q-3 -3 -7 -3t-8 4l-139 177q-5 7 -5 12z" />
    <glyph glyph-name="uni00B4" unicode="&#xb4;" horiz-adv-x="164" 
d="M162 863l-114 -94q-3 -3 -6 -3q-5 0 -9 4l-29 37q-3 3 -2.5 7.5t3.5 6.5l114 95q4 2 7 2q5 0 8 -4l29 -36q6 -8 -1 -15z" />
    <glyph glyph-name="uni00B8" unicode="&#xb8;" horiz-adv-x="252" 
d="M399 15v-112q0 -32 -22.5 -54.5t-54.5 -22.5h-98q-32 0 -54.5 22.5t-22.5 54.5v50q0 6 4.5 10.5t10.5 4.5h50q7 0 11 -4.5t4 -10.5v-46h92v108h80z" />
    <glyph glyph-name="uni00BB" unicode="&#xbb;" horiz-adv-x="543" 
d="M516 272q0 -7 -5 -12l-139 -176q-4 -4 -7 -4q-5 0 -8 3l-47 38q-4 3 -4 9q0 3 2 7l108 135l-108 136q-2 4 -2 7q0 6 4 9l47 38q3 3 8 3q4 0 7 -4l139 -177q5 -5 5 -12zM329 272q0 -6 -4 -12l-139 -176q-6 -4 -8 -4q-5 0 -8 3l-47 38q-4 4 -4 9q0 4 3 7l107 135l-107 136
q-3 3 -3 7q0 5 4 9l47 38q3 3 8 3q4 0 8 -4l139 -177q4 -6 4 -12z" />
    <glyph glyph-name="uni00BF" unicode="&#xbf;" horiz-adv-x="520" 
d="M232.018 406.018v98.9941q0 13.999 13.999 13.999h66.9961q13.999 0 13.999 -13.999v-179.989q0 -13.999 -13.999 -13.999h-181.989v-195.988q0 -3.99902 3 -6.99902l13.999 -13.999h219.986l13.999 13.999q3 3 3 6.99902v89.9951q0 5.99902 4.5 9.99902t9.49902 4
h66.9961q13.999 0 13.999 -13.999v-114.993q0 -4 -1.5 -10.499q-1.5 -6.5 -8.49902 -13.499l-56.9971 -55.9971q-5.99902 -6 -11.999 -7.99902q-5.99902 -2 -13.999 -2h-257.984q-4 0 -10.999 1q-7 1 -14.999 8.99902l-56.9971 55.9971q-9.99902 9.99902 -9.99902 17.998
v306.981q0 6 4 10.5q4 4.49902 9.99902 4.49902h181.989zM313.013 698q4.99902 0 9.49902 -3.5t4.5 -8.49902v-88.9951q0 -13.999 -13.999 -13.999h-66.9961q-13.999 0 -13.999 13.999v88.9951q0 4.99902 4.49902 8.49902q4.5 3.5 9.5 3.5h66.9961z" />
    <glyph glyph-name="uni00C0" unicode="&#xc0;" horiz-adv-x="563" 
d="M477 0q-4 0 -11 5q-6 6 -7 9l-48 162h-258l-48 -160q-6 -16 -19 -16h-60q-5 0 -12 5q-6 5 -3 9l198 670q2 5 5 9.5t9 4.5h118q5 0 9 -4q2 -2 2.5 -4.5t2.5 -5.5l197 -670q2 -4 -3 -9q-7 -5 -11 -5h-61zM282 615l-102 -345h204zM287 770q3 -3 6 -3q6 0 9 4l29 37q2 2 2 7
q0 4 -4 7l-114 95q-4 2 -6 2q-4 0 -8 -4l-29 -36q-6 -8 1 -15z" />
    <glyph glyph-name="uni00C1" unicode="&#xc1;" horiz-adv-x="563" 
d="M477 0q-5 0 -10.5 4.5t-7.5 9.5l-48 162h-258l-48 -160q-5 -16 -19 -16h-60q-6 0 -11.5 4.5t-3.5 9.5l198 669q2 7 5 10.5t9 3.5h118q6 0 9 -3.5t5 -10.5l197 -669q2 -5 -3 -9.5t-11 -4.5h-61zM282 614l-102 -344h204zM387 863q7 7 1 15l-29 36q-3 4 -8 4q-2 0 -6 -2
l-114 -95q-4 -2 -4 -6.5t2 -7.5l29 -37q4 -4 9 -4q3 0 6 3z" />
    <glyph glyph-name="uni00C2" unicode="&#xc2;" horiz-adv-x="676" 
d="M478 0q-13 0 -18 14l-48 162h-259l-48 -160q-4 -16 -19 -16h-60q-6 0 -11 4q-6 4 -4 10l198 669q2 4 2.5 6.5t2.5 4.5q3 3 10 3h118q6 0 9 -3q2 -2 5 -11l197 -669q2 -5 -3 -10q-5 -4 -11 -4h-61zM283 614l-103 -344h205zM282 909q5 0 9 -3l120 -95q3 -1 3 -5q0 -2 -2 -6
l-28 -33q-1 -3 -6 -3q-4 0 -5 1l-91 72l-91 -72q-1 -1 -5 -1t-6 3l-28 33q-2 4 -2 6q0 4 3 5l120 95q5 3 9 3z" />
    <glyph glyph-name="uni00C3" unicode="&#xc3;" horiz-adv-x="563" 
d="M478 1q-4 0 -11 5q-6 6 -7 9l-48 162h-258l-48 -160q-6 -16 -19 -16h-60q-5 0 -12 5q-5 5 -3 9l198 669q2 6 4.5 10t9.5 4h118q11 0 14 -14l197 -669q2 -4 -3 -9t-11 -5h-61zM283 615l-102 -344h204zM332 848q1 0 2 1h4q6 0 14 3.5t13 7.5q8 5 14 15q4 4 6 4h52q9 0 7 -9
q-2 -5 -3 -9.5t-3 -9.5l-4 -10t-5 -10q-14 -26 -39.5 -41t-55.5 -15q-23 0 -35 4q-6 2 -12 3.5t-11 3.5q-20 10 -44 10q-3 0 -6 -1q-5 0 -13 -3q-4 -1 -7 -3t-8 -4q-7 -6 -13 -16q-3 -4 -7 -4h-49q-4 0 -7 3q-2 4 -1 6q5 18 14 36t23 32q17 15 32.5 21t38.5 6t36 -3l12 -4
t11 -4q20 -10 44 -10z" />
    <glyph glyph-name="uni00C4" unicode="&#xc4;" horiz-adv-x="563" 
d="M552 14q2 -4 -3 -9q-7 -5 -11 -5h-61q-4 0 -11 5q-6 6 -7 9l-48 162h-258l-48 -160q-6 -16 -19 -16h-60q-5 0 -12 5q-6 5 -3 9l198 670q2 5 5 9.5t9 4.5h118q5 0 9 -4q2 -2 2.5 -4.5t2.5 -5.5zM384 270l-102 345l-102 -345h204zM347 764q-18 0 -18 17v57q0 8 5.5 12
t12.5 4h45q7 0 11 -4q6 -5 6 -12v-57q0 -17 -17 -17h-45zM170 764q-7 0 -12 5t-5 12v57q0 7 5 11.5t12 4.5h46q7 0 11 -4q6 -5 6 -12v-57q0 -17 -17 -17h-46z" />
    <glyph glyph-name="uni00C5" unicode="&#xc5;" horiz-adv-x="563" 
d="M553 14q1 -6 -3 -10q-5 -4 -11 -4h-61q-14 0 -18 14l-48 162h-258l-48 -160q-6 -16 -19 -16h-61q-6 0 -11 4t-4 10l199 669q2 7 5 10q3 4 9 4h118q6 0 9 -4q2 -2 2.5 -4.5t2.5 -5.5zM385 270l-102 344l-102 -344h204zM259 744q-28 0 -47.5 19.5t-19.5 48.5v45
q0 29 19.5 48.5t47.5 19.5h46q28 0 48 -19.5t20 -48.5v-45q0 -29 -20 -48.5t-48 -19.5h-46zM250 812q0 -9 9 -9h46q9 0 9 9v45q0 10 -9 10h-46q-9 0 -9 -10v-45z" />
    <glyph glyph-name="uni00C6" unicode="&#xc6;" horiz-adv-x="786" 
d="M438 605v-209h224q14 0 14 -14v-65q0 -14 -14 -14h-224v-210h284q3 0 9 -4q5 -5 5 -10v-65q0 -7 -5 -10q-4 -4 -9 -4h-363q-14 0 -14 14v162h-200l-48 -160q-6 -16 -19 -16h-60q-7 0 -12 4q-6 4 -3 10l198 669q1 6 5 10q3 4 9 4h137q2 1 7 1h363q5 0 9.5 -4.5t4.5 -9.5
v-65q0 -5 -4.5 -9.5t-9.5 -4.5h-284zM345 270v335h-74l-99 -335h173z" />
    <glyph glyph-name="uni00C7" unicode="&#xc7;" horiz-adv-x="533" 
d="M415 485q-14 0 -14 14v69q0 6 -4 9l-24 25q-1 3 -4 3h-192q-2 0 -4 -2l-25 -26l-4 -6v-442l4 -7l25 -25l7 -4h185l7 4l25 25l4 7v68q0 14 14 14h65q14 0 14 -14v-106q0 -8 -2 -13.5t-9 -10.5l-56 -56q-7 -7 -11 -9t-14 -2h-3v-97q0 -32 -22.5 -54.5t-54.5 -22.5h-97
q-16 0 -30.5 6t-25 16.5t-16.5 24.5t-6 30v50q0 6 4.5 10.5t11.5 4.5h49q7 0 11.5 -4.5t4.5 -10.5v-46h91v93h-174q-14 0 -27 11l-56 56q-7 9 -10 17q0 2 -0.5 4t-0.5 4v514q0 2 0.5 4t0.5 4q4 11 10 17l56 57q10 10 25 10h259q16 0 25 -10l57 -56q10 -9 10 -26v-107
q0 -14 -14 -14h-65z" />
    <glyph glyph-name="uni00C8" unicode="&#xc8;" horiz-adv-x="475" 
d="M70 0q-14 0 -14 14v671q0 14 14 14h363q4 0 10 -4q4 -4 4 -10v-65q0 -7 -4 -10q-4 -4 -10 -4h-284v-210h224q14 0 14 -14v-65q0 -14 -14 -14h-224v-210h284q6 0 10 -4q4 -3 4 -10v-65q0 -6 -4 -10q-6 -4 -10 -4h-363zM274 770q3 -3 6 -3q5 0 9 4l29 37q2 4 2 7q0 4 -4 7
l-114 95l-6 2q-4 0 -8 -4l-29 -36q-6 -9 1 -15z" />
    <glyph glyph-name="uni00C9" unicode="&#xc9;" horiz-adv-x="475" 
d="M70 0q-14 0 -14 14v670q0 14 14 14h363q5 0 9.5 -4t4.5 -10v-65q0 -6 -4.5 -10t-9.5 -4h-284v-209h224q14 0 14 -14v-65q0 -14 -14 -14h-224v-210h284q5 0 9.5 -4t4.5 -10v-65q0 -6 -4.5 -10t-9.5 -4h-363zM333 863q7 7 1 15l-29 36q-3 4 -8 4q-2 0 -6 -2l-114 -95
q-4 -2 -4 -6.5t2 -7.5l29 -37q4 -4 9 -4q3 0 6 3z" />
    <glyph glyph-name="uni00CA" unicode="&#xca;" horiz-adv-x="475" 
d="M70 0q-14 0 -14 14v670q0 14 14 14h363q5 0 9 -4q5 -3 5 -10v-65q0 -5 -4.5 -9.5t-9.5 -4.5h-284v-209h224q14 0 14 -14v-65q0 -14 -14 -14h-224v-210h284q5 0 9.5 -4.5t4.5 -9.5v-65q0 -5 -4.5 -9.5t-9.5 -4.5h-363zM251 909q5 0 9 -3l120 -95q3 -1 3 -5q0 -2 -2 -6
l-28 -33q-1 -3 -6 -3q-3 0 -5 1l-91 72l-91 -72q-1 -1 -5 -1t-6 3l-28 33q-2 4 -2 6q0 4 4 5l119 95q5 3 9 3z" />
    <glyph glyph-name="uni00CB" unicode="&#xcb;" horiz-adv-x="475" 
d="M149 606v-210h224q14 0 14 -14v-65q0 -14 -14 -14h-224v-210h284q6 0 10 -4q4 -3 4 -10v-65q0 -6 -4 -10q-6 -4 -10 -4h-363q-14 0 -14 14v671q0 14 14 14h363q4 0 10 -4q4 -4 4 -10v-65q0 -7 -4 -10q-4 -4 -10 -4h-284zM149 764q-8 0 -13 4.5t-5 12.5v57q0 8 5.5 12
t12.5 4h45q7 0 11 -4q6 -5 6 -12v-57q0 -17 -17 -17h-45zM325 764q-18 0 -18 17v57q0 8 5.5 12t12.5 4h45q7 0 11 -4q6 -5 6 -12v-57q0 -17 -17 -17h-45z" />
    <glyph glyph-name="uni00CC" unicode="&#xcc;" horiz-adv-x="205" 
d="M70 0q-14 0 -14 14v670q0 6 4 10q3 5 10 5h65q5 0 10 -5q4 -6 4 -10v-670q0 -14 -14 -14h-65zM96 772q3 -3 7 -3t8 4l29 37q2 2 2 7q0 4 -3 7l-114 95l-6 2q-5 0 -9 -4l-29 -36q-6 -9 1 -15z" />
    <glyph glyph-name="uni00CD" unicode="&#xcd;" horiz-adv-x="205" 
d="M70 0q-14 0 -14 14v669q0 6 4 10.5t10 4.5h65q6 0 10 -4.5t4 -10.5v-669q0 -14 -14 -14h-65zM221 865q7 7 1 15l-29 36q-3 4 -9 4q-2 0 -6 -2l-114 -95q-3 -2 -3.5 -6.5t2.5 -7.5l29 -37q4 -4 8 -4t7 3z" />
    <glyph glyph-name="uni00CE" unicode="&#xce;" horiz-adv-x="205" 
d="M70 0q-14 0 -14 14v669q0 7 4 11q3 4 10 4h65q6 0 10 -4q4 -6 4 -11v-669q0 -14 -14 -14h-65zM102 909q5 0 9 -3l120 -95q3 -1 3 -5q0 -2 -2 -6l-28 -33q-1 -3 -6 -3q-3 0 -5 1l-91 72l-91 -72q-1 -1 -5 -1t-6 3l-28 33q-2 4 -2 6q0 4 4 5l119 95q5 3 9 3z" />
    <glyph glyph-name="uni00CF" unicode="&#xcf;" horiz-adv-x="205" 
d="M136 699q5 0 10 -5q4 -6 4 -10v-670q0 -14 -14 -14h-65q-14 0 -14 14v670q0 6 4 10q3 5 10 5h65zM49 850q6 -5 6 -12v-57q0 -17 -17 -17h-46q-7 0 -12 5t-5 12v57q0 7 6 12q4 4 11 4h46q7 0 11 -4zM225 850q6 -5 6 -12v-57q0 -17 -17 -17h-46q-17 0 -17 17v57q0 7 5 11.5
t12 4.5h46q7 0 11 -4z" />
    <glyph glyph-name="uni00D1" unicode="&#xd1;" horiz-adv-x="544" 
d="M400 0q-6 0 -10 4t-6 9l-235 514v-513q0 -14 -14 -14h-65q-14 0 -14 14v670q0 14 14 14h95q6 0 9 -3.5t6 -10.5l214 -479v479q0 6 4.5 10t9.5 4h65q6 0 10.5 -4t4.5 -10v-670q0 -6 -4.5 -10t-10.5 -4h-73zM353 860q1 0 7 0.5t14 3.5t17.5 9t16.5 18q3 4 7 4h60
q10 0 8 -10q-3 -10 -7 -21.5t-10 -23.5q-17 -32 -48 -48.5t-62 -16.5q-26 0 -41 4t-27 9q-11 4 -22.5 7.5t-28.5 3.5q-1 0 -7.5 -0.5t-14.5 -3.5t-17 -9t-16 -18q-3 -5 -8 -5h-57q-5 0 -7.5 3.5t-1.5 7.5q7 23 17.5 43t25.5 35t35.5 23.5t47.5 8.5q26 0 41 -4t27 -9
q11 -5 22.5 -8t28.5 -3z" />
    <glyph glyph-name="uni00D2" unicode="&#xd2;" 
d="M427 11q-3 -2 -5.5 -4t-5.5 -4q-6 -3 -14 -3h-259q-9 0 -14 2.5t-11 8.5l-57 56q-5 7 -9 14q-2 8 -2 12v514q0 14 10 26l58 56q5 5 11 8q8 2 13 2h260q8 0 13.5 -2.5t11.5 -7.5l57 -56q8 -9 9 -16q0 -4 0.5 -7t0.5 -5v-508q0 -17 -11 -30zM399 121q2 4 2 5v452l-25 25
q-3 3 -7 3h-193q-4 0 -7 -3l-25 -25v-452q0 -3 2 -5l24 -24q4 -4 8 -4h187q4 0 10 4zM309 770q3 -3 6 -3q4 0 8 4l29 37q3 3 2 7q0 4 -3 7l-114 95l-6 2q-5 0 -9 -4l-29 -36q-7 -9 2 -15z" />
    <glyph glyph-name="uni00D3" unicode="&#xd3;" 
d="M427 11q-5 -5 -10.5 -8t-14.5 -3h-259q-9 0 -14.5 3t-10.5 8l-56 56q-7 7 -9 13.5t-2 12.5v513q0 16 10 26l57 56q6 6 11.5 8t12.5 2h260q6 0 12 -1.5t13 -8.5l57 -56q8 -8 9 -15.5t1 -12.5v-507q0 -19 -11 -30zM399 121q2 2 2 5v451l-25 25q-3 3 -7 3h-193q-4 0 -7 -3
l-25 -25v-451q0 -3 2 -5l24 -24q4 -4 8 -4h187q6 0 10 4zM361 863q9 7 2 15l-29 36q-3 4 -9 4q-2 0 -6 -2l-114 -95q-3 -2 -3.5 -6.5t2.5 -7.5l29 -37q4 -4 8 -4q3 0 6 3z" />
    <glyph glyph-name="uni00D4" unicode="&#xd4;" 
d="M427 11q-6 -6 -11 -8.5t-14 -2.5h-259q-9 0 -14 3q-3 2 -5.5 4t-5.5 4l-56 56q-7 8 -9 13q-1 4 -1.5 7t-0.5 6v513q0 14 10 26l57 56q7 7 12 8q2 2 5.5 2h6.5h260q8 0 14 -1.5t11 -8.5l57 -56q9 -7 9 -15q1 -4 1 -7.5v-5.5v-507q0 -20 -11 -30zM399 121q2 1 2 5v451
l-25 25q-3 3 -7 3h-193q-4 0 -7 -3l-25 -25v-451q0 -3 2 -5l24 -24q4 -4 8 -4h187q7 0 10 4zM273 909q5 0 9 -3l119 -95q4 -1 4 -5q0 -2 -2 -6l-28 -33q-1 -3 -6 -3q-4 0 -5 1l-91 72l-91 -72q-2 -1 -5 -1q-4 0 -6 3l-28 33q-2 4 -2 6q0 4 3 5l120 95q3 3 9 3z" />
    <glyph glyph-name="uni00D5" unicode="&#xd5;" 
d="M427 12q-4 -4 -10 -8q-6 -3 -15 -3h-259q-9 0 -14 3q-6 3 -11 8l-56 56q-11 11 -11 26v513q0 17 10 26l57 56q7 7 12 8q3 2 12 2h260q8 0 14 -1.5t11 -8.5l57 -56q9 -7 9 -15q1 -5 1 -13v-507q0 -19 -11 -30zM399 122q2 2 2 5v451l-25 25q-3 3 -7 3h-193q-4 0 -7 -3
l-25 -25v-451q0 -1 2 -5l24 -24q6 -4 8 -4h187q6 0 10 4zM316 848q8 0 17.5 3.5t15.5 8.5q9 5 15 15q2 4 6 4h51q9 0 7 -9q-2 -5 -3 -9.5t-3 -9.5q-3 -10 -9 -20q-13 -26 -39 -41t-55 -15q-24 0 -36 4q-6 2 -12 3.5t-11 3.5q-20 10 -44 10h-1q-3 0 -5 -1q-5 0 -13 -3
q-3 -1 -6.5 -3t-7.5 -4q-9 -7 -14 -16q-3 -4 -7 -4h-49q-4 0 -6 3q-2 2 -2 6q10 38 37 68q17 15 33.5 21t38.5 6t35 -3q7 -2 12.5 -4t10.5 -4q11 -5 21.5 -7.5t22.5 -2.5z" />
    <glyph glyph-name="uni00D6" unicode="&#xd6;" 
d="M492 617q0 -4 0.5 -7t0.5 -5v-508q0 -17 -11 -30l-56 -56q-3 -2 -5.5 -4t-5.5 -4q-4 -3 -14 -3h-259q-9 0 -14 2.5t-11 8.5l-56 56q-7 7 -9 14q-2 4 -2 12v514q0 16 10 26l57 56q5 5 11 8q8 2 13 2h260q8 0 13.5 -2.5t11.5 -7.5l57 -56q8 -9 9 -16zM400 578l-25 25
q-3 3 -7 3h-193q-4 0 -7 -3l-25 -25v-452q0 -3 2 -5l24 -24q4 -4 8 -4h187q4 0 10 4l24 24q2 4 2 5v452zM336 764q-17 0 -17 17v57q0 7 5 11.5t12 4.5h46q7 0 11 -4q6 -5 6 -12v-57q0 -17 -17 -17h-46zM160 764q-7 0 -12 5t-5 12v57q0 7 5 11.5t12 4.5h46q7 0 11 -4
q6 -5 6 -12v-57q0 -17 -17 -17h-46z" />
    <glyph glyph-name="uni00D8" unicode="&#xd8;" 
d="M570 698q4 0 5.5 -3t-0.5 -6l-81 -106v-486q0 -19 -11 -30l-56 -56q-3 -2 -5.5 -4t-5.5 -4q-4 -3 -14 -3h-259q-9 0 -14 2.5t-11 8.5l-34 33l-32 -42q-2 -2 -5 -2h-73q-4 0 -5.5 3t0.5 6l82 107v490q0 16 10 26l57 56q6 6 11 8t13 2h260q9 0 13.5 -1.5t11.5 -8.5l34 -33
l31 41q2 2 5 2h73zM144 238l257 338v1l-25 25q-3 3 -7 3h-193q-4 0 -7 -3l-25 -25v-339zM401 461l-257 -338l2 -2l24 -24q3 -4 8 -4h187q6 0 10 4l24 24q2 2 2 5v335z" />
    <glyph glyph-name="uni00D9" unicode="&#xd9;" horiz-adv-x="549" 
d="M429 11q-11 -11 -25 -11h-258q-10 0 -15 3q-6 3 -11 8l-56 56q-11 13 -11 26v592q0 5 4.5 9.5t9.5 4.5h65q5 0 9.5 -4.5t4.5 -9.5v-556l4 -7l26 -25q6 -4 9 -4h179q8 0 12 4l25 25q2 2 2 4v559q0 3 4 9q5 5 10 5h65q7 0 10 -5q4 -4 4 -9v-593q0 -14 -11 -25zM292 770
q3 -3 6 -3q6 0 9 4l29 37q3 3 3 7q-1 5 -4 7l-114 95q-4 2 -7 2q-4 0 -8 -4l-29 -36q-6 -8 1 -15z" />
    <glyph glyph-name="uni00DA" unicode="&#xda;" horiz-adv-x="549" 
d="M429 11q-5 -5 -11 -8t-14 -3h-258q-10 0 -15.5 3t-10.5 8l-56 56q-11 11 -11 26v591q0 5 4 9.5t10 4.5h65q6 0 10 -4.5t4 -9.5v-555l4 -7l26 -25q4 -4 9 -4h179q8 0 12 4l25 25q2 2 2 4v558q0 5 4 9.5t10 4.5h65q6 0 10 -4.5t4 -9.5v-592q0 -14 -11 -25zM361 863
q7 7 1 15l-29 36q-3 4 -8 4q-3 0 -7 -2l-114 -95q-3 -2 -3.5 -6.5t2.5 -7.5l29 -37q4 -4 9 -4q3 0 6 3z" />
    <glyph glyph-name="uni00DB" unicode="&#xdb;" horiz-adv-x="549" 
d="M429 11q-11 -11 -25 -11h-258q-10 0 -16 3q-6 4 -10 8l-56 56q-11 10 -11 26v591q0 6 4 10q3 4 10 4h65q6 0 10 -4q4 -6 4 -10v-555l4 -7l26 -25q3 -4 9 -4h179q8 0 12 4l25 25q2 2 2 4v558q0 6 4 10q3 4 10 4h65q14 0 14 -14v-592q0 -14 -11 -25zM274 909q5 0 9 -3
l120 -95q3 -1 3 -5q0 -2 -2 -6l-28 -33q-1 -3 -6 -3q-3 0 -5 1l-91 72l-91 -72q-1 -1 -4 -1q-4 0 -7 3l-28 33q-1 2 -1 6t3 5l119 95q5 3 9 3z" />
    <glyph glyph-name="uni00DC" unicode="&#xdc;" horiz-adv-x="549" 
d="M492 694q4 -4 4 -9v-593q0 -14 -11 -25l-56 -56q-11 -11 -25 -11h-258q-9 0 -15 3q-3 2 -5.5 4t-5.5 4l-56 56q-11 13 -11 26v592q0 3 4 9q5 5 10 5h65q7 0 10 -5q4 -4 4 -9v-556l4 -7l26 -25q6 -4 9 -4h179q8 0 12 4l25 25q2 2 2 4v559q0 3 4 9q5 5 10 5h65q7 0 10 -5z
M340 764q-17 0 -17 17v57q0 7 6 12q4 4 11 4h46q7 0 11 -4q6 -5 6 -12v-57q0 -17 -17 -17h-46zM164 764q-6 0 -13 5q-4 4 -4 12v57q0 7 6 12q4 4 11 4h46q7 0 12 -4.5t5 -11.5v-57q0 -17 -17 -17h-46z" />
    <glyph glyph-name="uni00DF" unicode="&#xdf;" horiz-adv-x="529" 
d="M487 398q0 -11 -1.5 -15t-9.5 -12l-30 -30l30 -29q11 -8 11 -19v-199q0 -5 -3 -14q-3 -8 -8 -13l-56 -57q-10 -10 -24 -10h-170q-5 0 -9.5 4.5t-4.5 10.5v66q0 6 4.5 10t9.5 4h149l13 14q3 3 3 4q1 2 1 5v170l-44 44q-9 11 0 20l44 44v180q0 3 -1 4q-1 3 -3 3l-16 17
q-1 3 -7 3h-220v-588q0 -14 -14 -14h-67q-6 0 -10 4q-4 6 -4 10v590q0 16 10 26l57 56q8 8 12 9q3 2 14 2h251q11 0 14 -2q6 -1 12 -9l56 -56q11 -10 11 -28v-205z" />
    <glyph glyph-name="uni00E0" unicode="&#xe0;" horiz-adv-x="563" 
d="M477 0q-4 0 -11 5q-6 6 -7 9l-48 162h-258l-48 -160q-6 -16 -19 -16h-60q-5 0 -12 5q-6 5 -3 9l198 670q2 5 5 9.5t9 4.5h118q5 0 9 -4q2 -2 2.5 -4.5t2.5 -5.5l197 -670q2 -4 -3 -9q-7 -5 -11 -5h-61zM282 615l-102 -345h204zM287 770q3 -3 6 -3q6 0 9 4l29 37q2 2 2 7
q0 4 -4 7l-114 95q-4 2 -6 2q-4 0 -8 -4l-29 -36q-6 -8 1 -15z" />
    <glyph glyph-name="uni00E1" unicode="&#xe1;" horiz-adv-x="563" 
d="M477 0q-5 0 -10.5 4.5t-7.5 9.5l-48 162h-258l-48 -160q-5 -16 -19 -16h-60q-6 0 -11.5 4.5t-3.5 9.5l198 669q2 7 5 10.5t9 3.5h118q6 0 9 -3.5t5 -10.5l197 -669q2 -5 -3 -9.5t-11 -4.5h-61zM282 614l-102 -344h204zM387 863q7 7 1 15l-29 36q-3 4 -8 4q-2 0 -6 -2
l-114 -95q-4 -2 -4 -6.5t2 -7.5l29 -37q4 -4 9 -4q3 0 6 3z" />
    <glyph glyph-name="uni00E2" unicode="&#xe2;" horiz-adv-x="569" 
d="M478 0q-13 0 -18 14l-48 162h-259l-48 -160q-4 -16 -19 -16h-60q-6 0 -11 4q-6 4 -4 10l198 669q2 4 2.5 6.5t2.5 4.5q3 3 10 3h118q6 0 9 -3q2 -2 5 -11l197 -669q2 -5 -3 -10q-5 -4 -11 -4h-61zM283 614l-103 -344h205zM282 909q5 0 9 -3l120 -95q3 -1 3 -5q0 -2 -2 -6
l-28 -33q-1 -3 -6 -3q-4 0 -5 1l-91 72l-91 -72q-1 -1 -5 -1t-6 3l-28 33q-2 4 -2 6q0 4 3 5l120 95q5 3 9 3z" />
    <glyph glyph-name="uni00E3" unicode="&#xe3;" horiz-adv-x="563" 
d="M478 1q-4 0 -11 5q-6 6 -7 9l-48 162h-258l-48 -160q-6 -16 -19 -16h-60q-5 0 -12 5q-5 5 -3 9l198 669q2 6 4.5 10t9.5 4h118q11 0 14 -14l197 -669q2 -4 -3 -9t-11 -5h-61zM283 615l-102 -344h204zM332 848q1 0 2 1h4q6 0 14 3.5t13 7.5q8 5 14 15q4 4 6 4h52q9 0 7 -9
q-2 -5 -3 -9.5t-3 -9.5l-4 -10t-5 -10q-14 -26 -39.5 -41t-55.5 -15q-23 0 -35 4q-6 2 -12 3.5t-11 3.5q-20 10 -44 10q-3 0 -6 -1q-5 0 -13 -3q-4 -1 -7 -3t-8 -4q-7 -6 -13 -16q-3 -4 -7 -4h-49q-4 0 -7 3q-2 4 -1 6q5 18 14 36t23 32q17 15 32.5 21t38.5 6t36 -3l12 -4
t11 -4q20 -10 44 -10z" />
    <glyph glyph-name="uni00E4" unicode="&#xe4;" horiz-adv-x="563" 
d="M552 14q2 -4 -3 -9q-7 -5 -11 -5h-61q-4 0 -11 5q-6 6 -7 9l-48 162h-258l-48 -160q-6 -16 -19 -16h-60q-5 0 -12 5q-6 5 -3 9l198 670q2 5 5 9.5t9 4.5h118q5 0 9 -4q2 -2 2.5 -4.5t2.5 -5.5zM384 270l-102 345l-102 -345h204zM347 764q-18 0 -18 17v57q0 8 5.5 12
t12.5 4h45q7 0 11 -4q6 -5 6 -12v-57q0 -17 -17 -17h-45zM170 764q-7 0 -12 5t-5 12v57q0 7 5 11.5t12 4.5h46q7 0 11 -4q6 -5 6 -12v-57q0 -17 -17 -17h-46z" />
    <glyph glyph-name="uni00E5" unicode="&#xe5;" horiz-adv-x="563" 
d="M553 14q1 -6 -3 -10q-5 -4 -11 -4h-61q-14 0 -18 14l-48 162h-258l-48 -160q-6 -16 -19 -16h-61q-6 0 -11 4t-4 10l199 669q2 7 5 10q3 4 9 4h118q6 0 9 -4q2 -2 2.5 -4.5t2.5 -5.5zM385 270l-102 344l-102 -344h204zM259 744q-28 0 -47.5 19.5t-19.5 48.5v45
q0 29 19.5 48.5t47.5 19.5h46q28 0 48 -19.5t20 -48.5v-45q0 -29 -20 -48.5t-48 -19.5h-46zM250 812q0 -9 9 -9h46q9 0 9 9v45q0 10 -9 10h-46q-9 0 -9 -10v-45z" />
    <glyph glyph-name="uni00E6" unicode="&#xe6;" horiz-adv-x="785" 
d="M437 605v-209h224q14 0 14 -14v-65q0 -14 -14 -14h-224v-210h284q3 0 9 -4q5 -5 5 -10v-65q0 -7 -5 -10q-4 -4 -9 -4h-363q-14 0 -14 14v162h-200l-48 -160q-6 -16 -19 -16h-60q-7 0 -12 4q-6 4 -3 10l198 669q1 6 5 10q3 4 9 4h137q2 1 7 1h363q5 0 9.5 -4.5t4.5 -9.5
v-65q0 -5 -4.5 -9.5t-9.5 -4.5h-284zM344 270v335h-74l-99 -335h173z" />
    <glyph glyph-name="uni00E7" unicode="&#xe7;" horiz-adv-x="533" 
d="M415 485q-14 0 -14 14v69q0 6 -4 9l-24 25q-1 3 -4 3h-192q-2 0 -4 -2l-25 -26l-4 -6v-442l4 -7l25 -25l7 -4h185l7 4l25 25l4 7v68q0 14 14 14h65q14 0 14 -14v-106q0 -8 -2 -13.5t-9 -10.5l-56 -56q-7 -7 -11 -9t-14 -2h-3v-97q0 -32 -22.5 -54.5t-54.5 -22.5h-97
q-16 0 -30.5 6t-25 16.5t-16.5 24.5t-6 30v50q0 6 4.5 10.5t11.5 4.5h49q7 0 11.5 -4.5t4.5 -10.5v-46h91v93h-174q-14 0 -27 11l-56 56q-7 9 -10 17q0 2 -0.5 4t-0.5 4v514q0 2 0.5 4t0.5 4q4 11 10 17l56 57q10 10 25 10h259q16 0 25 -10l57 -56q10 -9 10 -26v-107
q0 -14 -14 -14h-65z" />
    <glyph glyph-name="uni00E8" unicode="&#xe8;" horiz-adv-x="475" 
d="M70 0q-14 0 -14 14v671q0 14 14 14h363q4 0 10 -4q4 -4 4 -10v-65q0 -7 -4 -10q-4 -4 -10 -4h-284v-210h224q14 0 14 -14v-65q0 -14 -14 -14h-224v-210h284q6 0 10 -4q4 -3 4 -10v-65q0 -6 -4 -10q-6 -4 -10 -4h-363zM274 770q3 -3 6 -3q5 0 9 4l29 37q2 4 2 7q0 4 -4 7
l-114 95l-6 2q-4 0 -8 -4l-29 -36q-6 -9 1 -15z" />
    <glyph glyph-name="uni00E9" unicode="&#xe9;" horiz-adv-x="475" 
d="M70 0q-14 0 -14 14v670q0 14 14 14h363q5 0 9.5 -4t4.5 -10v-65q0 -6 -4.5 -10t-9.5 -4h-284v-209h224q14 0 14 -14v-65q0 -14 -14 -14h-224v-210h284q5 0 9.5 -4t4.5 -10v-65q0 -6 -4.5 -10t-9.5 -4h-363zM333 863q7 7 1 15l-29 36q-3 4 -8 4q-2 0 -6 -2l-114 -95
q-4 -2 -4 -6.5t2 -7.5l29 -37q4 -4 9 -4q3 0 6 3z" />
    <glyph glyph-name="uni00EA" unicode="&#xea;" horiz-adv-x="475" 
d="M70 0q-14 0 -14 14v670q0 14 14 14h363q5 0 9 -4q5 -3 5 -10v-65q0 -5 -4.5 -9.5t-9.5 -4.5h-284v-209h224q14 0 14 -14v-65q0 -14 -14 -14h-224v-210h284q5 0 9.5 -4.5t4.5 -9.5v-65q0 -5 -4.5 -9.5t-9.5 -4.5h-363zM251 909q5 0 9 -3l120 -95q3 -1 3 -5q0 -2 -2 -6
l-28 -33q-1 -3 -6 -3q-3 0 -5 1l-91 72l-91 -72q-1 -1 -5 -1t-6 3l-28 33q-2 4 -2 6q0 4 4 5l119 95q5 3 9 3z" />
    <glyph glyph-name="uni00EB" unicode="&#xeb;" horiz-adv-x="475" 
d="M149 606v-210h224q14 0 14 -14v-65q0 -14 -14 -14h-224v-210h284q6 0 10 -4q4 -3 4 -10v-65q0 -6 -4 -10q-6 -4 -10 -4h-363q-14 0 -14 14v671q0 14 14 14h363q4 0 10 -4q4 -4 4 -10v-65q0 -7 -4 -10q-4 -4 -10 -4h-284zM149 764q-8 0 -13 4.5t-5 12.5v57q0 8 5.5 12
t12.5 4h45q7 0 11 -4q6 -5 6 -12v-57q0 -17 -17 -17h-45zM325 764q-18 0 -18 17v57q0 8 5.5 12t12.5 4h45q7 0 11 -4q6 -5 6 -12v-57q0 -17 -17 -17h-45z" />
    <glyph glyph-name="uni00EC" unicode="&#xec;" horiz-adv-x="205" 
d="M70 0q-14 0 -14 14v670q0 6 4 10q3 5 10 5h65q5 0 10 -5q4 -6 4 -10v-670q0 -14 -14 -14h-65zM96 772q3 -3 7 -3t8 4l29 37q2 2 2 7q0 4 -3 7l-114 95l-6 2q-5 0 -9 -4l-29 -36q-6 -9 1 -15z" />
    <glyph glyph-name="uni00ED" unicode="&#xed;" horiz-adv-x="205" 
d="M70 0q-14 0 -14 14v669q0 6 4 10.5t10 4.5h65q6 0 10 -4.5t4 -10.5v-669q0 -14 -14 -14h-65zM221 865q7 7 1 15l-29 36q-3 4 -9 4q-2 0 -6 -2l-114 -95q-3 -2 -3.5 -6.5t2.5 -7.5l29 -37q4 -4 8 -4t7 3z" />
    <glyph glyph-name="uni00EE" unicode="&#xee;" horiz-adv-x="205" 
d="M70 0q-14 0 -14 14v669q0 7 4 11q3 4 10 4h65q6 0 10 -4q4 -6 4 -11v-669q0 -14 -14 -14h-65zM102 909q5 0 9 -3l120 -95q3 -1 3 -5q0 -2 -2 -6l-28 -33q-1 -3 -6 -3q-3 0 -5 1l-91 72l-91 -72q-1 -1 -5 -1t-6 3l-28 33q-2 4 -2 6q0 4 4 5l119 95q5 3 9 3z" />
    <glyph glyph-name="uni00EF" unicode="&#xef;" horiz-adv-x="205" 
d="M136 699q5 0 10 -5q4 -6 4 -10v-670q0 -14 -14 -14h-65q-14 0 -14 14v670q0 6 4 10q3 5 10 5h65zM49 850q6 -5 6 -12v-57q0 -17 -17 -17h-46q-7 0 -12 5t-5 12v57q0 7 6 12q4 4 11 4h46q7 0 11 -4zM225 850q6 -5 6 -12v-57q0 -17 -17 -17h-46q-17 0 -17 17v57q0 7 5 11.5
t12 4.5h46q7 0 11 -4z" />
    <glyph glyph-name="uni00F1" unicode="&#xf1;" horiz-adv-x="544" 
d="M400 0q-6 0 -10 4t-6 9l-235 514v-513q0 -14 -14 -14h-65q-14 0 -14 14v670q0 14 14 14h95q6 0 9 -3.5t6 -10.5l214 -479v479q0 6 4.5 10t9.5 4h65q6 0 10.5 -4t4.5 -10v-670q0 -6 -4.5 -10t-10.5 -4h-73zM353 860q1 0 7 0.5t14 3.5t17.5 9t16.5 18q3 4 7 4h60
q10 0 8 -10q-3 -10 -7 -21.5t-10 -23.5q-17 -32 -48 -48.5t-62 -16.5q-26 0 -41 4t-27 9q-11 4 -22.5 7.5t-28.5 3.5q-1 0 -7.5 -0.5t-14.5 -3.5t-17 -9t-16 -18q-3 -5 -8 -5h-57q-5 0 -7.5 3.5t-1.5 7.5q7 23 17.5 43t25.5 35t35.5 23.5t47.5 8.5q26 0 41 -4t27 -9
q11 -5 22.5 -8t28.5 -3z" />
    <glyph glyph-name="uni00F2" unicode="&#xf2;" 
d="M427 11q-3 -2 -5.5 -4t-5.5 -4q-6 -3 -14 -3h-259q-9 0 -14 2.5t-11 8.5l-57 56q-5 7 -9 14q-2 8 -2 12v514q0 14 10 26l58 56q5 5 11 8q8 2 13 2h260q8 0 13.5 -2.5t11.5 -7.5l57 -56q8 -9 9 -16q0 -4 0.5 -7t0.5 -5v-508q0 -17 -11 -30zM399 121q2 4 2 5v452l-25 25
q-3 3 -7 3h-193q-4 0 -7 -3l-25 -25v-452q0 -3 2 -5l24 -24q4 -4 8 -4h187q4 0 10 4zM309 770q3 -3 6 -3q4 0 8 4l29 37q3 3 2 7q0 4 -3 7l-114 95l-6 2q-5 0 -9 -4l-29 -36q-7 -9 2 -15z" />
    <glyph glyph-name="uni00F3" unicode="&#xf3;" 
d="M427 11q-5 -5 -10.5 -8t-14.5 -3h-259q-9 0 -14.5 3t-10.5 8l-56 56q-7 7 -9 13.5t-2 12.5v513q0 16 10 26l57 56q6 6 11.5 8t12.5 2h260q6 0 12 -1.5t13 -8.5l57 -56q8 -8 9 -15.5t1 -12.5v-507q0 -19 -11 -30zM399 121q2 2 2 5v451l-25 25q-3 3 -7 3h-193q-4 0 -7 -3
l-25 -25v-451q0 -3 2 -5l24 -24q4 -4 8 -4h187q6 0 10 4zM361 863q9 7 2 15l-29 36q-3 4 -9 4q-2 0 -6 -2l-114 -95q-3 -2 -3.5 -6.5t2.5 -7.5l29 -37q4 -4 8 -4q3 0 6 3z" />
    <glyph glyph-name="uni00F4" unicode="&#xf4;" 
d="M427 11q-6 -6 -11 -8.5t-14 -2.5h-259q-9 0 -14 3q-3 2 -5.5 4t-5.5 4l-56 56q-7 8 -9 13q-1 4 -1.5 7t-0.5 6v513q0 14 10 26l57 56q7 7 12 8q2 2 5.5 2h6.5h260q8 0 14 -1.5t11 -8.5l57 -56q9 -7 9 -15q1 -4 1 -7.5v-5.5v-507q0 -20 -11 -30zM399 121q2 1 2 5v451
l-25 25q-3 3 -7 3h-193q-4 0 -7 -3l-25 -25v-451q0 -3 2 -5l24 -24q4 -4 8 -4h187q7 0 10 4zM273 909q5 0 9 -3l119 -95q4 -1 4 -5q0 -2 -2 -6l-28 -33q-1 -3 -6 -3q-4 0 -5 1l-91 72l-91 -72q-2 -1 -5 -1q-4 0 -6 3l-28 33q-2 4 -2 6q0 4 3 5l120 95q3 3 9 3z" />
    <glyph glyph-name="uni00F5" unicode="&#xf5;" 
d="M427 12q-4 -4 -10 -8q-6 -3 -15 -3h-259q-9 0 -14 3q-6 3 -11 8l-56 56q-11 11 -11 26v513q0 17 10 26l57 56q7 7 12 8q3 2 12 2h260q8 0 14 -1.5t11 -8.5l57 -56q9 -7 9 -15q1 -5 1 -13v-507q0 -19 -11 -30zM399 122q2 2 2 5v451l-25 25q-3 3 -7 3h-193q-4 0 -7 -3
l-25 -25v-451q0 -1 2 -5l24 -24q6 -4 8 -4h187q6 0 10 4zM316 848q8 0 17.5 3.5t15.5 8.5q9 5 15 15q2 4 6 4h51q9 0 7 -9q-2 -5 -3 -9.5t-3 -9.5q-3 -10 -9 -20q-13 -26 -39 -41t-55 -15q-24 0 -36 4q-6 2 -12 3.5t-11 3.5q-20 10 -44 10h-1q-3 0 -5 -1q-5 0 -13 -3
q-3 -1 -6.5 -3t-7.5 -4q-9 -7 -14 -16q-3 -4 -7 -4h-49q-4 0 -6 3q-2 2 -2 6q10 38 37 68q17 15 33.5 21t38.5 6t35 -3q7 -2 12.5 -4t10.5 -4q11 -5 21.5 -7.5t22.5 -2.5z" />
    <glyph glyph-name="uni00F6" unicode="&#xf6;" 
d="M492 617q0 -4 0.5 -7t0.5 -5v-508q0 -17 -11 -30l-56 -56q-3 -2 -5.5 -4t-5.5 -4q-4 -3 -14 -3h-259q-9 0 -14 2.5t-11 8.5l-56 56q-7 7 -9 14q-2 4 -2 12v514q0 16 10 26l57 56q5 5 11 8q8 2 13 2h260q8 0 13.5 -2.5t11.5 -7.5l57 -56q8 -9 9 -16zM400 578l-25 25
q-3 3 -7 3h-193q-4 0 -7 -3l-25 -25v-452q0 -3 2 -5l24 -24q4 -4 8 -4h187q4 0 10 4l24 24q2 4 2 5v452zM336 764q-17 0 -17 17v57q0 7 5 11.5t12 4.5h46q7 0 11 -4q6 -5 6 -12v-57q0 -17 -17 -17h-46zM160 764q-7 0 -12 5t-5 12v57q0 7 5 11.5t12 4.5h46q7 0 11 -4
q6 -5 6 -12v-57q0 -17 -17 -17h-46z" />
    <glyph glyph-name="uni00F8" unicode="&#xf8;" 
d="M570 698q4 0 5.5 -3t-0.5 -6l-81 -106v-486q0 -19 -11 -30l-56 -56q-3 -2 -5.5 -4t-5.5 -4q-4 -3 -14 -3h-259q-9 0 -14 2.5t-11 8.5l-34 33l-32 -42q-2 -2 -5 -2h-73q-4 0 -5.5 3t0.5 6l82 107v490q0 16 10 26l57 56q6 6 11 8t13 2h260q9 0 13.5 -1.5t11.5 -8.5l34 -33
l31 41q2 2 5 2h73zM144 238l257 338v1l-25 25q-3 3 -7 3h-193q-4 0 -7 -3l-25 -25v-339zM401 461l-257 -338l2 -2l24 -24q3 -4 8 -4h187q6 0 10 4l24 24q2 2 2 5v335z" />
    <glyph glyph-name="uni00F9" unicode="&#xf9;" horiz-adv-x="549" 
d="M429 11q-11 -11 -25 -11h-258q-10 0 -15 3q-6 3 -11 8l-56 56q-11 13 -11 26v592q0 5 4.5 9.5t9.5 4.5h65q5 0 9.5 -4.5t4.5 -9.5v-556l4 -7l26 -25q6 -4 9 -4h179q8 0 12 4l25 25q2 2 2 4v559q0 3 4 9q5 5 10 5h65q7 0 10 -5q4 -4 4 -9v-593q0 -14 -11 -25zM292 770
q3 -3 6 -3q6 0 9 4l29 37q3 3 3 7q-1 5 -4 7l-114 95q-4 2 -7 2q-4 0 -8 -4l-29 -36q-6 -8 1 -15z" />
    <glyph glyph-name="uni00FA" unicode="&#xfa;" horiz-adv-x="549" 
d="M429 11q-5 -5 -11 -8t-14 -3h-258q-10 0 -15.5 3t-10.5 8l-56 56q-11 11 -11 26v591q0 5 4 9.5t10 4.5h65q6 0 10 -4.5t4 -9.5v-555l4 -7l26 -25q4 -4 9 -4h179q8 0 12 4l25 25q2 2 2 4v558q0 5 4 9.5t10 4.5h65q6 0 10 -4.5t4 -9.5v-592q0 -14 -11 -25zM361 863
q7 7 1 15l-29 36q-3 4 -8 4q-3 0 -7 -2l-114 -95q-3 -2 -3.5 -6.5t2.5 -7.5l29 -37q4 -4 9 -4q3 0 6 3z" />
    <glyph glyph-name="uni00FB" unicode="&#xfb;" horiz-adv-x="549" 
d="M429 11q-11 -11 -25 -11h-258q-10 0 -16 3q-6 4 -10 8l-56 56q-11 10 -11 26v591q0 6 4 10q3 4 10 4h65q6 0 10 -4q4 -6 4 -10v-555l4 -7l26 -25q3 -4 9 -4h179q8 0 12 4l25 25q2 2 2 4v558q0 6 4 10q3 4 10 4h65q14 0 14 -14v-592q0 -14 -11 -25zM274 909q5 0 9 -3
l120 -95q3 -1 3 -5q0 -2 -2 -6l-28 -33q-1 -3 -6 -3q-3 0 -5 1l-91 72l-91 -72q-1 -1 -4 -1q-4 0 -7 3l-28 33q-1 2 -1 6t3 5l119 95q5 3 9 3z" />
    <glyph glyph-name="uni00FC" unicode="&#xfc;" horiz-adv-x="549" 
d="M492 694q4 -4 4 -9v-593q0 -14 -11 -25l-56 -56q-11 -11 -25 -11h-258q-9 0 -15 3q-3 2 -5.5 4t-5.5 4l-56 56q-11 13 -11 26v592q0 3 4 9q5 5 10 5h65q7 0 10 -5q4 -4 4 -9v-556l4 -7l26 -25q6 -4 9 -4h179q8 0 12 4l25 25q2 2 2 4v559q0 3 4 9q5 5 10 5h65q7 0 10 -5z
M340 764q-17 0 -17 17v57q0 7 6 12q4 4 11 4h46q7 0 11 -4q6 -5 6 -12v-57q0 -17 -17 -17h-46zM164 764q-6 0 -13 5q-4 4 -4 12v57q0 7 6 12q4 4 11 4h46q7 0 12 -4.5t5 -11.5v-57q0 -17 -17 -17h-46z" />
    <glyph glyph-name="uni00FF" unicode="&#xff;" horiz-adv-x="531" 
d="M526 694q5 -6 -1 -13l-213 -385v-282q0 -14 -11 -14h-70q-12 0 -12 14v283l-212 384q-5 8 -1 13q5 5 15 5h75q4 0 10 -4q1 -1 7 -9l153 -281l153 281q6 7 8 9q4 4 9 4h75q12 0 15 -5zM331 764q-7 0 -12 5t-5 12v57q0 7 5 11.5t12 4.5h46q7 0 11 -4q6 -5 6 -12v-57
q0 -17 -17 -17h-46zM155 764q-17 0 -17 17v57q0 7 5 11.5t12 4.5h46q7 0 11 -4q6 -5 6 -12v-57q0 -17 -17 -17h-46z" />
    <glyph glyph-name="uni010C" unicode="&#x10c;" horiz-adv-x="533" 
d="M427 11q-3 -2 -5.5 -4t-4.5 -4q-4 -3 -15 -3h-257q-16 0 -27 11l-56 56q-8 7 -10 17q-1 3 -1 8v514q0 5 1 8q2 10 10 17l56 57q9 10 25 10h259q15 0 25 -10l57 -56q10 -12 10 -26v-107q0 -14 -14 -14h-65q-14 0 -14 14v69q0 3 -4 9l-24 25q-2 1 -4 3h-192q-2 0 -4 -2
l-25 -26q-2 -1 -4 -6v-442l4 -7l25 -25l7 -4h185l7 4l25 25l4 7v68q0 14 14 14h65q14 0 14 -14v-106q0 -13 -11 -24zM272 764q-4 0 -9 3l-120 94q-3 3 -3 6t2 5l28 34q2 3 6 3q3 0 5 -2l91 -72l91 72q4 2 5 2q5 0 6 -3l28 -34q2 -2 2 -5t-3 -6l-120 -94q-4 -3 -9 -3z" />
    <glyph glyph-name="uni010D" unicode="&#x10d;" horiz-adv-x="533" 
d="M427 11q-3 -2 -5.5 -4t-4.5 -4q-4 -3 -15 -3h-257q-16 0 -27 11l-56 56q-8 7 -10 17q-1 3 -1 8v514q0 5 1 8q2 10 10 17l56 57q9 10 25 10h259q15 0 25 -10l57 -56q10 -12 10 -26v-107q0 -14 -14 -14h-65q-14 0 -14 14v69q0 3 -4 9l-24 25q-2 1 -4 3h-192q-2 0 -4 -2
l-25 -26q-2 -1 -4 -6v-442l4 -7l25 -25l7 -4h185l7 4l25 25l4 7v68q0 14 14 14h65q14 0 14 -14v-106q0 -13 -11 -24zM272 764q-4 0 -9 3l-120 94q-3 3 -3 6t2 5l28 34q2 3 6 3q3 0 5 -2l91 -72l91 72q4 2 5 2q5 0 6 -3l28 -34q2 -2 2 -5t-3 -6l-120 -94q-4 -3 -9 -3z" />
    <glyph glyph-name="uni0150" unicode="&#x150;" 
d="M484 632q7 -7 8.5 -13t1.5 -15v-507q0 -17 -11 -30l-56 -56q-5 -5 -11 -8q-4 -3 -14 -3h-259q-9 0 -15 3q-6 4 -10 8l-56 56q-11 11 -11 26v513q0 17 10 26l57 56q7 7 11 8q4 2 13 2h260q9 0 13.5 -1.5t11.5 -8.5zM401 577l-25 25q-3 3 -7 3h-193q-4 0 -7 -3l-25 -25
v-451q0 -1 2 -5l24 -24q6 -4 8 -4h187q4 0 10 4l24 24q2 4 2 5v451zM155 807q-3 3 -3 8q0 4 4 6l114 95q2 2 6 2q6 0 9 -4l24 -30q6 -8 -2 -15l-114 -94q-3 -3 -6 -3q-4 0 -8 4zM328 807q-3 3 -3 8q2 5 4 6l114 95q3 2 6 2q6 0 9 -4l24 -30q7 -7 -2 -15l-114 -94
q-3 -3 -6 -3q-2 0 -8 4z" />
    <glyph glyph-name="uni0151" unicode="&#x151;" 
d="M484 632q7 -7 8.5 -13t1.5 -15v-507q0 -17 -11 -30l-56 -56q-5 -5 -11 -8q-4 -3 -14 -3h-259q-9 0 -15 3q-6 4 -10 8l-56 56q-11 11 -11 26v513q0 17 10 26l57 56q7 7 11 8q4 2 13 2h260q9 0 13.5 -1.5t11.5 -8.5zM401 577l-25 25q-3 3 -7 3h-193q-4 0 -7 -3l-25 -25
v-451q0 -1 2 -5l24 -24q6 -4 8 -4h187q4 0 10 4l24 24q2 4 2 5v451zM155 807q-3 3 -3 8q0 4 4 6l114 95q2 2 6 2q6 0 9 -4l24 -30q6 -8 -2 -15l-114 -94q-3 -3 -6 -3q-4 0 -8 4zM328 807q-3 3 -3 8q2 5 4 6l114 95q3 2 6 2q6 0 9 -4l24 -30q7 -7 -2 -15l-114 -94
q-3 -3 -6 -3q-2 0 -8 4z" />
    <glyph glyph-name="uni0152" unicode="&#x152;" horiz-adv-x="788" 
d="M440 605v-209h224q14 0 14 -14v-65q0 -14 -14 -14h-224v-210h284q4 0 10 -4q4 -4 4 -10v-65q0 -7 -4 -10q-4 -4 -10 -4h-582q-14 0 -25 11l-56 56q-5 5 -9 13q-1 4 -1.5 7t-0.5 6v513q0 14 10 26l57 56q10 10 24 10h583q14 0 14 -14v-65q0 -14 -14 -14h-284zM347 605
h-172q-4 0 -7 -3l-25 -25v-451q0 -3 2 -5l24 -24q4 -4 9 -4h169v512z" />
    <glyph glyph-name="uni0153" unicode="&#x153;" horiz-adv-x="789" 
d="M441 605v-209h224q14 0 14 -14v-65q0 -14 -14 -14h-224v-210h284q4 0 10 -4q4 -4 4 -10v-65q0 -7 -4 -10q-4 -4 -10 -4h-582q-14 0 -25 11l-56 56q-5 5 -9 13q-1 4 -1.5 7t-0.5 6v513q0 14 10 26l57 56q10 10 24 10h583q14 0 14 -14v-65q0 -14 -14 -14h-284zM348 605
h-172q-4 0 -7 -3l-25 -25v-451q0 -3 2 -5l24 -24q4 -4 9 -4h169v512z" />
    <glyph glyph-name="uni0160" unicode="&#x160;" horiz-adv-x="541" 
d="M425 11q-13 -11 -26 -11h-258q-13 0 -26 11l-56 56q-7 7 -9 13q-2 8 -2 12v99q0 14 14 14h65q14 0 14 -14v-59q0 -5 5 -10l25 -25q4 -4 9 -4h183q5 0 8 4l25 24q2 1 2 5v147l-30 29h-230q-7 0 -12.5 3t-10.5 8l-56 56q-8 8 -10 15q0 2 -0.5 5t-0.5 5v212q0 14 11 25
l56 57q3 3 5.5 4.5t4.5 3.5q6 2 15 2h259q5 0 10 -1q7 0 16 -9l57 -56q2 -2 3.5 -5t3.5 -5q3 -6 3 -16v-105q0 -14 -14 -14h-65q-15 0 -15 14v67q0 5 -4 9l-25 26q-2 2 -4 2h-192q-1 0 -5 -2l-24 -25q-3 -3 -3 -8v-139q0 -2 4 -8l23 -23q7 -5 11 -5h221q7 0 11 -1
q3 -1 6 -3.5t8 -6.5l57 -56q10 -12 10 -26v-209q0 -1 -0.5 -3.5t-0.5 -6.5q-1 -7 -10 -16zM270 764q-4 0 -9 3l-120 94q-3 3 -3 6t2 5l28 34q2 3 6 3q1 0 5 -2l91 -72l91 72q2 2 5 2q5 0 6 -3l28 -34q2 -2 2 -5t-3 -6l-120 -94q-4 -3 -9 -3z" />
    <glyph glyph-name="uni0161" unicode="&#x161;" horiz-adv-x="541" 
d="M425 11q-13 -11 -26 -11h-258q-13 0 -26 11l-56 56q-7 7 -9 13q-2 8 -2 12v99q0 14 14 14h65q14 0 14 -14v-59q0 -5 5 -10l25 -25q4 -4 9 -4h183q5 0 8 4l25 24q2 1 2 5v147l-30 29h-230q-7 0 -12.5 3t-10.5 8l-56 56q-8 8 -10 15q0 2 -0.5 5t-0.5 5v212q0 14 11 25
l56 57q3 3 5.5 4.5t4.5 3.5q6 2 15 2h259q5 0 10 -1q7 0 16 -9l57 -56q2 -2 3.5 -5t3.5 -5q3 -6 3 -16v-105q0 -14 -14 -14h-65q-15 0 -15 14v67q0 5 -4 9l-25 26q-2 2 -4 2h-192q-1 0 -5 -2l-24 -25q-3 -3 -3 -8v-139q0 -2 4 -8l23 -23q7 -5 11 -5h221q7 0 11 -1
q3 -1 6 -3.5t8 -6.5l57 -56q10 -12 10 -26v-209q0 -1 -0.5 -3.5t-0.5 -6.5q-1 -7 -10 -16zM270 764q-4 0 -9 3l-120 94q-3 3 -3 6t2 5l28 34q2 3 6 3q1 0 5 -2l91 -72l91 72q2 2 5 2q5 0 6 -3l28 -34q2 -2 2 -5t-3 -6l-120 -94q-4 -3 -9 -3z" />
    <glyph glyph-name="uni0170" unicode="&#x170;" horiz-adv-x="549" 
d="M482 698q14 0 14 -14v-592q0 -12 -11 -25l-56 -56q-11 -11 -25 -11h-258q-10 0 -16 3q-6 4 -10 8l-56 56q-11 13 -11 26v591q0 14 14 14h65q14 0 14 -14v-555l4 -7l26 -25q6 -4 9 -4h179q6 0 12 4l25 25l2 4v558q0 14 14 14h65zM150 807q-3 3 -3 8q2 5 4 6l114 95
q2 2 6 2q6 0 9 -4l24 -30q7 -7 -2 -15l-114 -94q-3 -3 -6 -3q-2 0 -8 4zM323 807q-3 4 -2 8q0 5 3 6l114 95q3 2 6 2q6 0 9 -4l24 -30q7 -7 -2 -15l-114 -94q-3 -3 -6 -3q-2 0 -8 4z" />
    <glyph glyph-name="uni0171" unicode="&#x171;" horiz-adv-x="549" 
d="M482 698q14 0 14 -14v-592q0 -12 -11 -25l-56 -56q-11 -11 -25 -11h-258q-10 0 -16 3q-6 4 -10 8l-56 56q-11 13 -11 26v591q0 14 14 14h65q14 0 14 -14v-555l4 -7l26 -25q6 -4 9 -4h179q6 0 12 4l25 25l2 4v558q0 14 14 14h65zM150 807q-3 3 -3 8q2 5 4 6l114 95
q2 2 6 2q6 0 9 -4l24 -30q7 -7 -2 -15l-114 -94q-3 -3 -6 -3q-2 0 -8 4zM323 807q-3 4 -2 8q0 5 3 6l114 95q3 2 6 2q6 0 9 -4l24 -30q7 -7 -2 -15l-114 -94q-3 -3 -6 -3q-2 0 -8 4z" />
    <glyph glyph-name="uni0178" unicode="&#x178;" horiz-adv-x="531" 
d="M526 694q5 -6 -1 -13l-213 -385v-282q0 -14 -11 -14h-70q-12 0 -12 14v283l-212 384q-5 8 -1 13q5 5 15 5h75q4 0 10 -4q1 -1 7 -9l153 -281l153 281q6 7 8 9q4 4 9 4h75q12 0 15 -5zM331 764q-7 0 -12 5t-5 12v57q0 7 5 11.5t12 4.5h46q7 0 11 -4q6 -5 6 -12v-57
q0 -17 -17 -17h-46zM155 764q-17 0 -17 17v57q0 7 5 11.5t12 4.5h46q7 0 11 -4q6 -5 6 -12v-57q0 -17 -17 -17h-46z" />
    <glyph glyph-name="uni017D" unicode="&#x17d;" horiz-adv-x="498" 
d="M49 0q-14 0 -14 14v67q0 5 3 9l308 514h-297q-7 0 -10 5q-4 4 -4 10v64q0 7 4 11q3 4 10 4h400q7 0 10.5 -4.5t3.5 -10.5v-61q0 -6 -5 -14l-309 -515h300q14 0 14 -14v-65q0 -14 -14 -14h-400zM249 764q-6 0 -9 3l-120 94q-3 3 -3 6t2 5l28 34q2 3 6 3q1 0 5 -2l91 -72
l91 72q2 2 5 2q5 0 6 -3l28 -34q2 -2 2 -5q0 -2 -4 -6l-120 -94q-3 -3 -8 -3z" />
    <glyph glyph-name="uni017E" unicode="&#x17e;" horiz-adv-x="498" 
d="M49 0q-14 0 -14 14v67q0 5 3 9l308 514h-297q-7 0 -10 5q-4 4 -4 10v64q0 7 4 11q3 4 10 4h400q7 0 10.5 -4.5t3.5 -10.5v-61q0 -6 -5 -14l-309 -515h300q14 0 14 -14v-65q0 -14 -14 -14h-400zM249 764q-6 0 -9 3l-120 94q-3 3 -3 6t2 5l28 34q2 3 6 3q1 0 5 -2l91 -72
l91 72q2 2 5 2q5 0 6 -3l28 -34q2 -2 2 -5q0 -2 -4 -6l-120 -94q-3 -3 -8 -3z" />
    <glyph glyph-name="uni02C6" unicode="&#x2c6;" horiz-adv-x="422" 
d="M282 909q5 0 9 -3l120 -95q3 -1 3 -5q0 -2 -2 -6l-28 -33q-1 -3 -6 -3q-3 0 -5 1l-91 72l-91 -72q-1 -1 -4 -1q-4 0 -7 3l-28 33q-1 2 -1 6t3 5l119 95q5 3 9 3z" />
    <glyph glyph-name="uni02C7" unicode="&#x2c7;" horiz-adv-x="422" 
d="M272 764q-4 0 -9 3l-120 94q-3 3 -3 6t2 5l28 34q2 3 6 3q3 0 5 -2l91 -72l91 72q4 2 5 2q5 0 6 -3l28 -34q2 -2 2 -5t-3 -6l-120 -94q-4 -3 -9 -3z" />
    <glyph glyph-name="uni02DC" unicode="&#x2dc;" horiz-adv-x="436" 
d="M331 848q1 0 2 1h4q6 0 14 3.5t13 7.5q8 5 14 15q4 4 6 4h52q9 0 7 -9q-2 -5 -3 -9.5t-3 -9.5l-4 -10t-5 -10q-14 -26 -39.5 -41t-55.5 -15q-23 0 -35 4q-6 2 -12 3.5t-11 3.5q-20 10 -44 10q-3 0 -6 -1q-5 0 -13 -3q-4 -1 -7 -3t-8 -4q-7 -6 -13 -16q-3 -4 -7 -4h-49
q-4 0 -7 3q-2 4 -1 6q5 18 14 36t23 32q17 15 32.5 21t38.5 6t36 -3l12 -4t11 -4q20 -10 44 -10z" />
    <glyph glyph-name="uni02DD" unicode="&#x2dd;" horiz-adv-x="457" 
d="M155 807q-3 3 -3 8q0 4 4 6l114 95q2 2 6 2q6 0 9 -4l24 -30q6 -8 -2 -15l-114 -94q-3 -3 -6 -3q-4 0 -8 4zM328 807q-3 3 -3 8q2 5 4 6l114 95q3 2 6 2q6 0 9 -4l24 -30q7 -7 -2 -15l-114 -94q-3 -3 -6 -3q-2 0 -8 4z" />
    <glyph glyph-name="uni2013" unicode="&#x2013;" horiz-adv-x="525" 
d="M57 313q-5 0 -8.5 4.5t-3.5 9.5v66q0 5 3.5 9.5t8.5 4.5h408q6 0 10.5 -4t4.5 -10v-66q0 -6 -4.5 -10t-10.5 -4h-408z" />
    <glyph glyph-name="uni2014" unicode="&#x2014;" horiz-adv-x="755" 
d="M57 313q-5 0 -8.5 4.5t-3.5 9.5v66q0 5 3.5 9.5t8.5 4.5h638q6 0 10.5 -4t4.5 -10v-66q0 -6 -4.5 -10t-10.5 -4h-638z" />
    <glyph glyph-name="uni2018" unicode="&#x2018;" horiz-adv-x="164" 
d="M49 586q-7 5 -10.5 9t-3.5 11v77q0 14 14 14h66q14 0 14 -14v-136q0 -4 -2.5 -7.5t-7.5 -3.5q-3 0 -8 3z" />
    <glyph glyph-name="uni2019" unicode="&#x2019;" horiz-adv-x="164" 
d="M53 539q-4 -3 -8 -3q-5 0 -7.5 3.5t-2.5 7.5v136q0 14 14 14h66q14 0 14 -14v-79q0 -5 -3.5 -9t-10.5 -9z" />
    <glyph glyph-name="uni201C" unicode="&#x201c;" horiz-adv-x="323" 
d="M208 586q-7 5 -10.5 9t-3.5 11v77q0 14 14 14h66q14 0 14 -14v-136q0 -4 -2.5 -7.5t-7.5 -3.5q-3 0 -8 3zM49 586q-7 5 -10.5 9t-3.5 11v77q0 14 14 14h66q14 0 14 -14v-136q0 -4 -2.5 -7.5t-7.5 -3.5q-3 0 -8 3z" />
    <glyph glyph-name="uni201D" unicode="&#x201d;" horiz-adv-x="323" 
d="M53 539q-4 -3 -8 -3q-5 0 -7.5 3.5t-2.5 7.5v136q0 14 14 14h66q14 0 14 -14v-77q0 -7 -3.5 -11t-10.5 -9zM212 539q-4 -3 -8 -3q-5 0 -7.5 3.5t-2.5 7.5v136q0 14 14 14h66q14 0 14 -14v-77q0 -7 -3.5 -11t-10.5 -9z" />
    <glyph glyph-name="uni2022" unicode="&#x2022;" horiz-adv-x="312" 
d="M251 280q-1 -8 -6.5 -13t-13.5 -5h-150q-8 0 -13.5 5t-6.5 13h-1v157q0 9 6 15t15 6h150q8 0 14.5 -6t6.5 -15v-157h-1z" />
    <glyph glyph-name="uni2044" unicode="&#x2044;" horiz-adv-x="493" 
d="M36 0q-8 0 -12.5 4.5t-0.5 12.5l342 667q3 6 6 10t8 4h82q5 0 9 -4.5t2 -9.5l-336 -670q-3 -5 -8 -9.5t-11 -4.5h-81z" />
    <glyph glyph-name="uni20AC" unicode="&#x20ac;" horiz-adv-x="546" 
d="M417 520q-14 0 -14 14v30q0 6 -4 9l-24 25q-2 2 -4 3h-143q-2 0 -4 -2l-25 -26q-2 -1 -4 -6v-99h225q10 0 8 -10l-11 -69q0 -4 -3.5 -7t-7.5 -3h-211v-65h197q10 0 8 -10l-11 -69q0 -4 -3.5 -7t-7.5 -3h-183v-97l4 -7l25 -25l7 -4h136l7 4l25 25l4 7v33q0 14 14 14h65
q13 0 13 -14v-71q0 -8 -2 -13t-8 -11l-56 -56q-10 -10 -25 -10h-208q-17 0 -27 10l-56 56q-6 7 -10 17q0 2 -0.5 4t-0.5 4v134h-79q-11 0 -9 10l11 69q2 10 12 10h65v65h-51q-11 0 -9 10l11 69q2 10 12 10h37v134q0 2 0.5 4t0.5 4q4 11 10 17l56 57q12 10 25 10h210
q13 0 25 -10l57 -56q9 -10 9 -26v-68q0 -14 -13 -14h-65z" />
    <glyph glyph-name="uni222B" unicode="&#x222b;" horiz-adv-x="541" 
d="M424 11q-11 -11 -25 -11h-256q-15 0 -26 11l-56 56q-5 5 -8 9.5t-3 15.5v109q0 5 4.5 9.5t9.5 4.5h65q6 0 10 -4.5t4 -9.5v-70q0 -5 5 -9l25 -25q3 -4 9 -4h182q4 0 8 4l24 23q2 2 2 5v94q0 7 -5 10l-332 191q-8 8 -10 14q0 3 -0.5 5.5t-0.5 5.5v161q0 14 11 25l56 57
q6 6 11.5 8t13.5 2h257q2 0 4 -0.5t6 -0.5q8 -1 15 -9l57 -56q3 -3 7 -11q1 -2 2 -6t1 -9v-111q0 -14 -14 -14h-65q-5 0 -9.5 4t-4.5 10v73q0 6 -4 9l-24 26l-4 2h-191q-3 0 -5 -2l-24 -25q-3 -3 -3 -8v-94q0 -4 4 -8l332 -190q8 -5 10 -12t2 -15v-158q0 -6 -1.5 -11.5
t-9.5 -14.5z" />
    </font>
</defs>
</svg>
