<?xml version="1.0" standalone="no"?>
<!DOCTYPE svg PUBLIC "-//W3C//DTD SVG 1.1//EN" "http://www.w3.org/Graphics/SVG/1.1/DTD/svg11.dtd" >
<svg xmlns="http://www.w3.org/2000/svg" xmlns:xlink="http://www.w3.org/1999/xlink" version="1.1">
<metadata>
Created by FontForge 20170731 at Wed Mar 18 14:17:35 2020
 By Aleksey,,,
</metadata>
<defs>
<font id="LiberatorSIROKO-Thin" horiz-adv-x="530" >
  <font-face 
    font-family="Liberator SIROKO 2"
    font-weight="390"
    font-stretch="normal"
    units-per-em="1000"
    panose-1="0 0 0 0 0 0 0 0 0 0"
    ascent="750"
    descent="-250"
    x-height="697"
    cap-height="698"
    bbox="-30.5 -177 971 920"
    underline-thickness="50"
    underline-position="-150"
    unicode-range="U+000D-FB02"
  />
<missing-glyph horiz-adv-x="350" 
 />
    <glyph glyph-name="uniFB01" unicode="fi" horiz-adv-x="695" 
d="M126 0q-6 0 -6 -5v5h-59v-5q0 5 -5 5h5v713h-5q5 0 5 5v-5h381v5q0 -5 6 -5h-6v-60h12q-12 0 -12 -5v5h-322v-266h274v5q0 -5 5 -5h-5v-60h5q-5 0 -5 -5v5h-274v-327h6zM639 0q-6 0 -6 -5v5h-59v-5q0 5 -5 5h5v713h-5q5 0 5 4v-4h59v4q0 -4 6 -4h-6v-713h6z" />
    <glyph glyph-name="uniFB02" unicode="fl" horiz-adv-x="993" 
d="M126 0q-6 0 -6 -5v5h-59v-5q0 5 -5 5h5v713h-5q5 0 5 5v-5h381v5q0 -5 6 -5h-6v-60h12q-12 0 -12 -5v5h-322v-266h274v5q0 -5 5 -5h-5v-60h5q-5 0 -5 -5v5h-274v-327h6zM971 0q-5 0 -5 -5v5h-392v-5q0 5 -5 5h5v713h-5q5 0 5 7v-7h59v7q0 -3 2 -5t4 -2h-6v-654h333v6
q0 -6 5 -6h-5v-59h5z" />
    <glyph glyph-name=".notdef" horiz-adv-x="350" 
 />
    <glyph glyph-name="uni0000" horiz-adv-x="0" 
 />
    <glyph glyph-name="uni0000" horiz-adv-x="0" 
 />
    <glyph glyph-name="uni000D" unicode="&#xd;" horiz-adv-x="254" 
 />
    <glyph glyph-name="uni0020" unicode=" " horiz-adv-x="254" 
 />
    <glyph glyph-name="uni0021" unicode="!" horiz-adv-x="170" 
d="M54 693q0 5 5 5h51q6 0 6 -5v-509q0 -6 -6 -6h-51q-5 0 -5 6v509zM59 0q-5 0 -5 5v71q0 5 5 5h51q6 0 6 -5v-71q0 -5 -6 -5h-51z" />
    <glyph glyph-name="uni0022" unicode="&#x22;" horiz-adv-x="315" 
d="M102 570h-50q-6 0 -6 6v117q0 5 6 5h50q5 0 5 -5v-117q0 -6 -5 -6zM260 570h-49q-6 0 -6 6v117q0 5 6 5h49q6 0 6 -5v-117q0 -6 -6 -6z" />
    <glyph glyph-name="uni0023" unicode="#" horiz-adv-x="745" 
d="M653 699q8 0 6 -8l-67 -184h95q5 0 5 -5v-50q0 -5 -5 -5h-116l-64 -178h180q5 0 5 -6v-49q0 -6 -5 -6h-202l-73 -204q-2 -4 -5 -4h-51q-3 0 -5 2.5t0 5.5l72 200h-198l-73 -205q-2 -4 -6 -4h-50q-8 0 -6 8l73 201h-102q-6 0 -6 6v49q0 6 6 6h124l63 178h-187q-6 0 -6 5
v50q0 5 6 5h209l68 188q0 4 5 4h50q8 0 6 -8l-66 -184h197l67 188q2 4 6 4h50zM508 447h-197l-64 -178h198z" />
    <glyph glyph-name="uni0024" unicode="$" horiz-adv-x="485" 
d="M430 317q5 -4 5 -14v-172q0 -13 -6 -19l-55 -55q-2 -2 -3.5 -3t-3.5 -2h-2q-1 -1 -5 -1h-81v-44q0 -6 -6 -6h-47q-6 0 -6 6v44h-92q-4 0 -5 0.5t-2 0.5q-2 1 -6 5l-56 55l-3 4.5t-2 2.5q0 2 -0.5 4t-0.5 4v89q0 6 6 6h48q6 0 6 -6v-57q0 -10 6 -16l24 -24q5 -5 10.5 -7
t9.5 -2h161q12 0 21 9l24 24q7 7 7 16v116q0 6 -5 11l-30 29q-5 5 -11 5h-204q-3 0 -5 1q-1 0 -1 1q-1 0 -5 4l-56 55q0 2 -2 2q-3 4 -4 11v172q0 2 0.5 4t0.5 4q1 1 2 2.5l3 4.5l56 55q4 4 6 5q1 0 2 0.5t5 0.5h92v50q0 6 6 6h47q6 0 6 -6v-50h81h5q1 -1 2 -1q2 -1 3.5 -2
t3.5 -3l55 -55q6 -6 6 -18v-91q0 -6 -6 -6h-48q-5 0 -5 6v62q0 9 -7 16l-24 24q-9 9 -21 9h-161q-4 0 -9.5 -2t-10.5 -7l-24 -24q-6 -6 -6 -16v-103q0 -4 1.5 -9t6.5 -11l23 -22q10 -10 23 -10h194q7 0 13 -6z" />
    <glyph glyph-name="uni0025" unicode="%" horiz-adv-x="517" 
d="M454 699q7 0 5 -8l-327 -688q-1 -3 -5 -3h-65q-3 0 -5 2.5t0 5.5l329 688q2 3 5 3h63zM58 618q-6 0 -6 6v69q0 6 6 6h65q6 0 6 -6v-69q0 -6 -6 -6h-65zM456 81q6 0 6 -6v-69q0 -6 -6 -6h-66q-6 0 -6 6v69q0 6 6 6h66z" />
    <glyph glyph-name="uni0026" unicode="&#x26;" horiz-adv-x="573" 
d="M551 319q0 -5 -6 -5h-67v-240q0 -4 -1 -5q0 -3 -5 -8l-55 -55q-3 -3 -7 -5q0 -1 -6 -1h-1v0h-282q-9 0 -14 6l-55 55q-6 6 -6 13v214v8q1 1 2 2.5t4 4.5l45 46q5 5 0 10l-45 45l-6 6v8v206v6q1 1 2 2.5t4 5.5l55 55q4 4 6 4q2 1 8 1h282h4q3 0 4 -1q2 0 6 -4l55 -55
q3 -4 4 -5.5t2 -2.5v-6v-92q0 -6 -5 -6h-54v1v62q-2 8 -5 11q0 1 -3 4v1q-1 0 -1 1l-25 26h-1q-2 2 -6 4.5t-11 2.5h-210q-7 0 -11 -2.5t-6 -4.5h-1l-25 -26l-1 -1v-1q-1 -2 -3 -4q-5 -8 -5 -17v-152q0 -12 10 -21l25 -25q9 -10 21 -10h384q6 0 6 -6v-50zM419 314h-258
q-12 0 -21 -10l-25 -25q-10 -9 -10 -21v-142q0 -10 5 -18q2 -2 3 -4v-1q1 0 1 -1l26 -26q2 -2 6 -4.5t11 -2.5h210q7 0 11 2.5t7 4.5l25 26l1 1v1q3 3 3 4q5 6 5 18v198z" />
    <glyph glyph-name="uni0027" unicode="'" horiz-adv-x="144" 
d="M96 570h-49q-6 0 -6 6v117q0 5 6 5h49q6 0 6 -5v-117q0 -6 -6 -6z" />
    <glyph glyph-name="uni0028" unicode="(" horiz-adv-x="261" 
d="M122 692q5 6 14 6h86q6 0 6 -6v-50q0 -5 -6 -5h-55q-12 0 -22 -8l-16 -16h-1q-8 -8 -8 -18v-497q0 -11 8 -19l19 -19h75q6 0 6 -5v-50q0 -5 -6 -5h-86q-7 0 -8 1q-2 0 -6 5l-56 56q-6 6 -6 14v546q0 5 1 8q0 2 5 7z" />
    <glyph glyph-name="uni0029" unicode=")" horiz-adv-x="260" 
d="M194 637q5 -5 5 -7q1 -3 1 -8v-546q0 -8 -6 -14l-56 -56q-4 -5 -6 -5q-1 -1 -8 -1h-86q-6 0 -6 5v50q0 5 6 5h75l19 19q8 8 8 19v497q0 10 -8 18h-1l-16 16q-10 8 -22 8h-55q-6 0 -6 5v50q0 6 6 6h86q10 0 14 -6z" />
    <glyph glyph-name="uni002A" unicode="*" horiz-adv-x="358" 
d="M312 615q4 -4 -1 -8l-92 -58l92 -58q4 -3 1 -8l-26 -38q-2 -2 -5 -2q-2 0 -3 1l-77 60l5 -96q0 -6 -6 -6h-45q-7 0 -5 6l5 96l-76 -59q-1 -1 -4 -1q-4 0 -5 2l-26 37q-3 5 2 8l91 58l-91 58q-6 4 -2 8l27 37q1 2 4 2t4 -1l76 -60l-6 98q0 6 6 6h46q5 0 5 -6l-5 -98l76 61
q1 1 4 1t5 -2z" />
    <glyph glyph-name="uni002B" unicode="+" horiz-adv-x="473" 
d="M261 550q6 0 6 -6v-149q0 -6 6 -6h150q6 0 6 -5v-50q0 -5 -6 -5h-150q-6 0 -6 -6v-150q0 -6 -6 -6h-48q-6 0 -6 6v150q0 6 -5 6h-150q-5 0 -5 5v50q0 5 5 5h150q5 0 5 6v149q0 6 6 6h48z" />
    <glyph glyph-name="uni002C" unicode="," horiz-adv-x="176" 
d="M62 65q0 6 5 6h49q5 0 5 -6v-117q0 -3 -2 -4l-4 -4l-44 -33q-1 -1 -4 -1q-5 0 -5 5v154z" />
    <glyph glyph-name="uni002D" unicode="-" horiz-adv-x="438" 
d="M57 331q-6 0 -6 6v49q0 6 6 6h329q6 0 6 -6v-49q0 -6 -6 -6h-329z" />
    <glyph glyph-name="uni002E" unicode="." horiz-adv-x="168" 
d="M60 0q-6 0 -6 6v62q0 6 6 6h48q6 0 6 -6v-62q0 -6 -6 -6h-48z" />
    <glyph glyph-name="uni002F" unicode="/" horiz-adv-x="487" 
d="M441 699q3 0 5 -2.5t0 -5.5l-326 -688q-1 -3 -6 -3h-64q-9 0 -5 8l329 688q2 3 5 3h62z" />
    <glyph glyph-name="uni0030" unicode="0" horiz-adv-x="531" 
d="M475 637q6 -6 6 -18v-539q0 -12 -6 -18l-55 -55q-2 -2 -3.5 -3t-3.5 -3h-1q-1 -1 -5 -1h-284q-4 0 -5 0.5t-2 0.5l-3 3l-3 3l-56 55l-3 4.5t-2 2.5q0 2 -0.5 3.5t-0.5 3.5v546q0 2 0.5 4t0.5 4q1 1 2 2.5l3 4.5l56 55q4 4 6 5q1 0 2 0.5t5 0.5h284h5q0 -1 1 -1q4 -2 7 -5
zM422 590q0 10 -7 16l-24 24q-7 9 -21 9h-212q-4 0 -9.5 -2t-10.5 -7l-24 -24q-6 -6 -6 -16v-481q0 -9 6 -17l24 -23q5 -6 10.5 -7.5t9.5 -1.5h212q14 0 21 9l24 23q7 7 7 17v481z" />
    <glyph glyph-name="uni0031" unicode="1" horiz-adv-x="215" 
d="M101 1q-6 0 -6 5v631h-50q-3 0 -4.5 3t0.5 6q8 11 20.5 27.5t16.5 22.5q2 2 5 2h68q6 0 6 -5v-687q0 -5 -6 -5h-50z" />
    <glyph glyph-name="uni0032" unicode="2" horiz-adv-x="546" 
d="M117 60h370q5 0 5 -5v-49q0 -6 -5 -6h-424q-5 0 -5 6v300q0 7 4 11l2 2l55 55q2 2 3 2.5t2 1.5q0 1 1 1q2 1 5 1h259q7 0 10 5l31 29q4 4 4 11v165q0 10 -7 16l-23 24q-9 9 -22 9h-215q-4 0 -9.5 -2t-10.5 -7l-24 -24q-6 -6 -6 -16v-67q0 -6 -6 -6h-48q-6 0 -6 6v99
q0 2 2 8q0 1 1 2t1.5 2t2.5 2l55 56q4 4 7 5l1 1h5h287h5q0 -1 1 -1q3 -1 7 -5l55 -56q6 -6 6 -18l1 -221q0 -9 -6 -14l-56 -56l-2 -2q-6 -4 -10 -4h-249q-13 0 -23 -10l-23 -22q-5 -6 -6.5 -11t-1.5 -9v-209z" />
    <glyph glyph-name="uni0033" unicode="3" horiz-adv-x="514" 
d="M421 360q-6 -4 0 -10l45 -46l4 -4q1 -1 1 -2q1 -2 1 -8v-215q0 -6 -6 -14l-56 -55q-6 -6 -14 -6h-282q-4 0 -5 0.5t-2 0.5q-2 1 -6 5l-56 55l-3 4.5t-2 2.5q0 2 -0.5 4t-0.5 4v95q0 6 6 6h48q6 0 6 -6v-63q0 -10 6 -16l24 -24q5 -5 10.5 -7t9.5 -2h212q6 0 10.5 2.5
t6.5 4.5l26 27v1h1q1 2 3 4q5 8 5 18v143q0 11 -10 21l-25 25q-9 10 -21 10h-155q-5 0 -5 6v50q0 5 5 5h155q11 0 21 10l25 25q10 10 10 21v150q0 10 -5 17q-1 1 -1.5 2t-1.5 2l-1 1v1l-26 26v1q-6 6 -17 6h-212q-4 0 -9 -1.5t-11 -7.5l-23 -23q-7 -7 -7 -17v-63q0 -5 -6 -5
h-48q-5 0 -5 5v96q0 5 1 7q0 2 5 7l55 56q2 2 3.5 2.5t3.5 2.5q1 0 2 1h4h282q3 0 5 -0.5t4 -0.5q1 -1 2 -1.5t3 -2.5l56 -56q2 -2 2.5 -3t1.5 -2t1 -2q1 -2 1 -5v-2v-203q0 -6 -1 -8q0 -2 -5 -7z" />
    <glyph glyph-name="uni0034" unicode="4" horiz-adv-x="557" 
d="M518 282q6 0 6 -6v-48q0 -5 -6 -5h-59v-217q0 -6 -6 -6h-50q-6 0 -6 6v217h-273q-3 0 -4 1h-2q-3 1 -7 5l-55 55q-5 5 -5 7q-1 3 -1 7v395q0 5 5 5h48q6 0 6 -5v-362q0 -10 7 -16l23 -24q10 -9 20 -9h238v411q0 5 6 5h50q6 0 6 -5v-411h59z" />
    <glyph glyph-name="uni0035" unicode="5" horiz-adv-x="546" 
d="M488 336q5 -5 5 -14v-242q0 -12 -6 -18l-55 -55q-2 -2 -3.5 -3t-3.5 -2q0 -1 -7 -1h-286q-4 0 -5 1h-2q-2 1 -6 5l-56 55l-3 4.5t-2 2.5q0 2 -0.5 3.5t-0.5 3.5v96q0 5 6 5h48q5 0 5 -5v-63q0 -8 7 -17l24 -23q5 -6 10 -7.5t9 -1.5h216q14 0 21 9l24 23q7 7 7 17v184
q0 8 -5 11l-30 30q-6 4 -11 4h-258q-3 0 -5 1q-1 0 -1 1q-1 1 -2 1.5t-3 2.5l-56 55q0 1 -2 3q-4 4 -4 11v280q0 5 6 5h424q6 0 6 -5v-49q0 -6 -6 -6h-371v-189q0 -10 9 -19l23 -23q10 -10 22 -10h250q6 0 9 -4q1 0 3 -2z" />
    <glyph glyph-name="uni0036" unicode="6" horiz-adv-x="523" 
d="M479 336v-6v-254q0 -5 -1 -8q0 -2 -5 -7l-55 -55q-3 -3 -7 -5h-1q-1 -1 -5 -1h-283q-8 0 -14 6l-55 55q-7 7 -7 14v548q0 1 1 2v5l2 2t1.5 2t2.5 3l55 56l6 4q2 0 4 0.5t4 0.5h282q4 0 5 -0.5t2 -0.5q2 -2 3 -2.5t3 -2.5l56 -56l3 -4.5t2 -2.5q1 -2 1 -7v-96q0 -5 -6 -5
h-48q-5 0 -5 5v63q0 8 -7 17l-24 23q-5 6 -10.5 7.5t-9.5 1.5h-211q-7 0 -11 -2t-7 -4v-1l-25 -26l-1 -1v-1q-3 -1 -3 -4q-5 -5 -5 -17v-178h56h154v0h88q6 0 8 -1q2 0 6 -4l55 -55q3 -4 4 -5.5t2 -2.5zM420 287q0 9 -5 17q-2 2 -3 4v1q-1 0 -1 1l-25 26h-1q-2 2 -6 4.5
t-11 2.5h-52v0h-210v-227q0 -12 5 -18q0 -1 4 -5l25 -27q3 -2 7 -4.5t11 -2.5h212q10 0 19 9l24 24q7 6 7 16v179z" />
    <glyph glyph-name="uni0037" unicode="7" horiz-adv-x="480" 
d="M259 4q-1 -4 -6 -4h-56q-8 0 -6 7l176 628h-329q-6 0 -6 6v50q0 6 6 6l404 -1q8 0 6 -7q-4 -13 -13 -47.5t-22.5 -81.5t-29 -104t-31.5 -115.5t-31.5 -114.5t-28.5 -102t-21.5 -78t-11.5 -42z" />
    <glyph glyph-name="uni0038" unicode="8" horiz-adv-x="519" 
d="M422 359q-6 -4 0 -10l45 -46l4 -4q0 -1 1 -2q0 -2 0.5 -3.5t0.5 -4.5v-214q0 -2 -0.5 -3t-0.5 -3q-2 -4 -5 -8l-56 -55q-4 -4 -7 -5h-1q-1 -1 -5 -1h-1v0h-281q-8 0 -14 6l-56 55q-6 8 -6 14v214q0 6 1 8q0 1 1 2l4 4l45 46q6 6 0 10l-45 45q-5 5 -5 7q-1 2 -1 8v204v2
q0 1 0.5 2t0.5 3q0 1 1 2t1.5 2t2.5 3l56 56q2 2 3 2.5t2 1.5q2 0 4 0.5t5 0.5h281v0h1q2 0 3 -1h5q0 -1 5 -4l55 -56l3 -3l2 -2t1 -2q1 -2 1 -5v-2v-204q0 -9 -6 -15zM99 431q0 -11 10 -21l25 -25q10 -10 21 -10h202q10 0 22 10l25 25q9 9 9 21v79v78q-2 8 -4 11
q-1 1 -1.5 2t-1.5 2l-1 1q0 1 -1 1l-25 26v1q-6 6 -18 6h-210q-11 0 -17 -6v-1l-26 -26q0 -1 -1 -1v-1q-1 -1 -1.5 -2t-1.5 -2q-5 -7 -5 -17v-151zM134 66q2 -2 6.5 -4.5t10.5 -2.5h210q7 0 11.5 2.5t6.5 4.5l25 27q1 0 1 1h1q1 2 3 4q4 7 4 18v142q0 12 -9 21l-25 25
q-10 10 -22 10h-202q-12 0 -21 -10l-25 -25q-10 -10 -10 -21v-142q0 -10 5 -18q2 -2 4 -5z" />
    <glyph glyph-name="uni0039" unicode="9" horiz-adv-x="525" 
d="M48 358v5q-1 1 -1 2v257q0 3 2 7q0 2 5 7l55 56q2 2 3.5 2.5t3.5 2.5q1 0 2 1h4h283q7 0 14 -6l55 -56q6 -6 6 -13v-548v-7q-1 -1 -2 -2.5t-4 -5.5l-55 -55q-4 -4 -6 -4q-2 -1 -8 -1h-282q-4 0 -5 1h-2q-2 1 -3.5 2t-3.5 3l-55 55q-5 5 -5 7q-1 3 -1 8v95q0 6 6 6h48
q5 0 5 -6v-63q0 -9 7 -16l24 -24q9 -9 19 -9h212q7 0 11 2.5t6 4.5h1l25 27q2 3 4 5q5 8 5 17v175h-56h-154v0h-88q-2 0 -4 0.5t-4 0.5q-1 1 -2.5 1.5t-3.5 2.5l-55 55l-4 6zM107 408q0 -12 5 -17q0 -2 3 -4v-1l1 -1l25 -27q3 -2 7 -4.5t11 -2.5h52v0h210v230q0 11 -5 18
q-1 1 -1.5 2t-1.5 2v1l-1 1l-26 27q-6 6 -17 6h-212q-4 0 -9 -1.5t-11 -7.5l-23 -23q-7 -7 -7 -17v-181z" />
    <glyph glyph-name="uni003A" unicode=":" horiz-adv-x="168" 
d="M108 75q6 0 6 -6v-62q0 -6 -6 -6h-48q-6 0 -6 6v62q0 6 6 6h48zM108 354q6 0 6 -5v-63q0 -6 -6 -6h-48q-6 0 -6 6v63q0 5 6 5h48z" />
    <glyph glyph-name="uni003B" unicode=";" horiz-adv-x="176" 
d="M62 68q0 6 6 6h48q6 0 6 -6v-116q0 -3 -1 -4t-2 -1.5t-3 -2.5l-44 -33q-1 -1 -4 -1q-6 0 -6 5v153zM68 279q-6 0 -6 6v63q0 5 6 5h48q6 0 6 -5v-63q0 -6 -6 -6h-48z" />
    <glyph glyph-name="uni003C" unicode="&#x3c;" horiz-adv-x="463" 
d="M401 514q0 -3 -3 -5l-299 -148l299 -149q3 -1 3 -5v-53q0 -6 -5 -6q-1 0 -1.5 0.5t-1.5 0.5q-12 6 -40.5 19.5t-64 31t-74.5 36t-73.5 35t-59.5 29l-33 16.5q-3 2 -3 5v79q0 4 3 5l345 168q1 0 1.5 0.5t1.5 0.5q5 0 5 -6v-54z" />
    <glyph glyph-name="uni003D" unicode="=" horiz-adv-x="522" 
d="M63 251q-6 0 -6 6v50q0 6 6 6h399q6 0 6 -6v-50q0 -6 -6 -6h-399zM63 408q-6 0 -6 6v51q0 5 6 5h399q6 0 6 -5v-51q0 -6 -6 -6h-399z" />
    <glyph glyph-name="uni003E" unicode="&#x3e;" horiz-adv-x="462" 
d="M63 568q0 6 5 6q1 0 1.5 -0.5t1.5 -0.5l345 -168q3 -1 3 -5v-79q0 -3 -3 -5l-33 -16.5t-59.5 -29t-73.5 -35t-74.5 -36t-64 -31t-40.5 -19.5q-1 0 -1.5 -0.5t-1.5 -0.5q-5 0 -5 6v53q0 4 3 5l299 149l-299 148q-3 2 -3 5v54z" />
    <glyph glyph-name="uni003F" unicode="?" horiz-adv-x="516" 
d="M469 327q0 -5 -6 -5h-199v-138q0 -6 -5 -6h-51q-5 0 -5 6v196q0 5 5 5h202v196q0 6 -2 12.5t-7 11.5l-26 27q-6 6 -17 6h-212q-4 0 -9 -1.5t-11 -7.5l-23 -23q-7 -7 -7 -17v-74q0 -5 -6 -5h-48q-6 0 -6 5v107q0 3 2 7q0 2 5 7l55 56q2 2 3.5 2.5t3.5 2.5q1 0 2 1h4h283
q7 0 14 -6l55 -56q6 -6 6 -13v-296zM208 0q-5 0 -5 5v71q0 5 5 5h51q5 0 5 -5v-71q0 -5 -5 -5h-51z" />
    <glyph glyph-name="uni0040" unicode="@" horiz-adv-x="616" 
d="M256 264q-2 6 -2 8v165q0 5 2 8t5 7l55 55q4 4 6 4q2 1 8 1h160v70q0 13 -8 21l-27 29q-6 6 -17 6h-275q-4 0 -9 -1.5t-10 -6.5l-24 -24q-7 -7 -7 -17v-481q0 -10 7 -16l24 -24q9 -9 19 -9h377q6 0 6 -6v-48q0 -5 -6 -5h-412q-3 0 -4 1h-2q-4 2 -7 5l-55 55q-5 5 -5 7
q-1 3 -1 7v547q0 5 1 8q0 1 1 2t1.5 2t2.5 2l55 56q3 3 7 5q1 0 2 1h4h345q10 0 16 -6l54 -55q6 -6 6 -16v-350q0 -6 -6 -14l-55 -55q-7 -6 -15 -6h-144q-3 0 -4 1h-2q-3 1 -7 5l-55 55q-5 5 -5 7zM314 304q0 -10 7 -16l23 -24q10 -9 20 -9h74q6 0 10.5 2.5t6.5 4.5
q8 8 14.5 15t15.5 17q5 8 5 18v139h-124q-7 0 -11 -2.5t-7 -4.5l-26 -28q-5 -6 -6.5 -9.5t-1.5 -11.5v-91z" />
    <glyph glyph-name="uni0041" unicode="A" horiz-adv-x="574" 
d="M431 174h-296l-52 -172q0 -2 -3 -2h-51q-2 0 -3 1q-1 2 0 3l201 691q2 3 3 3h99q2 0 3 -3l211 -691q0 -2 -1 -3t-2 -1h-51q-3 0 -3 2zM413 233l-124 402h-13l-123 -402h260z" />
    <glyph glyph-name="uni0042" unicode="B" horiz-adv-x="518" 
d="M414 6q-6 -6 -14 -6h-336q-5 0 -5 5v687q0 6 5 6h336q5 0 9 -2q2 0 5 -4l56 -55q5 -6 5 -8q1 -2 1 -4v-2v-204q0 -5 -1 -7q0 -2 -5 -7l-45 -45q-6 -4 0 -10l45 -46q5 -5 5 -7q1 -1 1 -7v-215q0 -6 -6 -14zM118 384q0 -8 7 -8h236q11 0 21 10l25 25q10 10 10 21v150
q0 10 -5 17q-2 2 -3 4v1l-1 1l-26 26q-5 7 -17 7h-240q-7 0 -7 -7v-247zM365 59q6 0 10.5 2.5t6.5 4.5l26 26q0 1 1 2q1 2 3 4q5 8 5 18v143q0 11 -10 21l-25 25q-9 10 -21 10h-236q-7 0 -7 -8v-240q0 -8 7 -8h240z" />
    <glyph glyph-name="uni0043" unicode="C" horiz-adv-x="524" 
d="M424 173q0 5 5 5h49q5 0 5 -5v-93q0 -12 -6 -18l-55 -55q-2 -2 -3.5 -3t-3.5 -2h-2q-1 -1 -5 -1h-286q-4 0 -5 0.5t-2 0.5q-2 1 -6 5l-56 55l-3 4.5t-2 2.5q0 2 -0.5 3.5t-0.5 3.5v547q0 2 0.5 3.5t0.5 3.5q1 1 2 2.5l3 4.5l56 55l3 3l3 3h7h286h7q2 -2 3.5 -3t3.5 -3
l55 -55q6 -6 6 -18v-88q0 -5 -5 -5h-49q-5 0 -5 5v59q0 8 -7 17l-24 23q-7 9 -21 9h-215q-4 0 -9.5 -1.5t-10.5 -7.5l-24 -23q-7 -9 -7 -17v-481q0 -9 7 -16l24 -24q5 -5 10.5 -7t9.5 -2h215q14 0 21 9l24 24q7 7 7 16v64z" />
    <glyph glyph-name="uni0044" unicode="D" horiz-adv-x="520" 
d="M468 636q6 -6 6 -18v-539q0 -12 -6 -18l-56 -55q-4 -4 -6 -5q-1 0 -2 -0.5t-5 -0.5h-336q-6 0 -6 5v687q0 6 6 6h336q4 0 5 -0.5t2 -0.5l3 -3l3 -3zM414 589q0 10 -6 17l-24 23q-9 9 -22 9h-245v-579h245q13 0 22 9l24 24q6 6 6 16v481z" />
    <glyph glyph-name="uni0045" unicode="E" horiz-adv-x="468" 
d="M434 59q6 0 6 -5v-48q0 -6 -6 -6h-373q-5 0 -5 6v686q0 6 5 6h373q6 0 6 -6v-48q0 -6 -6 -6h-319v-258h260q6 0 6 -6v-48q0 -6 -6 -6h-260v-261h319z" />
    <glyph glyph-name="uni0046" unicode="F" horiz-adv-x="474" 
d="M115 6q0 -6 -6 -6h-48q-6 0 -6 6v686q0 6 6 6h373q6 0 6 -6v-48q0 -6 -6 -6h-319v-258h275q5 0 5 -6v-48q0 -5 -5 -5h-275v-315z" />
    <glyph glyph-name="uni0047" unicode="G" horiz-adv-x="536" 
d="M427 483q-6 0 -6 5v101q0 11 -6 17l-24 24q-9 9 -22 9h-215q-10 0 -19 -9l-24 -24q-7 -6 -7 -17v-480q0 -11 7 -17l24 -24q9 -9 19 -9h215q13 0 22 9l24 24q6 6 6 17v170h-126q-6 0 -6 5v48q0 6 6 6h186v-258q0 -12 -6 -18l-56 -56q-4 -4 -6 -5q-1 0 -2 -0.5t-5 -0.5
h-287q-3 0 -4 1h-2q-4 2 -7 5l-55 56l-4 4q-1 1 -1 2q-1 3 -1 8v546q0 5 1 8q0 1 1 2t1.5 2t2.5 2l55 56q3 3 7 5q1 0 2 1h4h287q4 0 5 -0.5t2 -0.5q2 -1 6 -5l56 -56q6 -6 6 -18v-130q0 -5 -6 -5h-48z" />
    <glyph glyph-name="uni0048" unicode="H" horiz-adv-x="551" 
d="M116 6q0 -5 -5 -5h-48q-6 0 -6 5v687q0 5 6 5h48q5 0 5 -5v-312h317v312q0 5 6 5h48q6 0 6 -5v-687q0 -5 -6 -5h-48q-6 0 -6 5v315h-317v-315z" />
    <glyph glyph-name="uni0049" unicode="I" horiz-adv-x="181" 
d="M67 0q-6 0 -6 6v686q0 6 6 6h48q6 0 6 -6v-686q0 -6 -6 -6h-48z" />
    <glyph glyph-name="uni004A" unicode="J" horiz-adv-x="499" 
d="M387 692q0 6 6 6h48q5 0 5 -6v-612q0 -11 -6 -19l-55 -55q-3 -3 -7 -5h-1q-1 -1 -5 -1h-260q-4 0 -5 0.5t-2 0.5q-2 1 -6 5l-56 55q-4 5 -4 7q-2 6 -2 8v139q0 5 6 5h48q6 0 6 -5v-107q0 -10 6 -16l24 -24q5 -5 10.5 -7t9.5 -2h188q13 0 22 9l23 24q7 6 7 16v584z" />
    <glyph glyph-name="uni004B" unicode="K" horiz-adv-x="492" 
d="M120 5q0 -5 -5 -5h-48q-6 0 -6 5v687q0 6 6 6h48q5 0 5 -6v-330l251 333q2 3 4 3h72q4 0 5 -3.5t-1 -5.5l-176 -233l201 -448q2 -8 -6 -8h-59q-4 0 -6 3l-175 395l-110 -141v-252z" />
    <glyph glyph-name="uni004C" unicode="L" horiz-adv-x="472" 
d="M448 59q6 0 6 -6v-48q0 -5 -6 -5h-383q-5 0 -5 5v687q0 6 5 6h48q6 0 6 -6v-633h329z" />
    <glyph glyph-name="uni004D" unicode="M" horiz-adv-x="655" 
d="M112 5q-2 -5 -6 -5h-48q-6 0 -6 6l24 686q0 6 5 6h59q5 0 5 -5l195 -626l182 626q2 5 5 5h59q6 0 6 -6l23 -686q0 -6 -6 -6h-49q-5 0 -5 5l-10 559l-168 -560q-1 -4 -6 -4h-56q-5 0 -5 4l-187 569z" />
    <glyph glyph-name="uni004E" unicode="N" horiz-adv-x="538" 
d="M422 692q0 6 6 6h49q5 0 5 -6v-686q0 -6 -5 -6h-70q-5 0 -5 3l-18 40.5t-35 76.5t-46.5 100t-51.5 110q-60 130 -135 290v-614q0 -6 -5 -6h-48q-6 0 -6 6v686q0 6 6 6h81q3 0 5 -4q4 -9 17.5 -39t33.5 -72.5t44 -94t49 -104.5q58 -123 129 -274v582z" />
    <glyph glyph-name="uni004F" unicode="O" 
d="M476 636q6 -6 6 -18v-539q0 -12 -6 -18l-55 -55q-3 -3 -7 -5h-1q-1 -1 -5 -1h-287q-4 0 -5 1h-1q-3 1 -7 5l-56 55q-4 5 -4 7q-2 6 -2 7v547q0 3 2 7q0 2 4 7l56 55q2 2 7 6h6h287h6q2 -2 3.5 -3t3.5 -3zM423 589q0 10 -7 17l-23 23q-9 9 -22 9h-215q-4 0 -9.5 -1.5
t-10.5 -7.5l-24 -23q-6 -7 -6 -17v-481q0 -10 6 -16l24 -24q5 -5 10.5 -7t9.5 -2h215q13 0 22 9l23 24q7 6 7 16v481z" />
    <glyph glyph-name="uni0050" unicode="P" horiz-adv-x="512" 
d="M472 629q1 -2 1 -4v-2v-260q0 -7 -6 -13l-55 -56q-7 -6 -15 -6h-282v-283q0 -5 -5 -5h-49q-5 0 -5 5v687q0 6 5 6h336q5 0 9 -2q2 0 6 -4l55 -55q5 -6 5 -8zM414 582q0 10 -5 17q-2 2 -3 4v1l-1 1l-26 26q-5 7 -17 7h-239q-8 0 -8 -7v-276q0 -8 8 -8h239q7 0 11 2.5
t6 4.5q8 8 14 15q5 5 10 10.5t6 7.5q5 5 5 17v178z" />
    <glyph glyph-name="uni0051" unicode="Q" horiz-adv-x="528" 
d="M486 -63h-53q-3 3 -6 7l-42 56h-269q-6 0 -6 1q-5 2 -7 5l-56 56q-2 2 -3 3.5t-2 2.5q0 2 -0.5 4t-0.5 4v545q0 2 0.5 4t0.5 4q1 1 2 2.5l3 4.5l56 55q2 2 7 6q1 0 2 1h4h289h5q0 -1 1 -1q2 -2 3.5 -3t3.5 -3l56 -55q6 -6 6 -19v-537q0 -12 -6 -18l-41 -41zM368 59
q12 0 21 9l24 24q7 6 7 17v480q0 10 -7 16l-24 24q-9 9 -21 9h-217q-10 0 -19 -9l-24 -24q-7 -6 -7 -16v-480q0 -11 7 -17l24 -24q9 -9 19 -9h217z" />
    <glyph glyph-name="uni0052" unicode="R" horiz-adv-x="525" 
d="M505 8q2 -3 0 -5.5t-5 -2.5h-56q-3 0 -5 3l-110 283h-219v-281q0 -5 -6 -5h-48q-5 0 -5 5v687q0 6 5 6h336q5 0 9 -2q2 0 5 -4l56 -55q5 -6 5 -8q1 -2 1 -4v-2l-1 -258q0 -7 -6 -13l-68 -65zM110 355q0 -8 7 -8h240q6 0 10.5 2.5t6.5 4.5q7 8 14 15q5 5 9.5 10.5t6.5 7.5
q5 7 5 17v178q0 10 -5 17q-2 2 -3 4l-1 1v1l-26 26q-5 7 -17 7h-240q-7 0 -7 -7v-276z" />
    <glyph glyph-name="uni0053" unicode="S" horiz-adv-x="536" 
d="M485 80q0 -12 -6 -18l-56 -55q-4 -4 -6 -5q-1 0 -2 -0.5t-5 -0.5h-286q-4 0 -5 1h-2q-2 1 -3.5 2t-3.5 3l-55 55q-5 5 -5 7q-1 3 -1 7v90q0 6 5 6h49q5 0 5 -6v-57q0 -9 7 -16l24 -24q9 -9 19 -9h216q12 0 21 9l24 24q7 7 7 16v166q0 6 -5 11l-30 30q-6 4 -11 4h-258
q-3 0 -5 1q-1 0 -1 1q-1 1 -2 1.5t-3 2.5l-56 56q-2 0 -4 5.5t-2 7.5v228q0 5 1 7q0 2 5 7l55 55q2 2 3.5 3t3.5 3h7h286h7l3 -3l3 -3l56 -55q6 -6 6 -18v-91q0 -5 -6 -5h-48q-5 0 -5 5v62q0 8 -7 17l-24 23q-9 9 -21 9h-216q-4 0 -9 -1.5t-10 -7.5l-24 -23q-7 -9 -7 -17
v-159q0 -10 9 -19l23 -23q10 -10 22 -10h249q6 0 10 -4q1 0 3 -2l56 -55q5 -7 5 -14v-224z" />
    <glyph glyph-name="uni0054" unicode="T" horiz-adv-x="476" 
d="M33 638q-6 0 -6 6v49q0 5 6 5h410q6 0 6 -5v-49q0 -6 -6 -6h-175v-633q0 -5 -6 -5h-49q-5 0 -5 5v633h-175z" />
    <glyph glyph-name="uni0055" unicode="U" horiz-adv-x="545" 
d="M431 693q0 5 5 5h48q6 0 6 -5v-614q0 -12 -6 -18l-56 -55q-4 -4 -6 -5q-1 0 -2 -0.5t-5 -0.5h-286q-4 0 -5 1h-2q-2 1 -6 5l-56 55l-3 4.5t-2 2.5q0 2 -0.5 3.5t-0.5 3.5v618q0 5 6 5h48q5 0 5 -5v-585q0 -8 7 -17l24 -23q5 -5 10.5 -7t8.5 -2h216q12 0 21 9l24 23
q7 9 7 17v585z" />
    <glyph glyph-name="uni0056" unicode="V" horiz-adv-x="484" 
d="M290 4q-2 -4 -5 -4h-83q-4 0 -6 4l-172 686q-2 8 5 8h49q5 0 5 -5l102 -392l58 -241l59 241l101 392q2 5 6 5h48q8 0 6 -8z" />
    <glyph glyph-name="uni0057" unicode="W" horiz-adv-x="643" 
d="M97 0q-6 0 -6 5l-51 686q-1 6 5 6h48q6 0 6 -5l47 -634l129 421q0 1 0.5 1.5t0.5 1.5h85q0 -2 1 -3l128 -421l48 634q0 5 6 5h49q5 0 5 -6l-52 -686q0 -5 -6 -5h-97q-2 0 -2 2h-1l-121 402l-122 -401v-1q0 -2 -3 -2h-97z" />
    <glyph glyph-name="uni0058" unicode="X" horiz-adv-x="473" 
d="M398 0q-3 0 -5 3l-152 289l-150 -289q-1 -3 -5 -3h-50q-3 0 -5 2.5t0 5.5l170 352l-164 329q-2 3 0 5.5t5 2.5h57q5 0 6 -3l136 -263l138 263q2 3 5 3h58q3 0 5 -2.5t0 -5.5l-165 -329l171 -352q2 -3 0 -5.5t-5 -2.5h-50z" />
    <glyph glyph-name="uni0059" unicode="Y" horiz-adv-x="526" 
d="M270 392q45 77 82 140q16 27 31.5 53.5t28.5 49t22.5 38.5t12.5 22q2 3 5 3h57q4 0 5.5 -3t-0.5 -6l-215 -372v-311q0 -6 -5 -6h-48q-6 0 -6 6v312l-214 371q-2 3 0 6t5 3h57q4 0 5 -3z" />
    <glyph glyph-name="uni005A" unicode="Z" horiz-adv-x="493" 
d="M449 59q6 0 6 -5v-48q0 -6 -6 -6h-410q-6 0 -6 6v57l351 574h-345q-6 0 -6 6v49q0 6 6 6h410q6 0 6 -6v-53l-3 -6l-351 -574h348z" />
    <glyph glyph-name="uni005C" unicode="\" horiz-adv-x="492" 
d="M112 699q4 0 5 -3l329 -688q4 -8 -5 -8h-64q-4 0 -6 3l-326 688q-2 3 0 5.5t5 2.5h62z" />
    <glyph glyph-name="uni005E" unicode="^" horiz-adv-x="574" 
d="M79 340q-8 0 -6 8l169 346q2 3 5 3h79q4 0 5 -3q4 -8 16 -33.5t28.5 -59.5t35 -73t36 -75t31 -64.5t19.5 -40.5q2 -3 0 -5.5t-5 -2.5h-53q-3 0 -5 3l-148 300l-148 -300q-1 -3 -5 -3h-54z" />
    <glyph glyph-name="uni0060" unicode="`" horiz-adv-x="279" 
d="M153 882q-3 3 0 8l25 26q4 2 5 2q2 0 2.5 -0.5t1.5 -0.5l110 -103q3 -3 0 -8l-25 -26q-1 -1 -4 -1q-4 0 -4 1z" />
    <glyph glyph-name="uni0061" unicode="a" horiz-adv-x="574" 
d="M431 174h-296l-52 -172q0 -2 -3 -2h-51q-2 0 -3 1q-1 2 0 3l201 691q2 3 3 3h99q2 0 3 -3l211 -691q0 -2 -1 -3t-2 -1h-51q-3 0 -3 2zM413 233l-124 402h-13l-123 -402h260z" />
    <glyph glyph-name="uni0062" unicode="b" horiz-adv-x="518" 
d="M414 6q-6 -6 -14 -6h-336q-5 0 -5 5v687q0 6 5 6h336q5 0 9 -2q2 0 5 -4l56 -55q5 -6 5 -8q1 -2 1 -4v-2v-204q0 -5 -1 -7q0 -2 -5 -7l-45 -45q-6 -4 0 -10l45 -46q5 -5 5 -7q1 -1 1 -7v-215q0 -6 -6 -14zM118 384q0 -8 7 -8h236q11 0 21 10l25 25q10 10 10 21v150
q0 10 -5 17q-2 2 -3 4v1l-1 1l-26 26q-5 7 -17 7h-240q-7 0 -7 -7v-247zM365 59q6 0 10.5 2.5t6.5 4.5l26 26q0 1 1 2q1 2 3 4q5 8 5 18v143q0 11 -10 21l-25 25q-9 10 -21 10h-236q-7 0 -7 -8v-240q0 -8 7 -8h240z" />
    <glyph glyph-name="uni0063" unicode="c" horiz-adv-x="524" 
d="M424 173q0 5 5 5h49q5 0 5 -5v-93q0 -12 -6 -18l-55 -55q-2 -2 -3.5 -3t-3.5 -2h-2q-1 -1 -5 -1h-286q-4 0 -5 0.5t-2 0.5q-2 1 -6 5l-56 55l-3 4.5t-2 2.5q0 2 -0.5 3.5t-0.5 3.5v547q0 2 0.5 3.5t0.5 3.5q1 1 2 2.5l3 4.5l56 55l3 3l3 3h7h286h7q2 -2 3.5 -3t3.5 -3
l55 -55q6 -6 6 -18v-88q0 -5 -5 -5h-49q-5 0 -5 5v59q0 8 -7 17l-24 23q-7 9 -21 9h-215q-4 0 -9.5 -1.5t-10.5 -7.5l-24 -23q-7 -9 -7 -17v-481q0 -9 7 -16l24 -24q5 -5 10.5 -7t9.5 -2h215q14 0 21 9l24 24q7 7 7 16v64z" />
    <glyph glyph-name="uni0064" unicode="d" horiz-adv-x="520" 
d="M468 636q6 -6 6 -18v-539q0 -12 -6 -18l-56 -55q-4 -4 -6 -5q-1 0 -2 -0.5t-5 -0.5h-336q-6 0 -6 5v687q0 6 6 6h336q4 0 5 -0.5t2 -0.5l3 -3l3 -3zM414 589q0 10 -6 17l-24 23q-9 9 -22 9h-245v-579h245q13 0 22 9l24 24q6 6 6 16v481z" />
    <glyph glyph-name="uni0065" unicode="e" horiz-adv-x="468" 
d="M434 59q6 0 6 -5v-48q0 -6 -6 -6h-373q-5 0 -5 6v686q0 6 5 6h373q6 0 6 -6v-48q0 -6 -6 -6h-319v-258h260q6 0 6 -6v-48q0 -6 -6 -6h-260v-261h319z" />
    <glyph glyph-name="uni0066" unicode="f" horiz-adv-x="474" 
d="M115 6q0 -6 -6 -6h-48q-6 0 -6 6v686q0 6 6 6h373q6 0 6 -6v-48q0 -6 -6 -6h-319v-258h275q5 0 5 -6v-48q0 -5 -5 -5h-275v-315z" />
    <glyph glyph-name="uni0067" unicode="g" horiz-adv-x="536" 
d="M427 483q-6 0 -6 5v101q0 11 -6 17l-24 24q-9 9 -22 9h-215q-10 0 -19 -9l-24 -24q-7 -6 -7 -17v-480q0 -11 7 -17l24 -24q9 -9 19 -9h215q13 0 22 9l24 24q6 6 6 17v170h-126q-6 0 -6 5v48q0 6 6 6h186v-258q0 -12 -6 -18l-56 -56q-4 -4 -6 -5q-1 0 -2 -0.5t-5 -0.5
h-287q-3 0 -4 1h-2q-4 2 -7 5l-55 56l-4 4q-1 1 -1 2q-1 3 -1 8v546q0 5 1 8q0 1 1 2t1.5 2t2.5 2l55 56q3 3 7 5q1 0 2 1h4h287q4 0 5 -0.5t2 -0.5q2 -1 6 -5l56 -56q6 -6 6 -18v-130q0 -5 -6 -5h-48z" />
    <glyph glyph-name="uni0068" unicode="h" horiz-adv-x="551" 
d="M116 6q0 -5 -5 -5h-48q-6 0 -6 5v687q0 5 6 5h48q5 0 5 -5v-312h317v312q0 5 6 5h48q6 0 6 -5v-687q0 -5 -6 -5h-48q-6 0 -6 5v315h-317v-315z" />
    <glyph glyph-name="uni0069" unicode="i" horiz-adv-x="181" 
d="M67 0q-6 0 -6 6v686q0 6 6 6h48q6 0 6 -6v-686q0 -6 -6 -6h-48z" />
    <glyph glyph-name="uni006A" unicode="j" horiz-adv-x="499" 
d="M387 692q0 6 6 6h48q5 0 5 -6v-612q0 -11 -6 -19l-55 -55q-3 -3 -7 -5h-1q-1 -1 -5 -1h-260q-4 0 -5 0.5t-2 0.5q-2 1 -6 5l-56 55q-4 5 -4 7q-2 6 -2 8v139q0 5 6 5h48q6 0 6 -5v-107q0 -10 6 -16l24 -24q5 -5 10.5 -7t9.5 -2h188q13 0 22 9l23 24q7 6 7 16v584z" />
    <glyph glyph-name="uni006B" unicode="k" horiz-adv-x="492" 
d="M120 5q0 -5 -5 -5h-48q-6 0 -6 5v687q0 6 6 6h48q5 0 5 -6v-330l251 333q2 3 4 3h72q4 0 5 -3.5t-1 -5.5l-176 -233l201 -448q2 -8 -6 -8h-59q-4 0 -6 3l-175 395l-110 -141v-252z" />
    <glyph glyph-name="uni006C" unicode="l" horiz-adv-x="472" 
d="M448 59q6 0 6 -6v-48q0 -5 -6 -5h-383q-5 0 -5 5v687q0 6 5 6h48q6 0 6 -6v-633h329z" />
    <glyph glyph-name="uni006D" unicode="m" horiz-adv-x="655" 
d="M112 5q-2 -5 -6 -5h-48q-6 0 -6 6l24 686q0 6 5 6h59q5 0 5 -5l195 -626l182 626q2 5 5 5h59q6 0 6 -6l23 -686q0 -6 -6 -6h-49q-5 0 -5 5l-10 559l-168 -560q-1 -4 -6 -4h-56q-5 0 -5 4l-187 569z" />
    <glyph glyph-name="uni006E" unicode="n" horiz-adv-x="538" 
d="M422 692q0 6 6 6h49q5 0 5 -6v-686q0 -6 -5 -6h-70q-5 0 -5 3l-18 40.5t-35 76.5t-46.5 100t-51.5 110q-60 130 -135 290v-614q0 -6 -5 -6h-48q-6 0 -6 6v686q0 6 6 6h81q3 0 5 -4q4 -9 17.5 -39t33.5 -72.5t44 -94t49 -104.5q58 -123 129 -274v582z" />
    <glyph glyph-name="uni006F" unicode="o" 
d="M476 636q6 -6 6 -18v-539q0 -12 -6 -18l-55 -55q-3 -3 -7 -5h-1q-1 -1 -5 -1h-287q-4 0 -5 1h-1q-3 1 -7 5l-56 55q-4 5 -4 7q-2 6 -2 7v547q0 3 2 7q0 2 4 7l56 55q2 2 7 6h6h287h6q2 -2 3.5 -3t3.5 -3zM423 589q0 10 -7 17l-23 23q-9 9 -22 9h-215q-4 0 -9.5 -1.5
t-10.5 -7.5l-24 -23q-6 -7 -6 -17v-481q0 -10 6 -16l24 -24q5 -5 10.5 -7t9.5 -2h215q13 0 22 9l23 24q7 6 7 16v481z" />
    <glyph glyph-name="uni0070" unicode="p" horiz-adv-x="512" 
d="M472 629q1 -2 1 -4v-2v-260q0 -7 -6 -13l-55 -56q-7 -6 -15 -6h-282v-283q0 -5 -5 -5h-49q-5 0 -5 5v687q0 6 5 6h336q5 0 9 -2q2 0 6 -4l55 -55q5 -6 5 -8zM414 582q0 10 -5 17q-2 2 -3 4v1l-1 1l-26 26q-5 7 -17 7h-239q-8 0 -8 -7v-276q0 -8 8 -8h239q7 0 11 2.5
t6 4.5q8 8 14 15q5 5 10 10.5t6 7.5q5 5 5 17v178z" />
    <glyph glyph-name="uni0071" unicode="q" horiz-adv-x="528" 
d="M486 -63h-53q-3 3 -6 7l-42 56h-269q-6 0 -6 1q-5 2 -7 5l-56 56q-2 2 -3 3.5t-2 2.5q0 2 -0.5 4t-0.5 4v545q0 2 0.5 4t0.5 4q1 1 2 2.5l3 4.5l56 55q2 2 7 6q1 0 2 1h4h289h5q0 -1 1 -1q2 -2 3.5 -3t3.5 -3l56 -55q6 -6 6 -19v-537q0 -12 -6 -18l-41 -41zM368 59
q12 0 21 9l24 24q7 6 7 17v480q0 10 -7 16l-24 24q-9 9 -21 9h-217q-10 0 -19 -9l-24 -24q-7 -6 -7 -16v-480q0 -11 7 -17l24 -24q9 -9 19 -9h217z" />
    <glyph glyph-name="uni0072" unicode="r" horiz-adv-x="525" 
d="M505 8q2 -3 0 -5.5t-5 -2.5h-56q-3 0 -5 3l-110 283h-219v-281q0 -5 -6 -5h-48q-5 0 -5 5v687q0 6 5 6h336q5 0 9 -2q2 0 5 -4l56 -55q5 -6 5 -8q1 -2 1 -4v-2l-1 -258q0 -7 -6 -13l-68 -65zM110 355q0 -8 7 -8h240q6 0 10.5 2.5t6.5 4.5q7 8 14 15q5 5 9.5 10.5t6.5 7.5
q5 7 5 17v178q0 10 -5 17q-2 2 -3 4l-1 1v1l-26 26q-5 7 -17 7h-240q-7 0 -7 -7v-276z" />
    <glyph glyph-name="uni0073" unicode="s" horiz-adv-x="536" 
d="M485 80q0 -12 -6 -18l-56 -55q-4 -4 -6 -5q-1 0 -2 -0.5t-5 -0.5h-286q-4 0 -5 1h-2q-2 1 -3.5 2t-3.5 3l-55 55q-5 5 -5 7q-1 3 -1 7v90q0 6 5 6h49q5 0 5 -6v-57q0 -9 7 -16l24 -24q9 -9 19 -9h216q12 0 21 9l24 24q7 7 7 16v166q0 6 -5 11l-30 30q-6 4 -11 4h-258
q-3 0 -5 1q-1 0 -1 1q-1 1 -2 1.5t-3 2.5l-56 56q-2 0 -4 5.5t-2 7.5v228q0 5 1 7q0 2 5 7l55 55q2 2 3.5 3t3.5 3h7h286h7l3 -3l3 -3l56 -55q6 -6 6 -18v-91q0 -5 -6 -5h-48q-5 0 -5 5v62q0 8 -7 17l-24 23q-9 9 -21 9h-216q-4 0 -9 -1.5t-10 -7.5l-24 -23q-7 -9 -7 -17
v-159q0 -10 9 -19l23 -23q10 -10 22 -10h249q6 0 10 -4q1 0 3 -2l56 -55q5 -7 5 -14v-224z" />
    <glyph glyph-name="uni0074" unicode="t" horiz-adv-x="476" 
d="M33 638q-6 0 -6 6v49q0 5 6 5h410q6 0 6 -5v-49q0 -6 -6 -6h-175v-633q0 -5 -6 -5h-49q-5 0 -5 5v633h-175z" />
    <glyph glyph-name="uni0075" unicode="u" horiz-adv-x="545" 
d="M431 693q0 5 5 5h48q6 0 6 -5v-614q0 -12 -6 -18l-56 -55q-4 -4 -6 -5q-1 0 -2 -0.5t-5 -0.5h-286q-4 0 -5 1h-2q-2 1 -6 5l-56 55l-3 4.5t-2 2.5q0 2 -0.5 3.5t-0.5 3.5v618q0 5 6 5h48q5 0 5 -5v-585q0 -8 7 -17l24 -23q5 -5 10.5 -7t8.5 -2h216q12 0 21 9l24 23
q7 9 7 17v585z" />
    <glyph glyph-name="uni0076" unicode="v" horiz-adv-x="484" 
d="M290 4q-2 -4 -5 -4h-83q-4 0 -6 4l-172 686q-2 8 5 8h49q5 0 5 -5l102 -392l58 -241l59 241l101 392q2 5 6 5h48q8 0 6 -8z" />
    <glyph glyph-name="uni0077" unicode="w" horiz-adv-x="643" 
d="M97 0q-6 0 -6 5l-51 686q-1 6 5 6h48q6 0 6 -5l47 -634l129 421q0 1 0.5 1.5t0.5 1.5h85q0 -2 1 -3l128 -421l48 634q0 5 6 5h49q5 0 5 -6l-52 -686q0 -5 -6 -5h-97q-2 0 -2 2h-1l-121 402l-122 -401v-1q0 -2 -3 -2h-97z" />
    <glyph glyph-name="uni0078" unicode="x" horiz-adv-x="483" 
d="M398 1q-3 0 -5 3l-152 289l-150 -289q-1 -3 -5 -3h-50q-3 0 -5 2.5t0 5.5l170 352l-164 328q-2 3 0 5.5t5 2.5h57q5 0 6 -3l136 -262l138 262q2 3 5 3h58q3 0 5 -2.5t0 -5.5l-165 -328l171 -352q2 -3 0 -5.5t-5 -2.5h-50z" />
    <glyph glyph-name="uni0079" unicode="y" horiz-adv-x="526" 
d="M270 392q45 77 82 140q16 27 31.5 53.5t28.5 49t22.5 38.5t12.5 22q2 3 5 3h57q4 0 5.5 -3t-0.5 -6l-215 -372v-311q0 -6 -5 -6h-48q-6 0 -6 6v312l-214 371q-2 3 0 6t5 3h57q4 0 5 -3z" />
    <glyph glyph-name="uni007A" unicode="z" horiz-adv-x="493" 
d="M449 59q6 0 6 -5v-48q0 -6 -6 -6h-410q-6 0 -6 6v57l351 574h-345q-6 0 -6 6v49q0 6 6 6h410q6 0 6 -6v-53l-3 -6l-351 -574h348z" />
    <glyph glyph-name="uni007C" unicode="|" horiz-adv-x="198" 
d="M123 -1h-47q-6 0 -6 6v686q0 6 6 6h47q6 0 6 -6v-686q0 -6 -6 -6z" />
    <glyph glyph-name="uni00A0" unicode="&#xa0;" horiz-adv-x="254" 
 />
    <glyph glyph-name="uni00A1" unicode="&#xa1;" horiz-adv-x="170" 
d="M56 516q0 5 5 5h51q6 0 6 -5v-509q0 -6 -6 -6h-51q-5 0 -5 6v509zM61 617q-5 0 -5 5v71q0 5 5 5h51q6 0 6 -5v-71q0 -5 -6 -5h-51z" />
    <glyph glyph-name="uni00A3" unicode="&#xa3;" horiz-adv-x="438" 
d="M428 60q6 0 6 -6v-48q0 -6 -6 -6h-371q-6 0 -6 6v48q0 6 6 6h43l20 19q1 0 3 7v1v1v181h-65q-6 0 -6 6v45q0 5 6 5h65v295q0 2 0.5 5.5t5.5 8.5l58 57q3 3 7 3h3h159q10 0 14 -6l55 -54q6 -6 6 -18v-88q0 -5 -5 -5h-49q-5 0 -5 5v59q0 9 -7 17l-24 23q-6 9 -20 9h-89
q-3 0 -9 -2q-7 -2 -11 -7l-24 -23q-7 -10 -7 -17v-262h166q6 0 6 -5v-45q0 -6 -6 -6h-166v-209h247z" />
    <glyph glyph-name="uni00A8" unicode="&#xa8;" horiz-adv-x="385" 
d="M339 777q-9 0 -9 9v46q0 9 9 9h35q9 0 9 -9v-46q0 -9 -9 -9h-35zM159 779q-3 3 -3 7v46q0 9 10 9h35q9 0 9 -9v-46q0 -3 -2 -6t-7 -3h-35q-3 0 -7 2z" />
    <glyph glyph-name="uni00AB" unicode="&#xab;" horiz-adv-x="543" 
d="M72 273q0 5 3 8l119 149q2 3 5 3t5 -2l33 -27q3 -1 3 -6q0 -3 -2 -5l-96 -120l98 -123q2 -2 2 -4q0 -4 -3 -6l-33 -28q-1 -1 -5 -1q-3 0 -6 3l-120 150q-3 5 -3 9zM233 273q0 5 3 8l118 149q3 3 6 3q1 0 5 -2l33 -27q3 -1 3 -6q0 -1 -2 -5l-96 -120l98 -123q2 -2 2 -4
q0 -4 -3 -6l-33 -28q-2 -1 -6 -1q-2 0 -5 3l-120 150q-3 5 -3 9z" />
    <glyph glyph-name="uni00B4" unicode="&#xb4;" horiz-adv-x="148" 
d="M145 884l-110 -102q-1 -1 -4 -1t-4 1l-25 26q-3 5 0 8l110 103q1 1 3 1q3 0 5 -2l25 -26q4 -4 0 -8z" />
    <glyph glyph-name="uni00B8" unicode="&#xb8;" horiz-adv-x="252" 
d="M396 6v-112q0 -29 -21 -50t-50 -21h-98q-29 0 -50 21t-21 50v52q0 6 7 6h47q6 0 6 -6v-62h120v122h60z" />
    <glyph glyph-name="uni00BB" unicode="&#xbb;" horiz-adv-x="543" 
d="M449 271q0 -4 -3 -9l-118 -148q-3 -3 -5 -3q-4 0 -6 1l-33 28q-3 2 -3 6q0 2 2 4l96 121l-98 122q-1 2 -1 5q0 5 3 6l32 27q4 2 6 2q4 0 5 -3l120 -150q3 -4 3 -9zM289 271q0 -4 -3 -9l-119 -148q-1 -3 -5 -3t-5 1l-33 28q-3 2 -3 6q0 3 2 4l96 121l-98 122q-2 4 -2 5
q0 5 3 6l33 27q2 2 5 2t6 -3l120 -150q3 -4 3 -9z" />
    <glyph glyph-name="uni00BF" unicode="&#xbf;" horiz-adv-x="516" 
d="M41 371q0 5 6 5h199v138q0 6 5 6h51q5 0 5 -6v-196q0 -5 -5 -5h-202v-196q0 -6 2 -12.5t7 -11.5l26 -27q6 -6 17 -6h212q4 0 9 1.5t11 7.5l23 23q7 7 7 17v74q0 5 6 5h48q6 0 6 -5v-107q0 -3 -2 -7q0 -2 -5 -7l-55 -56q-1 -1 -7 -5h-1q-1 -1 -5 -1h-283q-6 0 -14 6
l-55 56q-6 6 -6 13v296zM251 617q-5 0 -5 5v71q0 5 5 5h51q5 0 5 -5v-71q0 -5 -5 -5h-51z" />
    <glyph glyph-name="uni00C0" unicode="&#xc0;" horiz-adv-x="574" 
d="M543 4q0 -1 -0.5 -1.5t-0.5 -1.5l-2 -1h-51q-3 0 -3 2l-55 172h-296l-52 -172q0 -2 -3 -2h-51q-2 0 -2 1h-1q-1 3 0 3l201 692q2 3 3 3h99q2 0 3 -3zM413 233l-124 403h-13l-123 -403h260zM193 883q-5 3 0 8l25 26q2 2 5 2q1 0 1.5 -0.5t1.5 -0.5l110 -103q3 -3 0 -8
l-25 -26q-1 -1 -4 -1t-4 1z" />
    <glyph glyph-name="uni00C1" unicode="&#xc1;" horiz-adv-x="574" 
d="M431 174h-296l-52 -172q0 -2 -3 -2h-51q-2 0 -3 1q-1 2 0 3l201 691q2 3 3 3h99q2 0 3 -3l211 -691q0 -2 -1 -3t-2 -1h-51q-3 0 -3 2zM413 233l-124 402h-13l-123 -402h260zM374 882q4 4 0 8l-25 26q-2 2 -5 2q-2 0 -3 -1l-110 -103q-3 -3 0 -8l25 -26q1 -1 4 -1t4 1z
" />
    <glyph glyph-name="uni00C2" unicode="&#xc2;" horiz-adv-x="574" 
d="M543 4q0 -4 -3 -4h-51q-3 0 -3 2l-55 172h-296l-52 -172q0 -2 -3 -2h-51q-3 0 -3 1q-1 2 0 3l201 691q2 3 3 3h99q2 0 3 -3zM413 233l-124 402h-13l-123 -402h260zM174 803q-2 2 -2 4t3 5l100 80q3 3 7 3t7 -3l101 -80q3 -3 3 -5t-2 -4l-22 -27q-1 -3 -5 -3q-2 0 -4 2
l-78 62l-77 -62q-2 -2 -4 -2q-3 0 -5 3z" />
    <glyph glyph-name="uni00C3" unicode="&#xc3;" horiz-adv-x="574" 
d="M542 4q0 -2 -1 -3l-1 -1q0 -1 -1 -1h-51q-3 0 -3 3l-55 172h-296l-52 -172q0 -3 -3 -3h-51q-1 0 -1.5 1t-1.5 1v3l201 691l3 3h99q3 0 3 -3zM412 233l-124 402h-13l-123 -402h260zM125 752q-6 0 -5 9q1 3 5 11q7 29 35.5 48.5t57.5 19.5q12 0 21.5 -1t16.5 -3l10.5 -3.5
l15 -5t14 -5t9.5 -3.5q11 -3 24 -3q23 0 32 8q5 4 11 10t11 15q2 3 5 3h48q4 0 5 -3q1 -2 0 -5q-11 -35 -37 -57.5t-64 -22.5q-22 0 -33 3l-10.5 3.5t-16 5.5t-16 5.5l-10.5 3.5q-7 2 -13 3t-12 1q-17 0 -31 -9.5t-21 -24.5q-1 -3 -5 -3h-47z" />
    <glyph glyph-name="uni00C4" unicode="&#xc4;" horiz-adv-x="574" 
d="M543 4q0 -2 -1 -3q-1 0 -1 -0.5t-1 -0.5h-51q-3 0 -3 2l-55 172h-296l-52 -172q0 -2 -3 -2h-51q-1 0 -1.5 0.5t-1.5 0.5q-1 3 0 3l201 692q2 3 3 3h99q2 0 3 -3zM413 233l-124 403h-13l-123 -403h260zM350 777q-9 0 -9 9v46q0 9 9 9h35q10 0 10 -9v-46q0 -9 -10 -9h-35z
M171 779q-3 3 -3 7v46q0 9 9 9h35q10 0 10 -9v-46q0 -3 -2.5 -6t-7.5 -3h-35q-2 0 -6 2z" />
    <glyph glyph-name="uni00C5" unicode="&#xc5;" horiz-adv-x="574" 
d="M543 4q0 -3 -1 -3q0 -1 -2 -1h-51q-3 0 -3 2l-55 172h-296l-52 -172q0 -2 -3 -2h-51q-2 0 -3 1q-1 2 0 3l201 691l3 3h99q3 0 3 -3zM413 233l-124 402h-13l-123 -402h260zM243 753q-14 0 -24 10.5t-10 24.5v77q0 14 10 24.5t24 10.5h78q14 0 24 -10.5t10 -24.5v-77
q0 -14 -10 -24.5t-24 -10.5h-78zM254 799h56v55h-56v-55z" />
    <glyph glyph-name="uni00C6" unicode="&#xc6;" horiz-adv-x="784" 
d="M409 638v-258h260q6 0 6 -6v-48q0 -6 -6 -6h-260v-261h319q6 0 6 -5v-48q0 -6 -6 -6h-373q-5 0 -5 6v168h-239l-52 -172q0 -2 -3 -2h-51q-3 0 -3 1q-1 2 0 3l201 691q2 3 3 3h522q6 0 6 -6v-48q0 -6 -6 -6h-319zM350 233v405h-97l-124 -405h221z" />
    <glyph glyph-name="uni00C7" unicode="&#xc7;" horiz-adv-x="524" 
d="M429 526q-5 0 -5 5v59q0 9 -7 17l-24 23q-6 9 -21 9h-215h-4.5t-4.5 -1q-4 -1 -11 -8l-24 -23q-7 -10 -7 -17v-481q0 -7 7 -16l24 -24q6 -4 11 -7q6 -2 9 -2h215q15 0 21 9l24 24q7 7 7 16v64q0 5 5 5h49q5 0 5 -5v-93q0 -12 -6 -18l-55 -55l-3 -3l-4 -2h-2h-1
q-1 -1 -4 -1h-12v-107q0 -29 -21 -50t-50 -21h-97q-30 0 -51 21t-21 50v52q0 6 7 6h47q7 0 7 -6v-62h119v117h-214q-2 0 -3 0.5t-2 0.5h-2q-3 3 -6 5l-56 55q-2 4 -3 5q0 2 -2 2v4q-1 1 -1 3v547q0 3 1 4v3q2 2 2 3q2 2 3 4l56 55l3 3l3 3h300q2 -1 4 -3q2 0 3 -3l55 -55
q6 -6 6 -18v-88q0 -5 -5 -5h-49z" />
    <glyph glyph-name="uni00C8" unicode="&#xc8;" horiz-adv-x="468" 
d="M115 639v-259h260q6 0 6 -6v-48q0 -6 -6 -6h-260v-261h319q6 0 6 -5v-48q0 -6 -6 -6h-373q-5 0 -5 6v687q0 6 5 6h373q6 0 6 -6v-48q0 -6 -6 -6h-319zM154 882q-5 3 0 8l25 26q2 2 5 2q1 0 1.5 -0.5t1.5 -0.5l110 -103q3 -3 0 -8l-25 -26q0 -1 -4 -1q-3 0 -4 1z" />
    <glyph glyph-name="uni00C9" unicode="&#xc9;" horiz-adv-x="468" 
d="M434 59q6 0 6 -5v-48q0 -6 -6 -6h-373q-5 0 -5 6v686q0 6 5 6h373q6 0 6 -6v-48q0 -6 -6 -6h-319v-258h260q6 0 6 -6v-48q0 -6 -6 -6h-260v-261h319zM356 881q4 4 0 8l-25 26q-2 2 -5 2q-2 0 -3 -1l-110 -103q-3 -3 0 -8l25 -26q1 -1 4 -1t4 1z" />
    <glyph glyph-name="uni00CA" unicode="&#xca;" horiz-adv-x="468" 
d="M115 638v-258h260q6 0 6 -6v-48q0 -6 -6 -6h-260v-261h319q6 0 6 -5v-48q0 -6 -6 -6h-373q-5 0 -5 6v686q0 6 5 6h373q6 0 6 -6v-48q0 -6 -6 -6h-319zM139 803q-1 1 -1 4q0 1 2 5l101 80q3 3 7 3t7 -3l101 -80q3 -3 3 -5t-2 -4l-22 -27q-1 -3 -5 -3q-2 0 -4 2l-78 62
l-77 -62q-2 -2 -4 -2q-3 0 -5 3z" />
    <glyph glyph-name="uni00CB" unicode="&#xcb;" horiz-adv-x="468" 
d="M115 639v-259h260q6 0 6 -6v-48q0 -6 -6 -6h-260v-261h319q6 0 6 -5v-48q0 -6 -6 -6h-373q-5 0 -5 6v687q0 6 5 6h373q6 0 6 -6v-48q0 -6 -6 -6h-319zM324 777q-10 0 -10 9v46q0 9 10 9h35q9 0 9 -9v-46q0 -9 -9 -9h-35zM144 779q-3 3 -3 7v46q0 9 10 9h35q9 0 9 -9v-46
q0 -3 -2 -6t-7 -3h-35q-3 0 -7 2z" />
    <glyph glyph-name="uni00CC" unicode="&#xcc;" horiz-adv-x="181" 
d="M115 699q6 0 6 -6v-687q0 -6 -6 -6h-48q-6 0 -6 6v687q0 6 6 6h48zM86 779q-3 0 -4 1l-110 102q-5 3 0 8l25 26q2 2 5 2q1 0 1.5 -0.5t1.5 -0.5l110 -103q3 -3 0 -8l-25 -26q-1 -1 -4 -1z" />
    <glyph glyph-name="uni00CD" unicode="&#xcd;" horiz-adv-x="181" 
d="M67 0q-6 0 -6 6v686q0 6 6 6h48q6 0 6 -6v-686q0 -6 -6 -6h-48zM213 881q4 4 0 8l-25 26q-2 2 -5 2q-2 0 -3 -1l-110 -103q-3 -3 0 -8l25 -26q1 -1 4 -1t4 1z" />
    <glyph glyph-name="uni00CE" unicode="&#xce;" horiz-adv-x="181" 
d="M116 698q6 0 6 -6v-686q0 -6 -6 -6h-48q-6 0 -6 6v686q0 6 6 6h48zM200 812q2 -4 2 -5q0 -3 -1 -4l-23 -27q-1 -3 -5 -3q-2 0 -4 2l-77 62l-78 -62q-2 -2 -4 -2q-3 0 -5 3l-22 27q-2 2 -2 4t3 5l100 80q3 3 8 3q4 0 7 -3z" />
    <glyph glyph-name="uni00CF" unicode="&#xcf;" horiz-adv-x="181" 
d="M115 699q6 0 6 -6v-687q0 -6 -6 -6h-48q-6 0 -6 6v687q0 6 6 6h48zM195 841q9 0 9 -9v-46q0 -9 -9 -9h-35q-10 0 -10 9v46q0 9 10 9h35zM21 841q10 0 10 -9v-46q0 -3 -2.5 -6t-7.5 -3h-34q-3 0 -7 2q-3 3 -3 7v46q0 9 10 9h34z" />
    <glyph glyph-name="uni00D1" unicode="&#xd1;" horiz-adv-x="538" 
d="M381 848q2 3 5 3h48q3 0 5 -2.5t0 -5.5q-10 -34 -37.5 -57t-63.5 -23q-22 0 -33 3t-22 8q-2 0 -2.5 0.5t-2.5 0.5q-14 6 -26.5 9.5t-24.5 3.5q-14 0 -28.5 -7.5t-23.5 -25.5q-1 -3 -5 -3h-47q-7 0 -5 8q2 5 4.5 11t5.5 11q14 27 37 42t51 15q24 0 37.5 -3.5t24.5 -8.5
q2 0 6 -2q9 -4 19 -7t24 -3q21 0 32 8t22 25zM422 692q0 6 6 6h49q5 0 5 -6v-686q0 -6 -5 -6h-70q-5 0 -5 3l-18 40.5t-35 76.5t-46.5 100t-51.5 110q-60 130 -135 290v-614q0 -6 -5 -6h-48q-6 0 -6 6v686q0 6 6 6h81q3 0 5 -4q4 -9 17.5 -39t33.5 -72.5t44 -94t49 -104.5
q58 -123 129 -274v582z" />
    <glyph glyph-name="uni00D2" unicode="&#xd2;" 
d="M166 882q-3 3 0 8l25 26q4 2 5 2h2l1 -1l110 -103q3 -3 0 -8l-25 -26q0 -1 -4 -1q-3 0 -4 1zM476 637q6 -6 6 -18v-540q0 -12 -6 -18l-55 -55q-1 -1 -7 -5h-1q-1 0 -2 -0.5t-3 -0.5h-287q-2 0 -3 0.5t-2 0.5h-1q-2 1 -3.5 2t-3.5 3l-56 55q-4 5 -4 7t-0.5 3t-0.5 2l-1 2
v548q0 1 2 7q0 2 4 7l56 55q1 1 3 2.5t4 3.5h299q2 -3 4 -3l3 -3zM423 590q0 10 -7 17l-23 23q-9 9 -22 9h-215q-3 0 -9 -2q-7 -2 -11 -7l-24 -23q-6 -7 -6 -17v-482q0 -10 6 -16l24 -24q3 -3 11 -7q6 -2 9 -2h215q13 0 22 9l23 24q7 6 7 16v482z" />
    <glyph glyph-name="uni00D3" unicode="&#xd3;" 
d="M476 636q6 -6 6 -18v-539q0 -12 -6 -18l-55 -55q-3 -3 -7 -5h-1q-1 -1 -5 -1h-287q-4 0 -5 1h-1q-3 1 -7 5l-56 55q-4 5 -4 7q-2 6 -2 7v547q0 3 2 7q0 2 4 7l56 55q2 2 7 6h6h287h6q2 -2 3.5 -3t3.5 -3zM423 589q0 10 -7 17l-23 23q-9 9 -22 9h-215q-4 0 -9.5 -1.5
t-10.5 -7.5l-24 -23q-6 -7 -6 -17v-481q0 -10 6 -16l24 -24q5 -5 10.5 -7t9.5 -2h215q13 0 22 9l23 24q7 6 7 16v481zM362 881q4 4 0 8l-25 26q-2 2 -5 2q-2 0 -3 -1l-110 -103q-3 -3 0 -8l25 -26q1 -1 4 -1t4 1z" />
    <glyph glyph-name="uni00D4" unicode="&#xd4;" 
d="M476 636q7 -7 7 -18v-539q0 -11 -7 -18l-55 -55q-4 -4 -7 -5h-1q0 -1 -5 -1h-287q-4 0 -5 1h-1q-4 2 -7 5l-56 55q-4 6 -4 7q-2 8 -2 7v547q0 1 2 7q0 1 4 7l56 55q2 1 7 6h299q2 -1 4 -3l3 -3zM423 589q0 10 -7 17l-23 23q-9 9 -22 9h-215q-8 0 -11.5 -2t-8.5 -7
l-24 -23q-6 -7 -6 -17v-481q0 -10 6 -16l24 -24q5 -3 9.5 -6t10.5 -3h215q13 0 22 9l23 24q7 6 7 16v481zM156 803q-2 2 -2 4t3 5l100 80q3 3 7 3t7 -3l101 -80q3 -3 3 -5t-2 -4l-22 -27q-1 -3 -5 -3q-2 0 -4 2l-78 62l-77 -62q-2 -2 -4 -2q-3 0 -5 3z" />
    <glyph glyph-name="uni00D5" unicode="&#xd5;" 
d="M476 636q6 -6 6 -18v-539q0 -12 -6 -18l-55 -55q-1 -1 -7 -5h-1l-1 -1q-1 -1 -4 -1h-287q-2 0 -3 1t-2 1h-1q-2 1 -3.5 2t-3.5 3l-56 55q-4 5 -4 7t-0.5 3t-0.5 2l-1 2v547q0 3 2 7q0 3 4 7l56 55q1 2 7 6h299q2 -1 4 -3q2 0 3 -3zM423 589q0 11 -7 17l-23 23q-9 9 -22 9
h-215q-6 0 -9 -1q-6 -2 -11 -8l-24 -23q-6 -6 -6 -17v-481q0 -10 6 -16l24 -24q3 -3 11 -7q6 -2 9 -2h215q13 0 22 9l23 24q7 6 7 16v481zM114 752q-6 0 -5 9q1 2 2 5l2 6q14 29 36.5 48.5t57.5 19.5q12 0 21 -1t16 -3l10.5 -3.5t15.5 -5t14.5 -5t9.5 -3.5q11 -3 24 -3
q23 0 32 8q5 4 11 10t11 15q2 3 5 3h48q4 0 5 -3q1 -2 0 -5q-11 -36 -38 -57q-26 -23 -63 -23q-22 0 -33 3l-10.5 3.5t-16 5.5t-16.5 5.5t-11 3.5q-6 2 -12 3t-12 1q-17 0 -31 -9.5t-21 -24.5q-1 -3 -5 -3h-47z" />
    <glyph glyph-name="uni00D6" unicode="&#xd6;" 
d="M476 637q6 -6 6 -18v-540q0 -12 -6 -18l-55 -55q-1 -1 -7 -5h-1h-1q-1 -1 -4 -1h-287q-2 0 -3 0.5t-2 0.5h-1q-2 1 -3.5 2t-3.5 3l-56 55q-4 8 -4 7q0 2 -0.5 3t-0.5 2l-1 2v548q0 1 2 7q0 -1 4 7l56 55q2 1 7 6h299q3 -3 4 -3l3 -3zM423 590q0 10 -7 17l-23 23
q-9 9 -22 9h-215q-3 0 -9 -2q-5 -1 -11 -7l-24 -23q-6 -7 -6 -17v-482q0 -10 6 -16l24 -24q6 -4 11 -7q6 -2 9 -2h215q13 0 22 9l23 24q7 6 7 16v482zM339 777q-9 0 -9 9v46q0 9 9 9h35q9 0 9 -9v-46q0 -9 -9 -9h-35zM159 779q-3 3 -3 7v46q0 9 10 9h35q9 0 9 -9v-46
q0 -3 -2 -6t-7 -3h-35q-3 0 -7 2z" />
    <glyph glyph-name="uni00D8" unicode="&#xd8;" 
d="M549 697q2 0 3.5 -2t-0.5 -4l-70 -93v-519q0 -12 -6 -18l-55 -55q-1 -1 -7 -5h-1l-1 -1q-1 -1 -4 -1h-287q-2 0 -3 1t-2 1h-1q-2 1 -3.5 2t-3.5 3l-42 42l-35 -46q-3 -3 -4 -3h-49q-2 0 -3.5 3t0.5 5l71 95v520q0 3 2 7q0 3 4 7l56 55q1 2 7 6h299q5 -3 7 -6l41 -40
l34 45q1 1 4 1h49zM106 181l316 417q-2 5 -6 8l-23 23q-9 9 -22 9h-215q-6 0 -9 -1q-6 -2 -11 -8l-24 -23q-6 -6 -6 -17v-408zM423 520l-316 -418q2 -7 5 -10l24 -24q3 -3 11 -7q6 -2 9 -2h215q13 0 22 9l23 24q7 6 7 16v412z" />
    <glyph glyph-name="uni00D9" unicode="&#xd9;" horiz-adv-x="545" 
d="M184 882q-3 3 0 8l25 26q4 2 5 2q2 0 2.5 -0.5t1.5 -0.5l110 -103q3 -3 0 -8l-25 -26q-1 -1 -4 -1q-4 0 -4 1zM484 699q6 0 6 -5v-615q0 -12 -6 -18l-56 -55q-3 -2 -6 -5h-2q-1 -1 -5 -1h-286q-3 0 -4 1h-1h-2q-2 1 -6 5l-56 55q-3 3 -3 5l-2 2q0 2 -0.5 2.5t-0.5 1.5v3
v619q0 5 6 5h48q5 0 5 -5v-586q0 -9 7 -17l24 -23q4 -4 10 -7q8 -2 9 -2h216q12 0 21 9l24 23q7 11 7 17v586q0 5 5 5h48z" />
    <glyph glyph-name="uni00DA" unicode="&#xda;" horiz-adv-x="545" 
d="M431 693q0 5 5 5h48q6 0 6 -5v-614q0 -12 -6 -18l-56 -55q-4 -4 -6 -5q-1 0 -2 -0.5t-5 -0.5h-286q-4 0 -5 1h-2q-2 1 -6 5l-56 55l-3 4.5t-2 2.5q0 2 -0.5 3.5t-0.5 3.5v618q0 5 6 5h48q5 0 5 -5v-585q0 -8 7 -17l24 -23q5 -5 10.5 -7t8.5 -2h216q12 0 21 9l24 23
q7 9 7 17v585zM365 881q4 4 0 8l-25 26q-2 2 -5 2q-2 0 -3 -1l-110 -103q-3 -3 0 -8l25 -26q1 -1 4 -1t4 1z" />
    <glyph glyph-name="uni00DB" unicode="&#xdb;" horiz-adv-x="545" 
d="M484 698q6 0 6 -5v-614q0 -12 -6 -18l-56 -55q-2 -2 -3.5 -3t-2.5 -2q-1 0 -2 -1h-5h-286q-5 0 -5 1h-2q-4 2 -6 5l-56 55q-3 3 -3 4q-2 2 -2 3q0 2 -1 3v4v618q0 5 6 5h48q5 0 5 -5v-585q0 -9 7 -17l24 -23q6 -5 10 -7q8 -2 9 -2h216q12 0 21 9l24 23q7 8 7 17v585
q0 5 5 5h48zM163 803q-1 1 -1 4t2 5l101 80q3 3 7 3t7 -3l101 -80q2 -4 2 -5q0 -3 -1 -4l-23 -27q-1 -3 -5 -3l-4 2l-77 62l-77 -62l-4 -2q-3 0 -5 3z" />
    <glyph glyph-name="uni00DC" unicode="&#xdc;" horiz-adv-x="545" 
d="M484 699q6 0 6 -5v-615q0 -12 -6 -18l-56 -55q-3 -2 -6 -5h-2q-1 -1 -5 -1h-286q-2 0 -3 0.5t-2 0.5h-2q-3 3 -6 5l-56 55q-1 1 -2.5 4t-2.5 3v4q-1 1 -1 3v619q0 5 6 5h48q5 0 5 -5v-586q0 -9 7 -17l24 -23q3 -3 11 -7q6 -2 8 -2h216q12 0 21 9l24 23q7 8 7 17v586
q0 5 5 5h48zM347 777q-10 0 -10 9v46q0 9 10 9h35q5 0 6 -3q3 -1 3 -6v-46q0 -9 -9 -9h-35zM167 779q-3 3 -3 7v46q0 9 10 9h35q9 0 9 -9v-46q0 -3 -2 -6t-7 -3h-35q-3 0 -7 2z" />
    <glyph glyph-name="uni00DF" unicode="&#xdf;" horiz-adv-x="518" 
d="M433 360q-7 -3 0 -10l49 -50q1 0 1 -2q1 -1 1 -8v-215q0 -5 -6 -14l-56 -55q-6 -6 -14 -6h-204q-6 0 -6 6v48q0 5 6 5h169q7 0 11 3q3 1 6 4l26 27v1h1q1 2 3 4q5 8 5 18v165l-63 64q-5 5 -5 10.5t5 9.5l63 64v153q0 12 -5 17l-1 2q0 2 -2 2l-1 1v1l-26 26v1q-6 6 -17 6
h-212q-5 0 -9 -1t-11 -8l-23 -23q-7 -7 -7 -17v-584q0 -5 -6 -5h-48q-5 0 -5 5v617q0 8 6 14l55 56q3 3 4 3t3 2l2 1h286h5q2 0 2.5 -0.5t1.5 -0.5l2 -1q2 0 3 -3l56 -56q3 -1 3 -3q1 -1 1 -2q1 0 1 -2q1 -1 1 -5v-205q0 -6 -1 -8q0 -2 -5 -7z" />
    <glyph glyph-name="uni00E0" unicode="&#xe0;" horiz-adv-x="574" 
d="M543 4q0 -1 -0.5 -1.5t-0.5 -1.5l-2 -1h-51q-3 0 -3 2l-55 172h-296l-52 -172q0 -2 -3 -2h-51q-2 0 -2 1h-1q-1 3 0 3l201 692q2 3 3 3h99q2 0 3 -3zM413 233l-124 403h-13l-123 -403h260zM193 883q-5 3 0 8l25 26q2 2 5 2q1 0 1.5 -0.5t1.5 -0.5l110 -103q3 -3 0 -8
l-25 -26q-1 -1 -4 -1t-4 1z" />
    <glyph glyph-name="uni00E1" unicode="&#xe1;" horiz-adv-x="574" 
d="M489 0q-3 0 -3 2l-55 172h-296l-52 -172q0 -2 -3 -2h-51q-2 0 -3 1q-1 2 0 3l201 691q2 3 3 3h99q2 0 3 -3l211 -691l-3 -4h-51zM153 233h260l-124 402h-13zM231 806q-3 5 0 8l110 103q1 1 3 1q3 0 5 -2l25 -26q4 -4 0 -8l-110 -102q-1 -1 -4 -1t-4 1z" />
    <glyph glyph-name="uni00E2" unicode="&#xe2;" horiz-adv-x="574" 
d="M543 4q0 -4 -3 -4h-51q-3 0 -3 2l-55 172h-296l-52 -172q0 -2 -3 -2h-51q-3 0 -3 1q-1 2 0 3l201 691q2 3 3 3h99q2 0 3 -3zM413 233l-124 402h-13l-123 -402h260zM174 803q-2 2 -2 4t3 5l100 80q3 3 7 3t7 -3l101 -80q3 -3 3 -5t-2 -4l-22 -27q-1 -3 -5 -3q-2 0 -4 2
l-78 62l-77 -62q-2 -2 -4 -2q-3 0 -5 3z" />
    <glyph glyph-name="uni00E3" unicode="&#xe3;" horiz-adv-x="574" 
d="M542 4q0 -2 -1 -3l-1 -1q0 -1 -1 -1h-51q-3 0 -3 3l-55 172h-296l-52 -172q0 -3 -3 -3h-51q-1 0 -1.5 1t-1.5 1v3l201 691l3 3h99q3 0 3 -3zM412 233l-124 402h-13l-123 -402h260zM125 752q-6 0 -5 9q1 3 5 11q7 29 35.5 48.5t57.5 19.5q12 0 21.5 -1t16.5 -3l10.5 -3.5
l15 -5t14 -5t9.5 -3.5q11 -3 24 -3q23 0 32 8q5 4 11 10t11 15q2 3 5 3h48q4 0 5 -3q1 -2 0 -5q-11 -35 -37 -57.5t-64 -22.5q-22 0 -33 3l-10.5 3.5t-16 5.5t-16 5.5l-10.5 3.5q-7 2 -13 3t-12 1q-17 0 -31 -9.5t-21 -24.5q-1 -3 -5 -3h-47z" />
    <glyph glyph-name="uni00E4" unicode="&#xe4;" horiz-adv-x="574" 
d="M543 4q0 -2 -1 -3q-1 0 -1 -0.5t-1 -0.5h-51q-3 0 -3 2l-55 172h-296l-52 -172q0 -2 -3 -2h-51q-1 0 -1.5 0.5t-1.5 0.5q-1 3 0 3l201 692q2 3 3 3h99q2 0 3 -3zM413 233l-124 403h-13l-123 -403h260zM350 777q-9 0 -9 9v46q0 9 9 9h35q10 0 10 -9v-46q0 -9 -10 -9h-35z
M171 779q-3 3 -3 7v46q0 9 9 9h35q10 0 10 -9v-46q0 -3 -2.5 -6t-7.5 -3h-35q-2 0 -6 2z" />
    <glyph glyph-name="uni00E5" unicode="&#xe5;" horiz-adv-x="574" 
d="M543 4q0 -3 -1 -3q0 -1 -2 -1h-51q-3 0 -3 2l-55 172h-296l-52 -172q0 -2 -3 -2h-51q-2 0 -3 1q-1 2 0 3l201 691l3 3h99q3 0 3 -3zM413 233l-124 402h-13l-123 -402h260zM243 753q-14 0 -24 10.5t-10 24.5v77q0 14 10 24.5t24 10.5h78q14 0 24 -10.5t10 -24.5v-77
q0 -14 -10 -24.5t-24 -10.5h-78zM254 799h56v55h-56v-55z" />
    <glyph glyph-name="uni00E6" unicode="&#xe6;" horiz-adv-x="785" 
d="M410 638v-258h260q6 0 6 -6v-48q0 -6 -6 -6h-260v-261h319q6 0 6 -5v-48q0 -6 -6 -6h-373q-5 0 -5 6v168h-239l-52 -172q0 -2 -3 -2h-51q-3 0 -3 1q-1 2 0 3l201 691q2 3 3 3h522q6 0 6 -6v-48q0 -6 -6 -6h-319zM351 233v405h-97l-124 -405h221z" />
    <glyph glyph-name="uni00E7" unicode="&#xe7;" horiz-adv-x="524" 
d="M429 526q-5 0 -5 5v59q0 9 -7 17l-24 23q-6 9 -21 9h-215h-4.5t-4.5 -1q-4 -1 -11 -8l-24 -23q-7 -10 -7 -17v-481q0 -7 7 -16l24 -24q6 -4 11 -7q6 -2 9 -2h215q15 0 21 9l24 24q7 7 7 16v64q0 5 5 5h49q5 0 5 -5v-93q0 -12 -6 -18l-55 -55l-3 -3l-4 -2h-2h-1
q-1 -1 -4 -1h-12v-107q0 -29 -21 -50t-50 -21h-97q-30 0 -51 21t-21 50v52q0 6 7 6h47q7 0 7 -6v-62h119v117h-214q-2 0 -3 0.5t-2 0.5h-2q-3 3 -6 5l-56 55q-2 4 -3 5q0 2 -2 2v4q-1 1 -1 3v547q0 3 1 4v3q2 2 2 3q2 2 3 4l56 55l3 3l3 3h300q2 -1 4 -3q2 0 3 -3l55 -55
q6 -6 6 -18v-88q0 -5 -5 -5h-49z" />
    <glyph glyph-name="uni00E8" unicode="&#xe8;" horiz-adv-x="468" 
d="M115 639v-259h260q6 0 6 -6v-48q0 -6 -6 -6h-260v-261h319q6 0 6 -5v-48q0 -6 -6 -6h-373q-5 0 -5 6v687q0 6 5 6h373q6 0 6 -6v-48q0 -6 -6 -6h-319zM154 882q-5 3 0 8l25 26q2 2 5 2q1 0 1.5 -0.5t1.5 -0.5l110 -103q3 -3 0 -8l-25 -26q0 -1 -4 -1q-3 0 -4 1z" />
    <glyph glyph-name="uni00E9" unicode="&#xe9;" horiz-adv-x="468" 
d="M434 59q6 0 6 -5v-48q0 -6 -6 -6h-373q-5 0 -5 6v686q0 6 5 6h373q6 0 6 -6v-48q0 -6 -6 -6h-319v-258h260q6 0 6 -6v-48q0 -6 -6 -6h-260v-261h319zM356 881q4 4 0 8l-25 26q-2 2 -5 2q-2 0 -3 -1l-110 -103q-3 -3 0 -8l25 -26q1 -1 4 -1t4 1z" />
    <glyph glyph-name="uni00EA" unicode="&#xea;" horiz-adv-x="468" 
d="M115 638v-258h260q6 0 6 -6v-48q0 -6 -6 -6h-260v-261h319q6 0 6 -5v-48q0 -6 -6 -6h-373q-5 0 -5 6v686q0 6 5 6h373q6 0 6 -6v-48q0 -6 -6 -6h-319zM139 803q-1 1 -1 4q0 1 2 5l101 80q3 3 7 3t7 -3l101 -80q3 -3 3 -5t-2 -4l-22 -27q-1 -3 -5 -3q-2 0 -4 2l-78 62
l-77 -62q-2 -2 -4 -2q-3 0 -5 3z" />
    <glyph glyph-name="uni00EB" unicode="&#xeb;" horiz-adv-x="468" 
d="M115 639v-259h260q6 0 6 -6v-48q0 -6 -6 -6h-260v-261h319q6 0 6 -5v-48q0 -6 -6 -6h-373q-5 0 -5 6v687q0 6 5 6h373q6 0 6 -6v-48q0 -6 -6 -6h-319zM324 777q-10 0 -10 9v46q0 9 10 9h35q9 0 9 -9v-46q0 -9 -9 -9h-35zM144 779q-3 3 -3 7v46q0 9 10 9h35q9 0 9 -9v-46
q0 -3 -2 -6t-7 -3h-35q-3 0 -7 2z" />
    <glyph glyph-name="uni00EC" unicode="&#xec;" horiz-adv-x="181" 
d="M115 699q6 0 6 -6v-687q0 -6 -6 -6h-48q-6 0 -6 6v687q0 6 6 6h48zM86 779q-3 0 -4 1l-110 102q-5 3 0 8l25 26q2 2 5 2q1 0 1.5 -0.5t1.5 -0.5l110 -103q3 -3 0 -8l-25 -26q-1 -1 -4 -1z" />
    <glyph glyph-name="uni00ED" unicode="&#xed;" horiz-adv-x="181" 
d="M67 0q-6 0 -6 6v686q0 6 6 6h48q6 0 6 -6v-686q0 -6 -6 -6h-48zM213 881q4 4 0 8l-25 26q-2 2 -5 2q-2 0 -3 -1l-110 -103q-3 -3 0 -8l25 -26q1 -1 4 -1t4 1z" />
    <glyph glyph-name="uni00EE" unicode="&#xee;" horiz-adv-x="181" 
d="M116 698q6 0 6 -6v-686q0 -6 -6 -6h-48q-6 0 -6 6v686q0 6 6 6h48zM200 812q2 -4 2 -5q0 -3 -1 -4l-23 -27q-1 -3 -5 -3q-2 0 -4 2l-77 62l-78 -62q-2 -2 -4 -2q-3 0 -5 3l-22 27q-2 2 -2 4t3 5l100 80q3 3 8 3q4 0 7 -3z" />
    <glyph glyph-name="uni00EF" unicode="&#xef;" horiz-adv-x="181" 
d="M115 699q6 0 6 -6v-687q0 -6 -6 -6h-48q-6 0 -6 6v687q0 6 6 6h48zM195 841q9 0 9 -9v-46q0 -9 -9 -9h-35q-10 0 -10 9v46q0 9 10 9h35zM21 841q10 0 10 -9v-46q0 -3 -2.5 -6t-7.5 -3h-34q-3 0 -7 2q-3 3 -3 7v46q0 9 10 9h34z" />
    <glyph glyph-name="uni00F1" unicode="&#xf1;" horiz-adv-x="538" 
d="M381 848q2 3 5 3h48q3 0 5 -2.5t0 -5.5q-10 -34 -37.5 -57t-63.5 -23q-22 0 -33 3t-22 8q-2 0 -2.5 0.5t-2.5 0.5q-14 6 -26.5 9.5t-24.5 3.5q-14 0 -28.5 -7.5t-23.5 -25.5q-1 -3 -5 -3h-47q-7 0 -5 8q2 5 4.5 11t5.5 11q14 27 37 42t51 15q24 0 37.5 -3.5t24.5 -8.5
q2 0 6 -2q9 -4 19 -7t24 -3q21 0 32 8t22 25zM422 692q0 6 6 6h49q5 0 5 -6v-686q0 -6 -5 -6h-70q-5 0 -5 3l-18 40.5t-35 76.5t-46.5 100t-51.5 110q-60 130 -135 290v-614q0 -6 -5 -6h-48q-6 0 -6 6v686q0 6 6 6h81q3 0 5 -4q4 -9 17.5 -39t33.5 -72.5t44 -94t49 -104.5
q58 -123 129 -274v582z" />
    <glyph glyph-name="uni00F2" unicode="&#xf2;" 
d="M166 882q-3 3 0 8l25 26q4 2 5 2h2l1 -1l110 -103q3 -3 0 -8l-25 -26q0 -1 -4 -1q-3 0 -4 1zM476 637q6 -6 6 -18v-540q0 -12 -6 -18l-55 -55q-1 -1 -7 -5h-1q-1 0 -2 -0.5t-3 -0.5h-287q-2 0 -3 0.5t-2 0.5h-1q-2 1 -3.5 2t-3.5 3l-56 55q-4 5 -4 7t-0.5 3t-0.5 2l-1 2
v548q0 1 2 7q0 2 4 7l56 55q1 1 3 2.5t4 3.5h299q2 -3 4 -3l3 -3zM423 590q0 10 -7 17l-23 23q-9 9 -22 9h-215q-3 0 -9 -2q-7 -2 -11 -7l-24 -23q-6 -7 -6 -17v-482q0 -10 6 -16l24 -24q3 -3 11 -7q6 -2 9 -2h215q13 0 22 9l23 24q7 6 7 16v482z" />
    <glyph glyph-name="uni00F3" unicode="&#xf3;" 
d="M476 636q6 -6 6 -18v-539q0 -12 -6 -18l-55 -55q-3 -3 -7 -5h-1q-1 -1 -5 -1h-287q-4 0 -5 1h-1q-3 1 -7 5l-56 55q-4 5 -4 7q-2 6 -2 7v547q0 3 2 7q0 2 4 7l56 55q2 2 7 6h6h287h6q2 -2 3.5 -3t3.5 -3zM423 589q0 10 -7 17l-23 23q-9 9 -22 9h-215q-4 0 -9.5 -1.5
t-10.5 -7.5l-24 -23q-6 -7 -6 -17v-481q0 -10 6 -16l24 -24q5 -5 10.5 -7t9.5 -2h215q13 0 22 9l23 24q7 6 7 16v481zM362 881q4 4 0 8l-25 26q-2 2 -5 2q-2 0 -3 -1l-110 -103q-3 -3 0 -8l25 -26q1 -1 4 -1t4 1z" />
    <glyph glyph-name="uni00F4" unicode="&#xf4;" 
d="M476 636q7 -7 7 -18v-539q0 -11 -7 -18l-55 -55q-4 -4 -7 -5h-1q0 -1 -5 -1h-287q-4 0 -5 1h-1q-4 2 -7 5l-56 55q-4 6 -4 7q-2 8 -2 7v547q0 1 2 7q0 1 4 7l56 55q2 1 7 6h299q2 -1 4 -3l3 -3zM423 589q0 10 -7 17l-23 23q-9 9 -22 9h-215q-8 0 -11.5 -2t-8.5 -7
l-24 -23q-6 -7 -6 -17v-481q0 -10 6 -16l24 -24q5 -3 9.5 -6t10.5 -3h215q13 0 22 9l23 24q7 6 7 16v481zM156 803q-2 2 -2 4t3 5l100 80q3 3 7 3t7 -3l101 -80q3 -3 3 -5t-2 -4l-22 -27q-1 -3 -5 -3q-2 0 -4 2l-78 62l-77 -62q-2 -2 -4 -2q-3 0 -5 3z" />
    <glyph glyph-name="uni00F5" unicode="&#xf5;" 
d="M476 636q6 -6 6 -18v-539q0 -12 -6 -18l-55 -55q-1 -1 -7 -5h-1l-1 -1q-1 -1 -4 -1h-287q-2 0 -3 1t-2 1h-1q-2 1 -3.5 2t-3.5 3l-56 55q-4 5 -4 7t-0.5 3t-0.5 2l-1 2v547q0 3 2 7q0 3 4 7l56 55q1 2 7 6h299q2 -1 4 -3q2 0 3 -3zM423 589q0 11 -7 17l-23 23q-9 9 -22 9
h-215q-6 0 -9 -1q-6 -2 -11 -8l-24 -23q-6 -6 -6 -17v-481q0 -10 6 -16l24 -24q3 -3 11 -7q6 -2 9 -2h215q13 0 22 9l23 24q7 6 7 16v481zM114 752q-6 0 -5 9q1 2 2 5l2 6q14 29 36.5 48.5t57.5 19.5q12 0 21 -1t16 -3l10.5 -3.5t15.5 -5t14.5 -5t9.5 -3.5q11 -3 24 -3
q23 0 32 8q5 4 11 10t11 15q2 3 5 3h48q4 0 5 -3q1 -2 0 -5q-11 -36 -38 -57q-26 -23 -63 -23q-22 0 -33 3l-10.5 3.5t-16 5.5t-16.5 5.5t-11 3.5q-6 2 -12 3t-12 1q-17 0 -31 -9.5t-21 -24.5q-1 -3 -5 -3h-47z" />
    <glyph glyph-name="uni00F6" unicode="&#xf6;" 
d="M476 637q6 -6 6 -18v-540q0 -12 -6 -18l-55 -55q-1 -1 -7 -5h-1h-1q-1 -1 -4 -1h-287q-2 0 -3 0.5t-2 0.5h-1q-2 1 -3.5 2t-3.5 3l-56 55q-4 8 -4 7q0 2 -0.5 3t-0.5 2l-1 2v548q0 1 2 7q0 -1 4 7l56 55q2 1 7 6h299q3 -3 4 -3l3 -3zM423 590q0 10 -7 17l-23 23
q-9 9 -22 9h-215q-3 0 -9 -2q-5 -1 -11 -7l-24 -23q-6 -7 -6 -17v-482q0 -10 6 -16l24 -24q6 -4 11 -7q6 -2 9 -2h215q13 0 22 9l23 24q7 6 7 16v482zM339 777q-9 0 -9 9v46q0 9 9 9h35q9 0 9 -9v-46q0 -9 -9 -9h-35zM159 779q-3 3 -3 7v46q0 9 10 9h35q9 0 9 -9v-46
q0 -3 -2 -6t-7 -3h-35q-3 0 -7 2z" />
    <glyph glyph-name="uni00F8" unicode="&#xf8;" 
d="M549 697q2 0 3.5 -2t-0.5 -4l-70 -93v-519q0 -12 -6 -18l-55 -55q-1 -1 -7 -5h-1l-1 -1q-1 -1 -4 -1h-287q-2 0 -3 1t-2 1h-1q-2 1 -3.5 2t-3.5 3l-42 42l-35 -46q-3 -3 -4 -3h-49q-2 0 -3.5 3t0.5 5l71 95v520q0 3 2 7q0 3 4 7l56 55q1 2 7 6h299q5 -3 7 -6l41 -40
l34 45q1 1 4 1h49zM106 181l316 417q-2 5 -6 8l-23 23q-9 9 -22 9h-215q-6 0 -9 -1q-6 -2 -11 -8l-24 -23q-6 -6 -6 -17v-408zM423 520l-316 -418q2 -7 5 -10l24 -24q3 -3 11 -7q6 -2 9 -2h215q13 0 22 9l23 24q7 6 7 16v412z" />
    <glyph glyph-name="uni00F9" unicode="&#xf9;" horiz-adv-x="545" 
d="M184 882q-3 3 0 8l25 26q4 2 5 2q2 0 2.5 -0.5t1.5 -0.5l110 -103q3 -3 0 -8l-25 -26q-1 -1 -4 -1q-4 0 -4 1zM484 699q6 0 6 -5v-615q0 -12 -6 -18l-56 -55q-3 -2 -6 -5h-2q-1 -1 -5 -1h-286q-3 0 -4 1h-1h-2q-2 1 -6 5l-56 55q-3 3 -3 5l-2 2q0 2 -0.5 2.5t-0.5 1.5v3
v619q0 5 6 5h48q5 0 5 -5v-586q0 -9 7 -17l24 -23q4 -4 10 -7q8 -2 9 -2h216q12 0 21 9l24 23q7 11 7 17v586q0 5 5 5h48z" />
    <glyph glyph-name="uni00FA" unicode="&#xfa;" horiz-adv-x="545" 
d="M431 693q0 5 5 5h48q6 0 6 -5v-614q0 -12 -6 -18l-56 -55q-4 -4 -6 -5q-1 0 -2 -0.5t-5 -0.5h-286q-4 0 -5 1h-2q-2 1 -6 5l-56 55l-3 4.5t-2 2.5q0 2 -0.5 3.5t-0.5 3.5v618q0 5 6 5h48q5 0 5 -5v-585q0 -8 7 -17l24 -23q5 -5 10.5 -7t8.5 -2h216q12 0 21 9l24 23
q7 9 7 17v585zM365 881q4 4 0 8l-25 26q-2 2 -5 2q-2 0 -3 -1l-110 -103q-3 -3 0 -8l25 -26q1 -1 4 -1t4 1z" />
    <glyph glyph-name="uni00FB" unicode="&#xfb;" horiz-adv-x="545" 
d="M484 698q6 0 6 -5v-614q0 -12 -6 -18l-56 -55q-2 -2 -3.5 -3t-2.5 -2q-1 0 -2 -1h-5h-286q-5 0 -5 1h-2q-4 2 -6 5l-56 55q-3 3 -3 4q-2 2 -2 3q0 2 -1 3v4v618q0 5 6 5h48q5 0 5 -5v-585q0 -9 7 -17l24 -23q6 -5 10 -7q8 -2 9 -2h216q12 0 21 9l24 23q7 8 7 17v585
q0 5 5 5h48zM163 803q-1 1 -1 4t2 5l101 80q3 3 7 3t7 -3l101 -80q2 -4 2 -5q0 -3 -1 -4l-23 -27q-1 -3 -5 -3l-4 2l-77 62l-77 -62l-4 -2q-3 0 -5 3z" />
    <glyph glyph-name="uni00FC" unicode="&#xfc;" horiz-adv-x="545" 
d="M484 699q6 0 6 -5v-615q0 -12 -6 -18l-56 -55q-3 -2 -6 -5h-2q-1 -1 -5 -1h-286q-2 0 -3 0.5t-2 0.5h-2q-3 3 -6 5l-56 55q-1 1 -2.5 4t-2.5 3v4q-1 1 -1 3v619q0 5 6 5h48q5 0 5 -5v-586q0 -9 7 -17l24 -23q3 -3 11 -7q6 -2 8 -2h216q12 0 21 9l24 23q7 8 7 17v586
q0 5 5 5h48zM347 777q-10 0 -10 9v46q0 9 10 9h35q5 0 6 -3q3 -1 3 -6v-46q0 -9 -9 -9h-35zM167 779q-3 3 -3 7v46q0 9 10 9h35q9 0 9 -9v-46q0 -3 -2 -6t-7 -3h-35q-3 0 -7 2z" />
    <glyph glyph-name="uni00FF" unicode="&#xff;" horiz-adv-x="526" 
d="M514 696q2 -3 0 -6l-215 -373v-311q0 -6 -5 -6h-48q-6 0 -6 6v312l-214 372q-3 3 0 6q2 3 5 3h57q4 0 5 -3l177 -304q8 13 23.5 40.5t35 60.5t40.5 69t38 65t28.5 48.5t11.5 20.5q2 3 5 3h57q4 0 5 -3zM339 770q-9 0 -9 9v46q0 9 9 9h35q9 0 9 -9v-46q0 -9 -9 -9h-35z
M166 770q-5 0 -7.5 3t-2.5 6v46q0 9 10 9h35q9 0 9 -9v-46q0 -3 -2 -6t-7 -3h-35z" />
    <glyph glyph-name="uni010C" unicode="&#x10c;" horiz-adv-x="524" 
d="M429 526q-5 0 -5 5v59q0 9 -7 17l-24 23q-6 9 -21 9h-215q-6 0 -9 -1q-6 -2 -11 -8l-24 -23q-7 -8 -7 -17v-481q0 -9 7 -16l24 -24q6 -6 11 -7q6 -2 9 -2h215q15 0 21 9l24 24q7 7 7 16v64q0 5 5 5h49q5 0 5 -5v-93q0 -12 -6 -18l-55 -55l-3 -3l-4 -2h-2q0 -1 -5 -1h-286
h-5q-1 1 -2 1q-1 1 -2.5 2t-3.5 3l-56 55q-2 4 -5 7v3q-1 1 -1 4v547q0 3 1 4v3q3 3 5 7l56 55l3 3l3 3h300q2 -1 4 -3l3 -3l55 -55q6 -6 6 -18v-88q0 -5 -5 -5h-49zM157 856q-2 2 -2 5t1 4l23 27q2 3 5 3l4 -2l77 -62l78 62q2 2 4 2q4 0 5 -3l22 -27q1 -1 1 -4q0 -4 -2 -5
l-101 -80q-3 -3 -7 -3t-7 3z" />
    <glyph glyph-name="uni010D" unicode="&#x10d;" horiz-adv-x="524" 
d="M429 526q-5 0 -5 5v59q0 9 -7 17l-24 23q-6 9 -21 9h-215q-6 0 -9 -1q-6 -2 -11 -8l-24 -23q-7 -8 -7 -17v-481q0 -9 7 -16l24 -24q6 -6 11 -7q6 -2 9 -2h215q15 0 21 9l24 24q7 7 7 16v64q0 5 5 5h49q5 0 5 -5v-93q0 -12 -6 -18l-55 -55l-3 -3l-4 -2h-2q0 -1 -5 -1h-286
h-5q-1 1 -2 1q-1 1 -2.5 2t-3.5 3l-56 55q-2 4 -5 7v3q-1 1 -1 4v547q0 3 1 4v3q3 3 5 7l56 55l3 3l3 3h300q2 -1 4 -3l3 -3l55 -55q6 -6 6 -18v-88q0 -5 -5 -5h-49zM157 856q-2 2 -2 5t1 4l23 27q2 3 5 3l4 -2l77 -62l78 62q2 2 4 2q4 0 5 -3l22 -27q1 -1 1 -4q0 -4 -2 -5
l-101 -80q-3 -3 -7 -3t-7 3z" />
    <glyph glyph-name="uni0150" unicode="&#x150;" 
d="M476 636q6 -6 6 -18v-539q0 -12 -6 -18l-55 -55q-4 -4 -7 -5h-1q-1 -1 -5 -1h-287q-4 0 -5 1h-1q-2 0 -7 5l-56 55q-4 4 -4 7q-2 8 -2 7v547q0 1 2 7q0 2 4 7l56 55q1 1 3 2.5t4 3.5h299q2 -3 4 -3l3 -3zM423 589q0 10 -7 17l-23 23q-9 9 -22 9h-215q-3 0 -9 -2
q-7 -2 -11 -7l-24 -23q-6 -7 -6 -17v-481q0 -10 6 -16l24 -24q4 -5 11 -7q3 -2 9 -2h215q13 0 22 9l23 24q7 6 7 16v481zM166 799q-3 5 0 8l110 103l1 1h2q1 0 5 -2l21 -22q3 -4 0 -8l-110 -102q-1 -1 -4 -1q-4 0 -4 1zM317 799q-3 5 0 8l110 103l1 1h2q1 0 5 -2l21 -22
q3 -4 0 -8l-110 -102q-1 -1 -4 -1q-4 0 -4 1z" />
    <glyph glyph-name="uni0151" unicode="&#x151;" 
d="M476 636q6 -6 6 -18v-539q0 -12 -6 -18l-55 -55q-4 -4 -7 -5h-1q-1 -1 -5 -1h-287q-4 0 -5 1h-1q-2 0 -7 5l-56 55q-4 4 -4 7q-2 8 -2 7v547q0 1 2 7q0 2 4 7l56 55q1 1 3 2.5t4 3.5h299q2 -3 4 -3l3 -3zM423 589q0 10 -7 17l-23 23q-9 9 -22 9h-215q-3 0 -9 -2
q-7 -2 -11 -7l-24 -23q-6 -7 -6 -17v-481q0 -10 6 -16l24 -24q4 -5 11 -7q3 -2 9 -2h215q13 0 22 9l23 24q7 6 7 16v481zM166 799q-3 5 0 8l110 103l1 1h2q1 0 5 -2l21 -22q3 -4 0 -8l-110 -102q-1 -1 -4 -1q-4 0 -4 1zM317 799q-3 5 0 8l110 103l1 1h2q1 0 5 -2l21 -22
q3 -4 0 -8l-110 -102q-1 -1 -4 -1q-4 0 -4 1z" />
    <glyph glyph-name="uni0152" unicode="&#x152;" horiz-adv-x="746" 
d="M393 638v-258h260q6 0 6 -6v-48q0 -6 -6 -6h-260v-261h319q6 0 6 -5v-48q0 -6 -6 -6h-611q-4 0 -5 1h-1q-2 0 -7 5l-56 55q-4 6 -4 7q-2 8 -2 7v547q0 1 2 7q0 1 4 7l56 55q2 1 7 6l617 1q6 0 6 -6v-48q0 -6 -6 -6h-297v0h-22zM334 638h-198q-11 0 -20 -9l-24 -23
q-6 -7 -6 -17v-481q0 -10 6 -16l24 -24q6 -6 11 -7q4 -2 9 -2h198v579z" />
    <glyph glyph-name="uni0153" unicode="&#x153;" horiz-adv-x="748" 
d="M395 638v-258h260q6 0 6 -6v-48q0 -6 -6 -6h-260v-261h319q6 0 6 -5v-48q0 -6 -6 -6h-611q-4 0 -5 1h-1q-2 0 -7 5l-56 55q-4 6 -4 7q-2 8 -2 7v547q0 1 2 7q0 1 4 7l56 55q2 1 7 6l617 1q6 0 6 -6v-48q0 -6 -6 -6h-297v0h-22zM336 638h-198q-11 0 -20 -9l-24 -23
q-6 -7 -6 -17v-481q0 -10 6 -16l24 -24q6 -6 11 -7q4 -2 9 -2h198v579z" />
    <glyph glyph-name="uni0160" unicode="&#x160;" horiz-adv-x="536" 
d="M485 80q0 -12 -6 -18l-56 -55q-2 -2 -3.5 -3t-2.5 -2q-1 0 -2 -1h-5h-286q-4 0 -5 1h-2q-1 1 -2 1t-2 1l-3 3l-55 55q-5 5 -5 7q-1 2 -1 7v90q0 6 5 6h49q5 0 5 -6v-57q0 -9 7 -16l24 -24q9 -9 19 -9h216q12 0 21 9l24 24q7 7 7 16v166q0 6 -5 11l-30 30q-5 4 -11 4h-258
q-4 0 -8 4q-1 0 -3 2l-56 56q-2 0 -4 6t-2 7v228q0 6 1 7q0 2 5 7l55 55l3 3q1 1 2 1.5t2 1.5h300l3 -3l3 -3l56 -55q6 -6 6 -18v-91q0 -5 -6 -5h-48q-5 0 -5 5v62q0 9 -7 17l-24 23q-9 9 -21 9h-216q-13 0 -19 -9l-24 -23q-7 -8 -7 -17v-159q0 -10 9 -19l23 -23
q10 -10 22 -10h249q6 0 10 -4q1 0 3 -2l56 -55q5 -8 5 -14v-224zM267 773q-4 0 -7 3l-101 80q-2 2 -2 5t1 4l23 27q2 3 5 3l4 -2l77 -62l77 62l4 2q4 0 5 -3l23 -27q1 -1 1 -4q0 -4 -2 -5l-101 -80q-3 -3 -7 -3z" />
    <glyph glyph-name="uni0161" unicode="&#x161;" horiz-adv-x="536" 
d="M485 80q0 -12 -6 -18l-56 -55q-2 -2 -3.5 -3t-2.5 -2q-1 0 -2 -1h-5h-286q-4 0 -5 1h-2q-1 1 -2 1t-2 1l-3 3l-55 55q-5 5 -5 7q-1 2 -1 7v90q0 6 5 6h49q5 0 5 -6v-57q0 -9 7 -16l24 -24q9 -9 19 -9h216q12 0 21 9l24 24q7 7 7 16v166q0 6 -5 11l-30 30q-5 4 -11 4h-258
q-4 0 -8 4q-1 0 -3 2l-56 56q-2 0 -4 6t-2 7v228q0 6 1 7q0 2 5 7l55 55l3 3q1 1 2 1.5t2 1.5h300l3 -3l3 -3l56 -55q6 -6 6 -18v-91q0 -5 -6 -5h-48q-5 0 -5 5v62q0 9 -7 17l-24 23q-9 9 -21 9h-216q-13 0 -19 -9l-24 -23q-7 -8 -7 -17v-159q0 -10 9 -19l23 -23
q10 -10 22 -10h249q6 0 10 -4q1 0 3 -2l56 -55q5 -8 5 -14v-224zM267 773q-4 0 -7 3l-101 80q-2 2 -2 5t1 4l23 27q2 3 5 3l4 -2l77 -62l77 62l4 2q4 0 5 -3l23 -27q1 -1 1 -4q0 -4 -2 -5l-101 -80q-3 -3 -7 -3z" />
    <glyph glyph-name="uni0170" unicode="&#x170;" horiz-adv-x="545" 
d="M484 698q6 0 6 -5v-614q0 -12 -6 -18l-56 -55q-5 -5 -6 -5t-2 -1h-5h-286q-4 0 -5 1h-2q-1 0 -6 5l-56 55q-2 4 -5 7v3q-1 1 -1 4v618q0 5 6 5h48q5 0 5 -5v-585q0 -9 7 -17l24 -23q4 -5 11 -7q3 -2 8 -2h216q12 0 21 9l24 23q7 8 7 17v585q0 5 5 5h48zM168 799q-3 5 0 8
l110 103l1 1h2q1 0 5 -2l21 -22q3 -4 0 -8l-110 -102q-1 -1 -4 -1q-4 0 -4 1zM319 799q-3 5 0 8l110 103l1 1h2q1 0 5 -2l21 -22q3 -4 0 -8l-110 -102q-1 -1 -4 -1q-4 0 -4 1z" />
    <glyph glyph-name="uni0171" unicode="&#x171;" horiz-adv-x="545" 
d="M484 698q6 0 6 -5v-614q0 -12 -6 -18l-56 -55q-5 -5 -6 -5t-2 -1h-5h-286q-4 0 -5 1h-2q-1 0 -6 5l-56 55q-2 4 -5 7v3q-1 1 -1 4v618q0 5 6 5h48q5 0 5 -5v-585q0 -9 7 -17l24 -23q4 -5 11 -7q3 -2 8 -2h216q12 0 21 9l24 23q7 8 7 17v585q0 5 5 5h48zM168 799q-3 5 0 8
l110 103l1 1h2q1 0 5 -2l21 -22q3 -4 0 -8l-110 -102q-1 -1 -4 -1q-4 0 -4 1zM319 799q-3 5 0 8l110 103l1 1h2q1 0 5 -2l21 -22q3 -4 0 -8l-110 -102q-1 -1 -4 -1q-4 0 -4 1z" />
    <glyph glyph-name="uni0178" unicode="&#x178;" horiz-adv-x="526" 
d="M515 696q2 -3 0 -6l-215 -373v-311q0 -6 -5 -6h-48q-6 0 -6 6v312l-214 372q-3 3 0 6q2 3 5 3h57q4 0 5 -3l177 -304q8 13 23.5 40.5t35 60.5t40.5 69t38 65t28.5 48.5t11.5 20.5q2 3 5 3h57q4 0 5 -3zM340 770q-9 0 -9 9v46q0 9 9 9h35q9 0 9 -9v-46q0 -9 -9 -9h-35z
M167 770q-5 0 -7.5 3t-2.5 6v46q0 9 10 9h35q9 0 9 -9v-46q0 -3 -2 -6t-7 -3h-35z" />
    <glyph glyph-name="uni017D" unicode="&#x17d;" horiz-adv-x="493" 
d="M449 59q6 0 6 -5v-48q0 -6 -6 -6h-410q-6 0 -6 6v57l351 574h-345q-6 0 -6 6v49q0 6 6 6h410q6 0 6 -6v-53l-354 -580h348zM244 773q-4 0 -7 3l-101 80q-2 2 -2 5t1 4l23 27q2 3 5 3l4 -2l77 -62l78 62q2 2 4 2q4 0 5 -3l22 -27q1 -1 1 -4q0 -4 -2 -5l-101 -80
q-3 -3 -7 -3z" />
    <glyph glyph-name="uni017E" unicode="&#x17e;" horiz-adv-x="493" 
d="M449 59q6 0 6 -5v-48q0 -6 -6 -6h-410q-6 0 -6 6v57l351 574h-345q-6 0 -6 6v49q0 6 6 6h410q6 0 6 -6v-53l-354 -580h348zM244 773q-4 0 -7 3l-101 80q-2 2 -2 5t1 4l23 27q2 3 5 3l4 -2l77 -62l78 62q2 2 4 2q4 0 5 -3l22 -27q1 -1 1 -4q0 -4 -2 -5l-101 -80
q-3 -3 -7 -3z" />
    <glyph glyph-name="uni02C6" unicode="&#x2c6;" horiz-adv-x="422" 
d="M173 803q-1 1 -1 4t2 5l101 80q3 3 7 3t7 -3l101 -80q2 -4 2 -5q0 -3 -1 -4l-23 -27q-1 -3 -5 -3l-4 2l-77 62l-77 -62l-4 -2q-3 0 -5 3z" />
    <glyph glyph-name="uni02C7" unicode="&#x2c7;" horiz-adv-x="422" 
d="M159 855q-2 2 -2 5t1 4l23 27q2 3 5 3l4 -2l77 -62l78 62q2 2 4 2q4 0 5 -3l22 -27q1 -1 1 -4q0 -4 -2 -5l-101 -80q-3 -3 -7 -3t-7 3z" />
    <glyph glyph-name="uni02DC" unicode="&#x2dc;" horiz-adv-x="436" 
d="M125 752q-6 0 -5 9q1 3 5 11q7 29 35.5 48.5t57.5 19.5q12 0 21.5 -1t16.5 -3l10.5 -3.5l15 -5t14 -5t9.5 -3.5q11 -3 24 -3q23 0 32 8q5 4 11 10t11 15q2 3 5 3h48q4 0 5 -3q1 -2 0 -5q-11 -35 -37 -57.5t-64 -22.5q-22 0 -33 3l-10.5 3.5t-16 5.5t-16 5.5l-10.5 3.5
q-7 2 -13 3t-12 1q-17 0 -31 -9.5t-21 -24.5q-1 -3 -5 -3h-47z" />
    <glyph glyph-name="uni02DD" unicode="&#x2dd;" horiz-adv-x="457" 
d="M168 799q-3 5 0 8l110 103l1 1h2q1 0 5 -2l21 -22q3 -4 0 -8l-110 -102q-1 -1 -4 -1q-4 0 -4 1zM319 799q-3 5 0 8l110 103l1 1h2q1 0 5 -2l21 -22q3 -4 0 -8l-110 -102q-1 -1 -4 -1q-4 0 -4 1z" />
    <glyph glyph-name="uni2013" unicode="&#x2013;" horiz-adv-x="522" 
d="M53 333q-6 0 -6 6v49q0 6 6 6h415q6 0 6 -6v-49q0 -6 -6 -6h-415z" />
    <glyph glyph-name="uni2014" unicode="&#x2014;" horiz-adv-x="765" 
d="M56 332q-6 0 -6 6v49q0 6 6 6h657q6 0 6 -6v-49q0 -6 -6 -6h-657z" />
    <glyph glyph-name="uni2018" unicode="&#x2018;" horiz-adv-x="147" 
d="M39 693q0 5 6 5h49q6 0 6 -5v-105q0 -5 -6 -5q-2 0 -3 1q-14 11 -26 19q-9 8 -17 14t-9 7v69z" />
    <glyph glyph-name="uni2019" unicode="&#x2019;" horiz-adv-x="148" 
d="M107 624q0 -1 -8 -7t-18 -14q-12 -8 -26 -19q-1 -1 -3 -1q-6 0 -6 5v105q0 5 6 5h49q6 0 6 -5v-69z" />
    <glyph glyph-name="uni201C" unicode="&#x201c;" horiz-adv-x="315" 
d="M58 698h49q6 0 6 -6v-68q-1 -1 -9 -7t-18 -14q-11 -9 -25 -20q-1 -1 -3 -1q-6 0 -6 6v104q0 6 6 6zM216 698h50q5 0 5 -6v-68q0 -1 -8 -7t-18 -14q-11 -9 -25 -20q-1 -1 -3 -1q-7 0 -7 6v104q0 6 6 6z" />
    <glyph glyph-name="uni201D" unicode="&#x201d;" horiz-adv-x="316" 
d="M261 698q5 0 5 -5v-105q0 -5 -5 -5q-3 0 -4 1q-14 11 -25 19q-10 8 -18 14t-9 7v69q0 5 6 5h50zM102 698q6 0 6 -5v-105q0 -5 -6 -5q-2 0 -3 1q-14 11 -26 19q-9 8 -17 14t-9 7v69q0 5 6 5h49z" />
    <glyph glyph-name="uni2022" unicode="&#x2022;" horiz-adv-x="304" 
d="M240 278h-154q-6 0 -6 6v153q0 6 6 6h154q5 0 5 -6v-153q0 -6 -5 -6z" />
    <glyph glyph-name="uni2044" unicode="&#x2044;" horiz-adv-x="491" 
d="M441 699q3 0 5 -2.5t0 -5.5l-326 -688q-1 -3 -6 -3h-64q-9 0 -5 8l329 688q2 3 5 3h62z" />
    <glyph glyph-name="uni20AC" unicode="&#x20ac;" horiz-adv-x="531" 
d="M426 521q-5 0 -5 5v61q0 9 -7 17l-23 23q-7 9 -21 9h-175q-11 0 -20 -9l-23 -23q-7 -8 -7 -17v-150h262q6 0 4 -6l-7 -45q-2 -6 -7 -6h-252v-78h234q6 0 4 -6l-7 -45q-2 -5 -7 -5h-224v-137q0 -10 7 -16l23 -24q5 -3 9.5 -6t10.5 -3h175q14 0 21 9l23 24q7 6 7 16v60
q0 5 5 5h49q5 0 5 -5v-89q0 -12 -6 -18l-55 -55q-1 -1 -5 -3.5t-9 -2.5h-244q-4 0 -7.5 2t-5.5 4l-56 55q-6 6 -6 14v170h-80q-5 0 -5 5l8 45q0 6 6 6h71v78h-52q-5 0 -5 6l8 45q0 6 6 6h43v183q0 2 0.5 5.5t5.5 8.5l56 54q2 3 3 3q3 3 7 3h3h244q10 0 14 -6l55 -54
q6 -6 6 -18v-90q0 -5 -5 -5h-49z" />
    <glyph glyph-name="uni222B" unicode="&#x222b;" horiz-adv-x="536" 
d="M485 79q0 -12 -6 -18l-55 -55q-3 -3 -7 -5h-1q-1 -1 -5 -1h-287q-4 0 -5 1h-1q-3 1 -7 5l-56 55q-4 5 -4 7q-2 6 -2 7v99q0 6 6 6h48q6 0 6 -6v-66q0 -10 6 -16l24 -24q5 -5 10.5 -7t9.5 -2h215q13 0 22 9l23 24q7 6 7 16v34v0v58q0 17 -13 24l-356 187q-4 2 -6 4.5
t-2 8.5v198q0 3 2 7q0 2 4 7l56 55q2 2 7 6h6h287h6q2 -2 3.5 -3t3.5 -3l55 -55q6 -6 6 -18v-100q0 -5 -5 -5h-48q-6 0 -6 5v71q0 10 -7 17l-23 23q-9 9 -22 9h-215q-4 0 -9.5 -1.5t-10.5 -7.5l-24 -23q-6 -7 -6 -17v-81v0v-27v0v-12q0 -6 1 -9q4 -8 12 -13q98 -51 175 -91
q33 -17 65 -34t57 -30t41 -21.5t17 -9.5q9 -5 9 -15z" />
    <glyph glyph-name="uni0041.1" horiz-adv-x="639" 
 />
    <glyph glyph-name="uni0061.1" horiz-adv-x="561" 
 />
    <glyph glyph-name="uni0045.1" horiz-adv-x="556" 
 />
    <glyph glyph-name="uni0065.1" horiz-adv-x="564" 
 />
    <glyph glyph-name="uni00C9.1" horiz-adv-x="556" 
 />
    <glyph glyph-name="uni00E9.1" horiz-adv-x="564" 
 />
    <glyph glyph-name="uni0049.1" horiz-adv-x="339" 
 />
    <glyph glyph-name="uni0069.1" horiz-adv-x="258" 
 />
    <glyph glyph-name="uni00CD.1" horiz-adv-x="339" 
 />
    <glyph glyph-name="uni00ED.1" horiz-adv-x="258" 
 />
    <glyph glyph-name="uni00C1.1" horiz-adv-x="639" 
 />
    <glyph glyph-name="uni006F.1" horiz-adv-x="605" 
 />
    <glyph glyph-name="uni00D3.1" horiz-adv-x="781" 
 />
    <glyph glyph-name="uni00F3.1" horiz-adv-x="605" 
 />
    <glyph glyph-name="uni0055.1" horiz-adv-x="731" 
 />
    <glyph glyph-name="uni0075.1" horiz-adv-x="618" 
 />
    <glyph glyph-name="uni00DA.1" horiz-adv-x="731" 
 />
    <glyph glyph-name="uni00FA.1" horiz-adv-x="618" 
 />
    <glyph glyph-name="uni0043.1" horiz-adv-x="632" 
 />
    <glyph glyph-name="uni0063.1" horiz-adv-x="480" 
 />
    <glyph glyph-name="uni0044.1" horiz-adv-x="730" 
 />
    <glyph glyph-name="uni0064.1" horiz-adv-x="615" 
 />
    <glyph glyph-name="uni0053.1" horiz-adv-x="549" 
 />
    <glyph glyph-name="uni0073.1" horiz-adv-x="479" 
 />
    <glyph glyph-name="uni007A.1" horiz-adv-x="470" 
 />
    <glyph glyph-name="uni005A.1" horiz-adv-x="572" 
 />
    <glyph glyph-name="uni0059.1" horiz-adv-x="566" 
 />
    <glyph glyph-name="uni0079.1" horiz-adv-x="510" 
 />
    <glyph glyph-name="uni0072.1" horiz-adv-x="413" 
 />
    </font>
</defs>
</svg>
